<mxfile modified="2024-03-20T10:30:18.466Z" host="Electron" agent="Mozilla/5.0 (Macintosh; Intel Mac OS X 10_15_7) AppleWebKit/537.36 (KHTML, like Gecko) draw.io/21.2.1 Chrome/112.0.5615.87 Electron/24.1.2 Safari/537.36" etag="E8kkJpBlWNO8-RNv-F6l" version="21.2.1" type="device">
  <diagram id="f106602c-feb2-e66a-4537-3a34d633f6aa" name="Page-1">
    <mxGraphModel dx="933" dy="627" grid="1" gridSize="10" guides="1" tooltips="1" connect="1" arrows="1" fold="1" page="1" pageScale="1" pageWidth="1169" pageHeight="827" background="none" math="0" shadow="0">
      <root>
        <mxCell id="0" />
        <mxCell id="1" parent="0" />
        <mxCell id="aiUlM5cSQ0hNtCzgjPbG-768" value="" style="group" vertex="1" connectable="0" parent="1">
          <mxGeometry x="80" y="10" width="805" height="160" as="geometry" />
        </mxCell>
        <mxCell id="aiUlM5cSQ0hNtCzgjPbG-765" value="&lt;b&gt;Spring Cloud&lt;/b&gt;" style="fillColor=#F6F6F6;strokeColor=none;shadow=0;gradientColor=none;fontSize=14;align=left;spacing=10;fontColor=#717171;9E9E9E;verticalAlign=top;spacingTop=-4;fontStyle=0;spacingLeft=40;html=1;container=0;" vertex="1" parent="aiUlM5cSQ0hNtCzgjPbG-768">
          <mxGeometry width="805.0000000000001" height="160" as="geometry" />
        </mxCell>
        <mxCell id="aiUlM5cSQ0hNtCzgjPbG-767" value="" style="shape=image;verticalLabelPosition=bottom;labelBackgroundColor=default;verticalAlign=top;aspect=fixed;imageAspect=0;image=data:image/png,iVBORw0KGgoAAAANSUhEUgAABLAAAAQTCAYAAAB0qdCPAAAAAXNSR0IArs4c6QAAIABJREFUeF7s3Qd0VGX+//HPpPeQQEikl9CbdCKI2BV7WSusIoqIgg1UwN6woCgqIHbxZ13Lqmuv9N57b6EFkkB6nf+5/H67f3dXZSaZZ+bemfc9Zw/nLM/zLa9njsA3c+91vVnvAre4EEAAAQQQQAABBBBAAAEEEEAAAQQQsKmA69M+Ixhg2fRwKAsBBBBAAAEEEEAAAQQQQAABBBBAQHL9fM0EBlh8EhBAAAEEEEAAAQQQQAABBBBAAAEEbCvgcrvdDLBsezwUhgACCCCAAAIIIIAAAggggAACCCDAAIvPAAIIIIAAAggggAACCCCAAAIIIICArQUYYNn6eCgOAQQQQAABBBBAAAEEEEAAAQQQQIABFp8BBBBAAAEEEEAAAQQQQAABBBBAAAFbCzDAsvXxUBwCCCCAAAIIIIAAAggggAACCCCAAAMsPgMIIIAAAggggAACCCCAAAIIIIAAArYWYIBl6+OhOAQQQAABBBBAAAEEEEAAAQQQQAABBlh8BhBAAAEEEEAAAQQQQAABBBBAAAEEbC3AAMvWx0NxCCCAAAIIIIAAAggggAACCCCAAAIMsPgMIIAAAggggAACCCCAAAIIIIAAAgjYWoABlq2Ph+IQQAABBBBAAAEEEEAAAQQQQAABBBhg8RlAAAEEEEAAAQQQQAABBBBAAAEEELC1AAMsWx8PxSGAAAIIIIAAAggggAACCCCAAAIIMMDiM4AAAggggAACCCCAAAIIIIAAAgggYGsBBli2Ph6KQwABBP5YoKAsX7kle1VSUaTSymKV/vPXykKVVBSrtLJIbrcbQgQQQAABBIJfwCVFhkUrJjJesRFxiolIUEyk9WucYiPilRhdR3XjGig8LCL4LegQAQQQCFIBBlhBerC0hQACzhYorypVUfkRFZUXqKSyQEdKDymnKFs5RXt0sGi3DhTtUlHFYWc3SfUIIIAAAgj4USAiLFJ1YxsoLb6R0uIbHv1faly64iKTlBBVRwlRyUcHYFwIIOC5wNoDC9S+fi9JLs83sRKBGgowwKohHNsQQAABXwoUVxQq+/Bm7T6yWbsOb1Ru8V4VVxxRUUWBSisKVVFd7st0xEIAAQQQQAABSWGucEVHxCo+MvnoACs1LkPN63RQk5S2apTUSpHhUTghgMAfCOwv3KUPVz2ra7vdr8ToFJwQMC7AAMs4MQkQQACBfxewbu2zBlaHivdo1b65WpuzQAcKd8KEAAIIIIAAAjYSsL6x1SS5vdqmdVeH9D5Kik5VbGSiosKjbVQlpSAQGIFqd5U+XPmcFu35Xjf1ekqZdTsHphCyhpQAA6yQOm6aRQCBQAkcLj2kHfnrtS1vlXbmb9TB4mzllewPVDnkRQABBBBAAAEvBFxyqX5CE9WLa6DmKR3UPKWjGiVnKjYywYsoLEUgeASyj2zRlPmjVVCepzMyB+ncttcHT3N0YlsBBli2PRoKQwABJwtUuStVWVWhzYdWaN6ub7TuwFxuA3TygVI7AggggAAC/yFgDa861u+rHo1OV4uUDkdvN7RuSeRCIBQEvlz3qr7b8s7RVq3nyE044zO5XGGh0Do9BlCAAVYA8UmNAALBJ3CweI+2562V9UBL61lW1sPW3e7q4GuUjhBAAAEEEEDgqIA1tEpPaKImddqqXVovNavT/ujD4bkQCFaBwvJ8TZx1o3J/czfBDT0mqFNGVrC2TF82EWCAZZODoAwEEHC2wIacpZqz8wut2j9L1e5qhlbOPk6qRwABBBBAoEYCYa6wowOtLhknq1+z89QytVON4rAJATsLfLX+DX2z+a1/K7FpSnvd2XeKncumtiAQYIAVBIdICwgg4H+Biqoy7S3YrnU5C7Vy3xztOrze/0WQEQEEEEAAAQRsLdA4ubU6pp+g9mm91SCpJW81tPVpUZwnAgcKd+uZ2cNVUln4b8vrxKRpZNZzSotv6EkY1iBQIwEGWDViYxMCCISqgPXtqjX7F2rW9k+08/A6WW8UtP4/LgQQQAABBBBA4PcErAfAW8/LapLcTv2aXaD29XvJesMhFwJOE3DLre82vaOvNr4ut9v9b+Vbz78afPw49Wh4mtPaol4HCTDActBhUSoCCARGwHpNsPXTpnUHFmjZ3l+0I3+drD/AuRBAAAEEEEAAAW8ErH/kN0luo+MzBqh9eu+jz86ybjvkQsAJAqWVxXp+7q3KPrLpd8vt1egsDTr+Hie0Qo0OFWCA5dCDo2wEEPCPwK78TZq943Otz1mgvNID/klKFgQQQAABBBAIegHrlqvW9XropOYXqXFyK0muoO+ZBp0tMGf7F/pozaQ/vPsgOjxWT531D95G6OxjtnX1DLBsfTwUhwACgRAoqyxRTlG2Zm7/VMv2/KSyqpJAlEFOBBBAAAEEEAgBgZiIeHVvcKr6N79I9eIaKDI8OgS6pkWnCRSWHdYTM4foSFnun5Z+Vee71KfJQKe1R70OEWCA5ZCDokwEEDAvYA2u1h1YqIXZ32pb7hoVVRw2n5QMCCCAAAIIIICApMToVLWp1119Gp+tlqmdFR4WgQsCNhFw69ftn+nj1c8fs570hKa6p/9rfH6PKcWCmggwwKqJGnsQQCCoBKw3Cm7NXa0v1r+inbxNMKjOlmYQQAABBBBwmkC4K0KdMk7U2a2uUVpCQx747rQDDMJ6iysKNW3h3dqet+aY3UWFx2hU1nNqUqftMdeyAAFvBRhgeSvGegQQCBoB6+2B63MWa97OL7V6/1xVuSuDpjcaQQABBBBAAAFnC8RGJqrrcQPUp/FANUtp5+xmqN7RAiv3zdZbyx6R9UPfY13WWzfPaztMp2Veeayl/D4CXgswwPKajA0IIBAMAgVlefpw9fNasfeXYGiHHhBAAAEEEEAgiAVObn65zmk7RNa3W7gQ8LfAkzNv+MM3D/5eLe3TemtYrwm8YdPfBxUC+RhghcAh0yICCPx/gX0F2zV/1zdauudn5ZfuhwYBBBBAAAEEEHCEQEZCM/VoeLp6NjpdKbH1HVEzRTpfYOGub/XOigleNWINWu87+R0lx9Tzah+LETiWAAOsYwnx+wggEBQC5VWlmrntM/2w5X9UUlkkt7s6KPqiCQQQQAABBBAIHYEwV/jRocDA1tepR8NTeVB26Bx9QDotKj+iVxaN19a8VV7nP7v1EJ3d+hqv97EBgT8TYIDF5wMBBIJawBpc7crfpK83vqFNucsZXAX1adMcAggggAACoSEQHhYp6zatM1oNUoPEFooMjwqNxunSrwLW27nfWPqQSiuLvM4bHR6nR0//WNERsV7vZQMCfyTAAIvPBgIIBK1AQVmuPlkzRWtzFqikoiBo+6QxBBBAAAEEEAhNgYSoOurW4BRd2H64IsIYYoXmp8Bc1y8vGKs1OfNqnODGnk+oQ3qfGu9nIwL/KcAAi88EAggEnUBxeYFW7JuprzfNUH7JvqDrj4YQQAABBBBAAIHfCmTEN9XZbYaoff3efOOFj4ZPBNbsn6+XF91Tq1gnNDlXl3e6Qy5XWK3isBmBfwowwOKzgAACQSWw8eDyo7cL7jy83qNX/QZV8zSDAAIIIIAAAiErEBMRp5apXXR262vVpE6bkHWg8doLWM+LtZ59tfnQ8loFa5zcWjf3eUZxkYm1isNmBBhg8RlAAIGgEiitLNbs7X/Xd5vfqdF9+kGFQTMIIIAAAgggELIC8VF1dFara9Sn8Vl8GytkPwW1a3zjwWV6bcl9KqkorF0gSWP6TVfjOq1rHYcACFgCfAOLzwECCDheYPOhlfpu0wxtOLhYbrkd3w8NIIAAAggggAACtRNwqVN6X52eebWapbSrXSh2h5zAjGWPa1H2dz7pO6vxubqyy2ifxCIIAgyw+AwggIBjBard1fpl69/0+Ybpqq6udGwfFI4AAggggAACCJgQCHdF6JKOo2Q9iyiM5xCZIA66mHuObNUTM6/zaV9PnPG54qKSfBqTYKEpwAArNM+drhFwvMDW3NX6YfO7WnNgHt+6cvxp0gACCCCAAAIImBIID4tQx/p9dUbm1dzKZQo5SOJWVJXp9SUPa82BOT7t6Moudymr8UCfxiRYaAowwArNc6drBBwrUO2u0pztX+jv66epvKrUsX1QOAIIIIAAAggg4E8B6yHvF7QdoaymA/k2lj/hHZRra+4qTV14t8oqi31atfV2zKHdH1FkeJRP4xIs9AQYYIXemdMxAo4VOFJ6SD9sfV/zdn6pssoSx/ZB4QgggAACCCCAQCAEosKj1avRWTqz1V+VHFM3ECWQ08YCH6yapDk7Ppd8/EzZunENdHPviaoX38DG3VOaEwQYYDnhlKgRAQSUV5KjGcsf05bclXK7qxFBAAEEEEAAAQQQqKFAm3rddU23+5QQVaeGEdgWbAIFpbmaMPM6FZbn+7w1lytMg7qMU89Gp/k8NgFDS4ABVmidN90i4DiBqupK7Tq8SR+uek67j2xwXP0UjAACCCCAAAII2FGgQWKmLu5wi1qmdpT1nCyu0BWwXoxk/V177k7r21dmrg71++rGXo+ZCU7UkBFggBUyR02jCDhTYPaOz/XdphnKL81xZgNUjQACCCCAAAII2FQgKTpVZ7T6q/o3u9CmFVKWPwSsHxY/N+dmVVSXG0sXHhapcSe9obT4RsZyEDj4BRhgBf8Z0yECjhSwHtD+/eZ39e2mtx1ZP0UjgAACCCCAAAJOETg9c5DOyLxK0RFxTimZOn0kYH376ov1r+jHLe/5KOIfhxnYeqjOaj3YeB4SBK8AA6zgPVs6Q8CxAtYfpB+vfkFzdn4u662DXAgggAACCCCAAALmBKxbCI/PGKDz2g1Tamx9c4mIbDuBwrJ8TZo7UjlFu4zX1jApUyOzJikuMtF4LhIEpwADrOA8V7pCwLEC1tsFZyyfoJX7Zjq2BwpHAAEEEEAAAQScKJAam6HrezyqRsmZTiyfmmsg8M3GGfpq42s12On9loSoZN3Y8wk1TWnn/WZ2ICCJARYfAwQQsI3AwaI9em/l09p0aJltaqIQBBBAAAEEEEAglATS4hvqona3qGNGVii1HZK9Hirep2fnjFBBWa7f+j+nzVCd2YrbCP0GHmSJGGAF2YHSDgJOFbCGVxNmDlFFVZlTW6BuBBBAAAEEEEAgKATCXRG6vNOd6tPk7KDohyZ+X+DrjW/p641v+JWnRUon3db3Bb/mJFnwCDDACp6zpBMEHCuwZv98fbT6OeWW7HNsDxSOAAIIIIAAAggEk0B0eKwGtrlOJ7f4SzC1RS//J2C94XvK/DHaV7jd7yZ39J2qZtxG6Hf3YEjIACsYTpEeEHCwwJLsH/XBqmdVWlnk4C4oHQEEEEAAAQQQCD4BlytMfZucr8s63RZ8zYV4RzO3f6ZP1rwQkBcmndD4XF3RZXSInwDt10SAAVZN1NiDAAI+EViS/ZM+Wj1JxRUFPolHEAQQQAABBBBAAAHfC5zfdphOy7zK94GJGBAB6+/ez825RfsKdwQkf0JUHY058WWlxKYHJD9JnSvAAMu5Z0flCDhaYPaOL/Tl+ldUXHHE0X1QPAIIIIAAAgggEAoC/Zpa38S6IxRaDfoef9rykT5b91LA+owMi9K13R5Qp4y+AauBxM4UYIDlzHOjagQcLTBv51dHn3lVWV3u6D4oHgEEEEAAAQQQCCWB89oO0+l8E8vRR249++ql+Xdqf+HOgPZxQpPzdEXnOwNaA8mdJ8AAy3lnRsUIOFrA+onPt5vfVgm3DTr6HCkeAQQQQAABBEJToH+zi3Vpx1Gh2XwQdD1/19f6cNWkgP8gOS2+se47eUYQiNKCPwUYYPlTm1wIhLCAW279svVjfbr2xRBWoHUEEEAAAQQQQMD5AgNbD9FZra9xfiMh1kG1u0qT596urXkrbdH50B6PqktGP1vUQhHOEGCA5YxzokoEHC+wfO9MfbDqGRWVH3Z8LzSAAAIIIIAAAgiEskCYK1yXdbxdJzQ9N5QZHNf7ot3fa8byx2xTd8vULhqZ9ayszxMXAp4IMMDyRIk1CCBQK4HNh1bqhXm3yvoWFhcCCCCAAAIIIICA8wVccmlYz8fVIT3L+c2EQAfWD5GfnjVMuSX7bdOt9Rm6q/+rapjU0jY1UYi9BRhg2ft8qA4BxwvsK9ih15bcF/AHRToekgYQQAABBBBAAAGbCaQnNNW13e5nAGGzc/m9chZn/6j3Vj6liqoyW1V7YbubdHLLy2QNs7gQOJYAA6xjCfH7CCBQYwG3u1rPzR2lbXlrJL59VWNHNiKAAAIIIIAAAnYViI9K1pgTX1ZqbIZdS6QuSS8vHKc1B+bazqJD/T66rvtDigyPtl1tFGQ/AQZY9jsTKkIgKARKK4v00arJWpT9bVD0QxMIIIAAAggggAACvy/QLq23Bh0/VonRdSCyoYD1OI8pC+5UZXWF7apLik7VHX2nKjUu3Xa1UZD9BBhg2e9MqAiBoBD4dtMMfbvpbVv+QRkUwDSBAAIIIIAAAgjYRCDcFaFejc7UlV3G2KQiyvinQHlV6dE3D+48vM62KBe1v0Unt7jUtvVRmH0EGGDZ5yyoBIGgEdiYs1QvLx6viqqSoOmJRhBAAAEEEEAAAQT+XODcNjfo1JaXKzwsAiqbCKzYO0tvLH1A1e5qm1T032Ucl9BSY/pPVURYlG1rpDB7CDDAssc5UAUCQSOQU5StVxffp70FW4OmJxpBAAEEEEAAAQQQOLZAXGSSBncdJ+u5RlyBF6isLtfrix/Uahs+++o/dW7u/azapHULPBoV2FqAAZatj4fiEHCWgPWTnXdXPKWFu79xVuFUiwACCCCAAAIIIOATgQaJLXVb3xcUExHnk3gEqbnAhpzFmrbwblW5q2oexE87T2lxuS5oP5y3EfrJ26lpGGA59eSoGwEbCszb8ZU+XjtZ1r32XAgggAACCCCAAAKhKfC/D3W/R4nRKaEJYIOui8qPaPLcW7W3cJsNqjl2CY2T22h4ryd5EcCxqUJ6BQOskD5+mkfAdwLb8tYc/UOyyl3pu6BEQgABBBBAAAEEEHCcQJgrTKe3HKRz2l7nuNqDpeB5O/6h91Y97Zh2YiLidXvfF3VcYnPH1Eyh/hdggOV/czIiEHQC1v310xeO0/qDi4OuNxpCAAEEEEAAAQQQ8F4gPrKOru3+gNrU6+r9ZnbUSqCo/LCmLbxHO/Lt++bB32vwjMzBOrft0Fr1zubgFmCAFdznS3cI+EXgpy0f6vP102z9dhO/QJAEAQQQQAABBBBA4F8CcZGJuuvEV5Qal4GKHwXm7fpKH6yc6Li/m6fFN9Z9J8/woxSpnCbAAMtpJ0a9CNhMYHvuWk2ef5usb2FxIYAAAggggAACCCDwTwGXXDo9c7AGtrlW1m2FXOYFCsvyNXnebdpXuN18MgMZRvSaqLb1exiITMhgEGCAFQynSA8IBEigtLJYby991BGv5g0QEWkRQAABBBBAAIGQFoiNSNBNvZ9Ws5R2Ie3gr+a/3/Suvtgw3V/pfJ6nX9OLdFmnW30el4DBIcAAKzjOkS4QCIjAot3f6/1VE1VRVRaQ/CRFAAEEEEAAAQQQsL9A0zodNKL3k4qNTLB/sQ6u8FDxXk1ZMEY5RbuNddEqtau2569RhaG7LzISm+nm3s8oOaausR4I7FwBBljOPTsqRyCgAvsKtuvF+XfqSNmhgNZBcgQQQAABBBBAAAH7C5zV6hqd2fqvCneF279Yh1b4w+b39Y8Nrxp7K7h1G+jlne7UZ2unqKSyyIhSbGSihvd6Qs1TOhiJT1BnCzDAcvb5UT0CARGwvnH13sqJWpz9fUDykxQBBBBAAAEEEEDAWQIpsRka0fsppSc0cVbhDqk2vzRHE2cNN/rD5aToVN3T/3X9tOVv+mHrO8Zkzmz1V53T5jpj8QnsXAEGWM49OypHIGACq/fP1dvLHlOpoZ+8BKwxEiOAAAIIIIAAAggYE+h63Cka0v1+Y/FDNbD1w+V3V07UEsM/XB7S9UF1bThABeX5Gv/dhca4myS31egTpxmLT2DnCjDAcu7ZUTkCARGodlfrpXl3alPusoDkJykCCCCAAAIIIICAcwWGdHtQXRsMcG4DNqx8S+4qvbJonIorCoxV16puV43MmvSv+M/OHqHt+WuN5bu970vcRmhM17mBGWA59+yoHIGACPyy9W/6ZO2LAclNUgQQQAABBBBAAAFnCzRL6aDrezwi63Y0Lt8IvLHkIS3b+7Nvgv1OlIiwKF3W8Xb1aXL2v373+83v6ov15t522L/ZJbq040hjPRHYmQIMsJx5blSNQEAEDhTu0ksLRiuvZH9A8pMUAQQQQAABBBBAwNkCLleYLm5/i05qfrGzG7FJ9WsPLND0ReNU7a4yVlFKTH2NPvFlJUan/CvHupxFen3x/SqrKjGSNzU2Q3f0m8Kg04iuc4MywHLu2VE5An4X+GL9q/pxy3tG/4D0e1MkRAABBBBAAAEEEPCrQL24RkdvR0uJTfNr3mBLVlR+WC/NH63dRzYZbW1Ql7Hq1fjMf8tRXHFET88arkPFe4zkjomI1/U9HlXrel2NxCeoMwUYYDnz3KgaAb8L7CnYpkmzRxj7KYvfGyIhAggggAACCCCAQMAEshqfq8s736EwV1jAanB2Yrdmbf9cH6+ZbPSHyy1Tu+jmPhMVERb5X1xvLn1US/f8YITRJZfOaDWYtxEa0XVuUAZYzj07KkfAbwJllSV6fclDWpcz3285SYQAAggggAACCCAQvAJxkUka2v0hteIbNjU6ZOuB7S/Mu0PZBr99ZT376srOo9Wz0Rm/W+Ou/I16evawGtXvyaaWKZ11a9/JnixlTYgIMMAKkYOmTQRqI7Bs7696e9mjqqquqE0Y9iKAAAIIIIAAAggg8H8CLh1/3ABd1/0BRGog8PWGt/TN5rfkdlfXYLdnWxokttDNfZ75t2df/efOh368WodKsj0L6OWqyLAojTnxFWUkNvVyJ8uDVYABVrCeLH0h4COB8qpSTVlwl7bmrvRRRMIggAACCCCAAAIIIPC/Ata3sLocdxIcXgjsOrxJT8+6wYsd3i+1bu28svM96t3497999c+IX214U99setP7BB7uOKXFFbqw/XAPV7Ms2AUYYAX7CdMfArUU+GXrx/ps3RSj99bXskS2I4AAAggggAACCDhUoH5846Pf8kmJre/QDvxbdkVVmT5c9ZwW7P7aaOIO9bM0pPuDigqP/tM8Ww6t1NSFd8n6obeJKzkmTff0f03xUUkmwhPTYQIMsBx2YJSLgD8F9hZs14Rfr/VnSnIhgAACCCCAAAIIhJCA9U2fc9vcoFMzr5D14G6uPxfYmrta0xberdLKImNUCVF1dEufZ9QgqeUxc+SX5GjKgjHaV7j9mGtrsiDcFaEbez2ptmnda7KdPUEmwAAryA6UdhDwlUBldYU+XTNFs3Z86quQxEEAAQQQQAABBBBA4L8E6sY10KisSUqJTUfnTwQKyvKODouyj2w26mS9IfLSjiMVeYxvX/1vEW69vfQxLTb4NsLTWw3SOa2vk8vFgNPowTsgOAMsBxwSJSIQCIF9Bbs0ed5IFZbnByI9ORFAAAEEEEAAAQRCSKBXw7M1qOvdIdSx961+s3GGvtr4mvcbvdxh3bLnybev/hl22Z5f9MbSB73M4vnyzLrHa0Tvp2S9FZErtAUYYIX2+dM9Ar8rUFZZrFeXPKANOYsQQgABBBBAAAEEEEDALwLDez2p9vV7+yWX05LsPrxJryy+V3kl+42Vbt3OeU6b63V65lVe5aisrtR9P1yiovLDXu3zdHFsZLxG93tFafENPN3CuiAVYIAVpAdLWwjURmD+zq/13sqn5Ja7NmHYiwACCCCAAAIIIICAxwLt03offXB4dESsx3tCZeGMZY9rcfb3Rv9+3ji5jUb0frpGD0x/b8VEzdv1pbHjOLv1dTq79V+NxSewMwQYYDnjnKgSAb8JHC49pKkL7tKegi1+y0kiBBBAAAEEEEAAAQSsZy4N7jJOxzc4CYzfCCzJ/lFvLXvEuMkVnUYrq+k5NXqY/va8tZo871ZZz9E1cdWNa6ixJ72mqPAYE+GJ6RABBlgOOSjKRMBfAj9ufl9fbnhVVe5Kf6UkDwIIIIAAAggggAACRwWSolN1Z79pSomtj4ik3OL9mr5orPYUbDXq0TS5vW7JmqjoiLga5bF+CP7i/Du139DbCK2ibu7zrNrU61aj+tgUHAIMsILjHOkCAZ8I5BRla9KcW1RYnueTeARBAAEEEEAAAQQQQMBbgdMzB+mcNkMU5gr3dmvQrf9qw5v6dvPbcrurjfUWFR6rEX0mqkVKhxrnqHJX6X+WP6nF2d/VOMaxNp6ROVjntOFthMdyCubfZ4AVzKdLbwh4IVBWWaIZyx/Xyn2zvNjFUgQQQAABBBBAAAEEfCuQEpt+9FlM6QlNfBvYYdGsB7dPWTDG6FvBXXKpd+OBuqrLmFrrzN/1jd5d8USt4/xRgBapnTWs5+OKi0wwloPA9hZggGXv86E6BPwmsPHgMr2+5H4VVxT4LSeJEEAAAQQQQAABBBD4PYHejc/WlZ3HyHozXihe1lvBX140TpsPLTfafkJUHd3ce6IaJmfWOs+Rslw98MNlxh5FkhCVrNv6vqT68Y1qXSsBnCnAAMuZ50bVCPhUwHrb4LQF92hdzgKfxiUYAggggAACCCCAAAI1EYgIi9J13R9Wx/Q+Ndnu+D0/bvlAX65/xdgw6J9AF7QboVNbXuYzr9cXP6Tl+372Wbz/DHRB2+E6NfMKY/EJbG8BBlj2Ph+qQ8AvAnN3/kPvr3zaL7lIggACCCCAAAIIIICAJwLpCU01Kut5JUbX8WR50KwpKs/XEzOv1+HSg0Z7aluvp0b08e2/ATbkLNVLC+4wVnfT5A6688SXjMUnsL0FGGDZ+3yoDgHjAgeLso++MSS3ZJ/xXCRAAAEEEEAAAQQQQMBTgcjABGm+AAAgAElEQVTwaF3SYZROaHKOp1scv66w/LBeW3yftuSuNNpLXGSSru12v9qm9fBpntLKYk2cNVwHinb6NO5vg43p94oa12llLD6B7SvAAMu+Z0NlCPhF4O/rpumnLR/Iuo2QCwEEEEAAAQQQQAABOwnUT2iiu058RVHh0XYqy0gt1psGf9jygb5Y/7KR+L8N2q/phbq040ifv+mxqrpSM5ZP0NI9Pxrr4bw2w3R6q6uMxSewfQUYYNn3bKgMAeMCuSX79fycUcor3W88FwkQQAABBBBAAAEEEKiJwIlNL9JFHUYoIiyyJtsds2fPkS2avmi88TsjUmMzNOqE55Uam27EZoH1NsKVT8kayJm4WqZ20Y29JigmIs5EeGLaWIABlo0Ph9IQMClQ7a7S9EX3au2BeSbTEBsBBBBAAAEEEEAAgVoJxEYmaHjPJ9U8tUOt4th5s/XWwakL79FWw7cORofHatDxY9XluP7GOPYV7tCTvw419gD6lNh0jeg9UekJjY31QGB7CjDAsue5UBUCRgWs2wWX7/lVbyx90GgegiOAAAIIIIAAAggg4AuBrsedrCHdH/BFKNvFqHJX6YfN7+kfG141XluH+ln6a9fxsoaCJq+X5o/RhoOLjKQId0Xor93uVdfjBhiJT1D7CjDAsu/ZUBkCxgTKKkv0yqLx2nhoqbEcBEYAAQQQQAABBBBAwFcC0eFxGtrjYZ8/dNxX9dUmzs78DXpl8Xjjbx20Hoo/ss8kNUtpX5tyPdq77OgPy80NHHs2PFODu471qBYWBY8AA6zgOUs6QcBjgbk7vtT7qyZ6vJ6FCCCAAAIIIIAAAggEWqBuXEON7jdF8VHJgS7FZ/nLq8r06qJ7td7Qt5X+WWiYK1zntB7q14efP/DjFcoz9KbzxKhUPXja+4oMi/LZWRDI/gIMsOx/RlSIgE8FDhTt1ovzbld+aY5P4xIMAQQQQAABBBBAAAHTAue0GarTM69WmCvMdCrj8SurK/TVhjf0w5Z3jedqkdJJN/Z6QrGR8cZz/TPB28se0+Ls743lu6bbA+re4GRj8QlsPwEGWPY7EypCwJiA9eD2j9e8pFnbPzGWg8AIIIAAAggggAACCJgSSI9vqtv6vqD4qCRTKfwWd1vuGk1fNFZFFUeM5nTJpeG9nlK7+j2N5vnP4Euyf9I7Kx5XVXWlkbxdG5ysId3M3aZopGiC1kqAAVat+NiMgLMEtuet06uL79WRskPOKpxqEUAAAQQQQAABBBD4P4H+zS7WpR1HOdojv+SApi8ar91HNhnv47SWV+u8dtfLGmT589pzZKtemH+7isoPG0mbGpuukVnPq25chpH4BLWfAAMs+50JFSFgTOC1xQ9qxb5fjMUnMAIIIIAAAggggAACpgWs5znd1Hui2tTrajqVkfjWrYMzlk3Qsr0/GYn/26AtUjrr5j5Py3qAu78vt7taL8y7Q5tzlxtJHR0Rp6HdH1HbtO5G4hPUfgIMsOx3JlSEgBGBJdk/6q1ljxiJTVAEEEAAAQQQQAABBPwp0CH9BF3TdbxiIvz3TCdf9Tdv5z/0t9WTVVFd5quQvxvHesD59T0eVbv6vYzm+bPgs7Z/ro9WP2ss/2ktr9L57YYZi09gewkwwLLXeVANAkYEDpce1PSF47TryEYj8QmKAAIIIIAAAggggIA/BSLCIjWo63h1O26AP9PWOldO4W5Nnn+7DvvhhUonNbtEF7a/SeFhEbWuu6YBCsry9fDPV6mssrimIf50X7M6HXVHvxeNxCao/QQYYNnvTKgIAZ8LzNz2iT5dN1VV1RU+j01ABBBAAAEEEEAAAQQCIdAwqZVGZj2ruMjEQKT3OmdxRYGmL7xXW/NWeL3X2w3NUzpoVNZzCg+L9Harz9e/vGCs1uTM83lcK6DLFaax/V9XRmIzI/EJai8BBlj2Og+qQcDnAgeL92rSnJtVUJbr89gERAABBBBAAAEEEEAgkAJntbpGZ7e51u8PKPe2Z+tt4J+vm66ft34ot9zebvdqfWxEggZ3Ha+O6Vle7TO1+OetH+nTtVMkQ32f0XKQzm13vanyiWsjAQZYNjoMSkHA1wLWK2vfX/msFuz+ytehiYcAAggggAACCCCAQMAF6sTU1429JqhhUsuA1/JnBWzNXa3pi8apuOKI8Tr7Nr1Ql3YcqXBXuPFcniTYkbdOLy+6R4WG3kZYN66B7un/qqyHunMFtwADrOA+X7oLcYFNB5frlcXjVVpZFOIStI8AAggggAACCCAQjALWLWR9m1ygyzrdatv29hfu0vSFY5VTvNt4jY2T2xwd6CVFpxrP5WmCgrI8vTj/du0t2O7pFq/WRYXH6ObeE9U8taNX+1jsPAEGWM47MypGwCMBt9utVxffp1X7Z3u0nkUIIIAAAggggAACCDhVYFTWZGXW7Wy78q2Hl7+17FGt3j/XeG3xkUm6vudjapnayXgubxN8tHqyZm3/xNttHq0Pc4Xp4vYj1b/5RR6tZ5FzBRhgOffsqByBPxVYmv2L3lnxuCqry5FCAAEEEEAAAQQQQCCoBVqmdtHQHg8rISrZVn3+uOUDfb3xDZVXlRqv6+QWl+ncNtcrMjzKeC5vE6w9sFDTFt7l7TaP13dOP1FDezx09KHuXMErwAAreM+WzkJYILdkvyb8OsTY62pDmJbWEUAAAQQQQAABBGwoEBEWpSs6j1avRmfYprple37VW8selvUAd9NX23o9Nbz3EwqzyXOv/rNft7taD/x0pfJL9huhSI5J04OnvqdwV4SR+AS1hwADLHucA1Ug4DMB6w+Hbze9c/QnPabfcOKzogmEAAIIIIAAAggggEAtBRomtdLIrGcVF5lYy0i1374zf4NeX/KAckv21T7YMSJYDzG/ocdjapDU3Hiu2iT4aNXzmrXj09qE+NO913Z9QN0anmwsPoEDL8AAK/BnQAUI+FSgsCxfE2cP98sflj4tnGAIIIAAAggggAACCNRCwCWXTm15tc5vd30totR+a7W7WlPmj9GmQ0v98gPlKzqPUVbjs21/+9z6nEV6edE4VVVX1B75dyK0rddbI/o8aSQ2Qe0hwADLHudAFQj4RMB63tW7y5/W4j3f+yQeQRBAAAEEEEAAAQQQcJJAeFiEbs2arGYp7QNSdllliT5dO0Vzd35hPL81sOvVaKCu6nKn7YdXFob1mJOX5t+pnCJzb2O87+T/UVp8Q+P2JAiMAAOswLiTFQEjAqv3zdWrS+7zy332RhogKAIIIIAAAggggAACtRKwhjpn6srOo2UNs/x9/bL1b/p8/cuqNPQto9/207ROOw3r+bgSo1P83WaN8pVXlem1xfdpXc7CGu33ZNPgLuPVs/HpnixljQMFGGA58NAoGYHfEyipKNT0ReO1JXcFQAgggAACCCCAAAIIhKxATES8RvR+Ss1SOvjVYFf+Rk1beI8KynON542OiNXQ7o+obVoP47l8meCXrR/rk7Uv+DLkv8Xq0fAMXd3lroAML401ReB/CTDA4sOAQJAILNr9vd5fNVEVVWVB0hFtIIAAAggggAACCCBQM4GMhGYalfW8EqKTaxbAy137C3fq1cX3yvrVH9c5ba7XaS2vcNygJvvwFj05a6gxokZJrXRLn2cUF5VkLAeBAyfAACtw9mRGwGcCheX5enrmjcorNfNaWp8VSiAEEEAAAQQQQAABBPwkcEn7Uerf4iJZz4oyeVk/QH5j6cNavX+OyTRHY1u9dM44UUN7PGw8l6kEz8y+WTvy1xgJHxEWpTv6vqRGya2MxCdoYAUYYAXWn+wI1FrAur/+07VTNWv7J7WORQAEEEAAAQQQQAABBIJFICOxmW7p/YySYuoaa8kaXn2x4TXN3PaxX55DWzeugYb1fEzHJTY31pPpwD9v/Zs+XfuisTRnZA7WuW3NfcvLWOEEPqYAA6xjErEAAXsL7C3YrikLRutw6UF7F0p1CCCAAAIIIIAAAgj4WeC0llfp/HbDjGWds+NLfbDqGUluYzl+G3hYjwnqmJHll1ymkhwuPaQJv16r4ooCIynSE5pq/IC3jMQmaGAFGGAF1p/sCNRa4O1lj2tx9ne1jkMABBBAAAEEEEAAAQSCTSA6Ik439XpaLVJ9/0D39QcW6X9WPKHDZYeMs0WGRemsVtfo9FZXG89lOkFpZbGmLbhHW/NWGkt1R9+papbSzlh8AgdGgAFWYNzJioBPBFbum6M3ljygKnelT+IRBAEEEEAAAQQQQACBYBNoVbebbuj5iKy3E/rq2pG/Xi/Nv1OllUW+CvmncVrX66Hruj2guKhEv+QzmaTaXa3P1k7VL9s+Mpbm/LY36rTMK43FJ3BgBBhgBcadrAjUWuBIaa5eXnSPdh3eWOtYBEAAAQQQQAABBBBAIFgFYiMSNLjreHVM982td4eK9+qNpQ9pZ/56v5DVjT1Ow3pN0HGJzfySzx9JVu6bffStjaauNvV66Poejyg6ItZUCuIGQIABVgDQSYmALwR+3vqRPl/3Mt++8gUmMRBAAAEEEEAAAQSCWqBpnfa67YTJCg+LqHWfbyx5RCv2/eKXh7YnRKXouu4PKbNu51rXbacA1nOw7v/xUrndZp4dlhbXSCP6TFTduAw7tU0ttRRggFVLQLYjEAiB4vICPTd3pPYVbg9EenIigAACCCCAAAIIIOA4gXPb3HD0trIwV1iNarfeOPjl+tf087YPa7S/JptOz7xaA1sP8cngrSb5Te55c/EjWrrvRyMpIsOiNbzXE2pVr6uR+AQNjAADrMC4kxWBGgu43dX6cNXzmrPz7zWOwUYEEEAAAQQQQAABBEJNICU2XcN7PVnjW/F+2faxvlg/XdYgyx9Xx/p9NajrPYqLdP5zr37Pa92BRZq6cIwxygHNL9PFHUYYi09g/wswwPK/ORkRqJXAxoPLjj77yl9/cNaqWDYjgAACCCCAAAIIIGAjgf7NLtKlHW/1qiLrNrcNh5bqlUXj/PZ38IZJmRqV9bxiI3334HmvmvbDYrfceuSnQTpYnG0kW3pCU4096XWFucKNxCeo/wUYYPnfnIwI1FjAemPHW0sf0bK9v0gyc794jYtjIwIIIIAAAggggAACNheIj0zWTb2fUpM6bTyudEvuKs1Y9phyS/Z5vKe2C6/r/rC6HHeiXHLVNpSN97v15tJHtXSPmdsIrcZvy3pRLep2tLEBpXkjwADLGy3WIhBggbUHFmrawrsCXAXpEUAAAQQQQAABBBBwrkDTOh00KutZRYZHH7MJ6/EdE369XvsKtx5zrW8WuHRph1vVv/mFvgln8yjzdn6lD1Y9Y+yB+KdnDtZ5bYfaXIHyPBVggOWpFOsQCLCA9aaOF+bdoQNFOwJcCekRQAABBBBAAAEEEHCugPUmwss63qGsJmdLf/INp5yi7KN3P+w8vN4vzYa7wnVyi8t1frthfslnhyQ78tfrxfl3qKyy2Eg5Teu0O/o2wtiI4L0V0wicTYMywLLpwVAWAr8VsO67/37zu/pywyvAIIAAAggggAACCCCAQC0FmtZpr9v6Tla4K+J3I5VVlujVxfdpw8HFtczk+fZ2ab01pPv9igmhYUt5VamenHmDcop2eQ7lxcrkmHq6qddTapDUwotdLLWrAAMsu54MdSHwGwHrpz/TFt6tnKLduCCAAAIIIIAAAggggIAPBM5pc4PObHX1f0UqqSjUByuf1dK9P/kgi2chmtRpp+u7P6w6sWmebQiiVV9teFPfbHrTSEcRYZEadPxYdWtwipH4BPWvAAMs/3qTDYEaCXy4cpLm7Pxc1ps6uBBAAAEEEEAAAQQQQKD2AtHhsRp1wmQ1Tm71r2BV1ZX6aPXzmrvzi9on8DBCcnRdDe3xiJqltPdwR3At21ewUxN+vcbYv3WympyrKzuPDi60EO2GAVaIHjxtO0dgXc5iTV3Af3Cdc2JUigACCCCAAAIIIOAUgT6NB+qyTrfL+qaOdS3c/a3eW/G0qtyVfmkhLjJRV3W5W50z+vkln12TTJp9i7blrzZSXlp8Y4076Q1Zzz7jcrYAAyxnnx/VB7lAcUXB0QdHrstZGOSd0h4CCCCAAAIIIIAAAv4XsJ43NazX48pM7aLZOz7Xp2tfUkVVmV8KiYmI08UdRqpPY+th8qF9fb5uun7Y8q4RBJdcGpk1SZl1jzcSn6D+E2CA5T9rMiHgtcDyvTM1Y/ljfvtD1OsC2YAAAggggAACCCCAgMMFWqV21WmZV+ntZY+qqOKw37rp1/QCXdR+hCLDo/2W066JNhxccvSh+abeRnhSs0t0SceRdm2fujwUYIDlIRTLEPC3wJHSXE2ed6sOGHojh7/7IR8CCCCAAAIIIIAAAnYVSIquqyNlh/xWXqf0frqyyxglRCX7LaedEx0q3qcX59+uQ8V7jZSZFt9Id/abKuuWTS7nCjDAcu7ZUXkQC1gPa/9y3ev6fsuMIO6S1hBAAAEEEEAAAQQQCD2BZnU6anjvJxQXmRB6zf9Jx68teUAr9v5qxMS6VfSm3k+peUoHI/EJ6h8BBlj+cSYLAl4JZB/ZoqkL7vLrT4G8KpDFCCCAAAIIIIAAAggg4LVA/fgmuq77g2qQ1MLrvcG+YeGu7/TOiseNtBnmCtfF7W9R/+YXGYlPUP8IMMDyjzNZEPBK4L0VEzVv1z8kub3ax2IEEEAAAQQQQAABBBCwp0BSdD3desJzsm5n4/pvAesFVvf/cLnKq4qN8HRrcKqu7XafkdgE9Y8AAyz/OJMFAY8FNh5cpumLxqm8qsTjPSxEAAEEEEAAAQQQQAAB+wqEh0Xoso63K6vJQEku+xYa4MpeXXS/Vu6faaSKenENNX7A2woPCzcSn6DmBRhgmTcmAwIeCxSU5el568HthTs93sNCBBBAAAEEEEAAAQQQsLfApR1uVd+m58kaZHH9scCs7Z/po9XPGSFyucJ0c+9n1bre8UbiE9S8AAMs88ZkQMBjgbk7vtTf1jyvyuoKj/ewEAEEEEAAAQQQQAABBOwpEO6K0CktLtd57W6wZ4E2q8p6FvBL8+9UYXm+kcr6NBqoq46/y0hsgpoXYIBl3pgMCHgkUFldqYmzhmlPwVaP1rMIAQQQQAABBBBAAAEE7C3QLq23ru12v2Ij4+1dqE2qs+5IsV5mtfvIJiMVxUYk6L5T/kcJUclG4hPUrAADLLO+REfAI4Fqd5U+XztdP237wKP1LEIAAQQQQAABBBBAAAF7C9SLb6D7Brwj69Y1Ls8Eqt3Venf5U1qY/Y1nG7xc5ZJLI3pPVJu07l7uZLkdBBhg2eEUqCHkBbbmrtaL8+9QZXV5yFsAgAACCCCAAAIIIICA0wXqxTXQsJ6PKyOxmdNb8Xv9i3b/oBnLHzWW95zW1+mM1oNlDbO4nCXAAMtZ50W1QShgDa3eXPqIVu6bFYTd0RICCCCAAAIIIIAAAqElEBEWpRt7TuBbPjU89rySA3ropytl3aVi4uqY3ldDuj2gyPAoE+GJaVCAAZZBXEIj4InAhpylen3p/SqpKPRkOWsQQAABBBBAAAEEEEDApgLWs5WsNw52a3iKTSt0RllTF9yjdTnzjRRbL66RRp84TXGRCUbiE9ScAAMsc7ZERuCYAuVVpXp61nDtL9x+zLUsQAABBBBAAAEEEEAAAXsLXNx+pAa0uFji9rRaHdTsHV/ow1XP1CrGH292aWSfZ9SqXjdD8QlrSoABlilZ4iJwDAHrK7E/bH5fX254BSsEEEAAAQQQQAABBBBwsIB12+BZra/RGZlXO7gL+5R+oGiXJs2+WUUVR4wU1b/ZJbq040gjsQlqToABljlbIiPwpwLWvd0vzR+tA0U7kUIAAQQQQAABBBBAAAHHCrh0assrdX7bG+Ry8WBwXxxjcUWBpi28R9vz1vgi3H/FSIqppwdPeVfW4JHLOQIMsJxzVlQaZAKfrpmqn7d9EGRd0Q4CCCCAAAIIIIAAAqElcPxx/XVd94dDq2nD3Va5q/Thqkmat/NLY5luPeEFtUztZCw+gX0vwADL96ZEROCYAltyV2nagrtVVlV8zLUsQAABBBBAAAEEEEAAAXsKZDU+V1d0vkMuV5g9C3RwVYt2/6AZyx811sH5bYfrtMwrjMUnsO8FGGD53pSICPypQGlFkd5Y+rDW5SxACgEEEEAAAQQQQAABBBwqkFn3eF3f41HeZmfo/HKKduuxX66R9exgE1e7tN4a2uMhRYXHmAhPTAMCDLAMoBISgT8TWJz9g95fOVHWGwi5EEAAAQQQQAABBBBAwHkCHeqfoKuPv0sJUXWcV7xDKq52V+uFubdrS94KIxWnJzTVzb0nqk5smpH4BPW9AAMs35sSEYE/FKisLtfzc2/Tjvy1KCGAAAIIIIAAAggggIADBRoktdSNPScoJba+A6t3Vsmzt3+uD1c/a6ToyPBojerznJqmtDMSn6C+F2CA5XtTIiLwhwJfb3xLX298AyEEEEAAAQQQQAABBBBwoEB6fBMN7jpeTeq0cWD1zis5vyRHj/86RKWVhUaKP7PVNTqnzRAjsQnqewEGWL43JSICvyuQfWSLXpx/h4rKDyOEAAIIIIAAAggggAACDhNIiUnXyKxJqhffwGGVO7fcqupKvTDvDm3NW2mkiSbJbTX6xGlGYhPU9wIMsHxvSkQEflfgo9WTNXvHZ3K7qxFCAAEEEEAAAQQQQAABBwlYw6tBx49Tq3pdHFS180t1u936ZO1L+nXb34w1M/akN3VcYjNj8QnsOwEGWL6zJBICfyiwI3+9np87UpXVFSghgAACCCCAAAIIIICAgwTqxNQ/+s2rtPiGDqo6eEpduudnzVj2mKrclUaauqT9KJ3U4mIjsQnqWwEGWL71JBoC/yVQUlGolxeO1da8VegggAACCCCAAAIIIICAgwSstwz+tet9apvW3UFVB1ep+wp2aOLsG429xb1Tel9d1/0hhYdFBBdcEHbDACsID5WW7CUwf+fXen/V07JeA8uFAAIIIIAAAggggAACzhBIjE7VyD6TlJHY1BkFB2mVVe4qPT9nlLbnrzHSYf34xhrR+2mlxmUYiU9Q3wkwwPKdJZEQ+C+BovIjmrJgjHYd3oAOAggggAACCCCAAAIIOETgf795da/apvVwSMXBXebPWz/Sp2tfMtJkTES8hvV8XJl1eb6ZEWAfBmWA5UNMQiHwnwLfbHhbX29+kwe389FAAAEEEEAAAQQQQMAhAnGRSUcHGi1SOzqk4uAvM68kR4/+MkgVVWUGmnXpvLbX6/TMqw3EJqQvBRhg+VKTWAj8RsB6cPszs4djggACCCCAAAIIIIAAAg4RsIZXQ3s8rFZ1j3dIxaFT5qQ5I7XN0HOF29brpRF9ngodTId2ygDLoQdH2fYWKK8q04crn9XC7G/tXSjVIYAAAggggAACCCCAwFEB65lXg7rco3b1eyFiQ4FP107Vz1s/MFKZdRvhvQNmKCkm1Uh8gvpGgAGWbxyJgsC/CWzPW3v02VellUXIIIAAAggggAACCCCAgM0FkqLr6uY+z+i4xGY2rzR0y1u9f57eWPqgodsIpau7jFXvxmeGLrADOmeA5YBDokRnCRSXF2jawnuMvSXDWRpUiwACCCCAAAIIIICAvQUyEprpsk53KLNuZ3sXGuLV7SvYoRfn36EjZYeMSHRKP1FDezykMFeYkfgErb0AA6zaGxIBgX8T+HXbJ/p4zWRUEEAAAQQQQAABBBBAwOYCDRNbalivCUqJrW/zSimvqrpSk+fdpm15q41g1Impr9v7vqSU2DQj8QlaewEGWLU3JAIC/xI4VLzv6K2DOUW7UEEAAQQQQAABBBBAAAEbC7RI7aQrOo9WRkJTG1dJab8V+GHze/p8/ctGUKznYN3Q4zG1qscD/I0A+yAoAywfIBICgX8K/GPD6/p+8/+o2l0FCgIIIIAAAggggAACCNhUoFNGP13V+S7FRyXZtELK+j2BvUd2aMLMa4zguOTSeW2H6bTMK43EJ2jtBRhg1d6QCAgcFcg+vFkvzL9dxRUFiCCAAAIIIIAAAggggIBNBdqm9dS1Xe9XXFSiTSukrD8TmDj7Ju3MX2cEqUtGfw3t8bCR2AStvQADrNobEgEBlVQU6tXF92nToWVoIIAAAggggAACCCCAgE0F+jW9QBe2H6Go8GibVkhZxxL4fN10/bDl3WMtq9HvJ8ek6eFTP5CLB7nXyM/0JgZYpoWJHxICq/fN1VvLH1VZZXFI9EuTCCCAAAIIIIAAAgg4S8CljulZuqHHowwnnHVw/1Xthpylmr54rCqqyox0cnPvZ9QmrbuR2AStnQADrNr5sRsBVbur9cK827UldwUaCCCAAAIIIIAAAgggYDOBMFeYTm5xmS5oN9xmlVFOTQRyirI1dcEYHSzeU5Ptx9zTr8kFuqzz7cdcxwL/CzDA8r85GYNIwC23ft7ykT5bNyWIuqIVBBBAAAEEEEAAAQSCQ8C6FaxP44G6svPo4GiILlReVaopC+7S1tyVRjQSourowVPeV1REjJH4BK25AAOsmtuxEwHtLdimF+fdoYLyPDQQQAABBBBAAAEEEEDARgJR4bE6teUVOru1mbfW2ajVkCvl+83v6ov10430HREWqVFZk9UspZ2R+AStuQADrJrbsTPEBdxutz5cNUlzdn4e4hK0jwACCCCAAAIIIICA/QQuaDtcp7S8XC6Xy37FUVGtBHbkr9czs83cEmrdcnp5p9HKajKwVjWy2fcCDLB8b0rEEBHYW7BdL82/Q0fKckOkY9pEAAEEEEAAAQQQQMD+AonRKTq71RD1a3a+/YulwhoJVLurNOHX67S/cEeN9h9rk3Xb6RWd71SYK/xYS/l9PwowwPIjNqmCR6CyukIvzR/Ng9uD50jpBAEEEEAAAQQQQCAIBMJdEbq2+4PqnNFXLvHNqyA40j9s4ZO1U/XL1g+MtNi0TjuNynpekeFRRuITtGYCDBQlDh4AACAASURBVLBq5sauEBawbh2cv+trvbfyqRBWoHUEEEAAAQQQQAABBOwlUDeugQYdP1YtUzvZqzCqMSKw7sBCTV80TlXuSp/Hj4mI1/gBbyk5pp7PYxOw5gIMsGpux84QFSiuKNC0BXdre/7aEBWgbQQQQAABBBBAAAEE7CWQGJ2qm3s/rQZJLe1VGNUYE8gt2a8X5t6mQyV7jeSwnoPVt+m5RmITtGYCDLBq5sauEBb4ccsH+vu6qSEsQOsIIIAAAggggAACCNhDwLpNsH5CY40f8LY9CqIKvwmUVBTp1cXjtenQciM529btqRFZTxuJTdCaCTDAqpkbu0JUYM+RrXpx/p0qLM8LUQHaRgABBBBAAAEEEEDAPgJt03pqUJd7lBRT1z5FUYlfBNzuan1qPQdr20dG8kWERenBU99XUnSqkfgE9V6AAZb3ZuwIUYHK6nK9t/IZLdr9bYgK0DYCCCCAAAIIIIAAAvYQsN4O1yVjgIZ0v88eBVFFQASW752p15fcbyz39T0eO/pCAC57CDDAssc5UIUDBDYcXKo3lzyoooojDqiWEhFAAAEEEEAAAQQQCE4B67bBc9per5OaXaLoiJjgbJKuPBKwnoP14I+Xe7S2JotOa3mVzm93g8QbLWvC5/M9DLB8TkrAYBWYOv8urTu4MFjboy8EEEAAAQQQQAABBGwvEBkerVv6TFKzlHayBllcCEyaPUrb8lcagWib1ktDuz+k6IhYI/EJ6p0AAyzvvFgdogJztn+hD1Y/E6Ld0zYCCCCAAAIIIIAAAoEXSI3N0FVd7lLret0CXwwV2Ebgl60f65O1Lxipp25cA916wmTVialnJD5BvRNggOWdF6tDUOBQ8V5NXXCXDhTtCsHuaRkBBBBAAAEEEEAAgcALNEluqxt7TVBidErgi6ECWwlY/1575OdBqnZX+bwulytMt2W9oOapHXwem4DeCzDA8t6MHSEm8O3GGfp605tG/oMYYpS0iwACCCCAAAIIIICAVwLWw9rbpvXQZR1vV2pchld7WRwaAmWVJZo05xbtKdhipOHTWw7See2uNxKboN4JMMDyzovVISawr3Cnnptzs4orCkKsc9pFAAEEEEAAAQQQQCCwAhFhkRrQ/DKd3uoqxUbEB7YYsttWoKq6Uu8sn6Ale340UmNGQjONG/CmkdgE9U6AAZZ3XqwOIYGKqjK9vexxrdj3awh1TasIIIAAAggggAACCAReID4qWWdkDtaA5hfLuo2LC4E/E/hxywf6+7ppktxGoO4d8I7qJzQyEpugngswwPLcipUhJrB6/zy9ufRBlVeVhVjntIsAAggggAACCCCAQOAE0hIa6y8dbj166yAXAp4IbDq4TC8tuFPV7mpPlnu95i8db9eJzS7weh8bfCvAAMu3nkQLEoEqd5WmLbhbGw4uDpKOaAMBBBBAAAEEEEAAAXsLhLnC1CCxpW7o8ahS4tLtXSzV2UqgqPyI7v/xL7LuojFxHZ8xQEO6PyCXy2UiPDE9FGCA5SEUy0JLYO6OL/Xh6udU7a4MrcbpFgEEEEAAAQQQQACBAAn0bXK+zmt3g+IiEwNUAWmdLDB1wT1alzPfSAsNkzJ1U++nlBSdaiQ+QT0TYIDlmROrQkjgQNFuPfrzYGP3T4cQJa0igAACCCCAAAIIIHBMAetNg+e3G6FTWlxyzLUsQOCPBJZk/6y3lj1kBCg+Mlk395moRsmtjMQnqGcCDLA8c2JViAhYtw5+ue4V/bj1/RDpmDYRQAABBBBAAAEEEAicQEpMui7ueIs6Z/STS9yeFbiTcH7m0ooi3fvDpSqvKjHSzF+7jlePhqcbiU1QzwQYYHnmxKoQEThUvFeT5tyiI2WHQqRj2kQAAQQQQAABBBBAIDACDRIzNeqEZxUbmcjwKjBHEHRZJ80ZpW15K4301bPhmRrcdayR2AT1TIABlmdOrAoBgfKqUr255BGtPjAnBLqlRQQQQAABBBBAAAEEAiMQHhahTukn6sJ2w5XKw9oDcwhBmvXTtVP089YPjXSXFFNPD536vsJdEUbiE/TYAgywjm3EihARWJL9k95e9qjcMvPq1RBhpE0EEEAAAQQQQAABBP5QICo8Vhe0u1G9Gp2p6IhYpBDwqcCi3d/p3ZVPqarazMu4Rvd7WU3qtPFpzQTzXIABludWrAxigcLyfE1beI925q8P4i5pDQEEEEAAAQQQQACBwAmkxKbrvLbD1KPhqYErgsxBLbAjf4OmLhit4ooCI30ObD1UZ7W2XvjFFQgBBliBUCen7QRmbv+7Plv7oiqrK2xXGwUhgAACCCCAAAIIIOB0gVb1uuni9iPUMCnT6a1Qv40FSiuL9PivQ5RfcsBIlS1SOunWE56XyxVmJD5B/1yAARafkJAXyC3er2fmjFABD24P+c8CAAgggAACCCCAAAK+FYgIi1LH+lka1HWcosKjfRucaAj8jsCbSx/R0j0/GrFJjcvQrVmTlRJb30h8gjLA4jOAwB8KlFeV6f2VE7U4+3uUEEAAAQQQQAABBBBAwIcCkeHROq/NDerf/CKFucJ9GJlQCPyxwNI9P+vNpQ8ZIYqNTNANPR5TZt0uRuITlAEWnwEE/lBgR946vbxorKxnYHEhgAACCCCAAAIIIICAbwTqxKTpxl5PqmFSC98EJAoCHgpUVJVp9NdnyS23hzu8W3ZV57vUp8lA7zax2icC3ELoE0aCOFHA+g/aa4vv18p9s5xYPjUjgAACCCCAAAIIIGBLgfb1++jCdsOVkdjMlvVRVPALPDdnpLbmrTLSaFaT83Rl5zuNxCbonwswwOITErICi3Z/r3dWTJDbXR2yBjSOAAIIIIAAAggggICvBMJdETqlxRU6u801igiL9FVY4iDgtcAX61/V95vf8XqfJxuOS2ihsQNe92Qpa3wswADLx6CEc4ZAbsl+TZk/RgeKdjqjYKpEAAEEEEAAAQQQQMC2Ai5lJDTVGZmD1LXBAIWHRdi2UgoLDYFV++bo9SUPqMpdaaThx8/4TAlRdYzEJugfCzDA4tMRkgJfb3xL3256S9V8+yokz5+mEUAAAQQQQAABBHwn0Cn9RF3UYYTqxR3nu6BEQqAWAnuObNXUhXfpcOnBWkT5462XdRqtfk3PNRKboAyw+Awg8C+BI6WHNGnOSB0q2YMKAggggAACCCCAAAII1FAgMTpVJza5UGe2HiyXy1XDKGxDwPcCxRWFemHerco+ssX3wSW1rtdDt/SZaCQ2QRlg8RlA4KhAdXWV3lr2qJbt/RkRBBBAAAEEEEAAAQQQqKFARkJzXdH5TjVPaS+XK6yGUdiGgDmBt5c9rsXZ3xlJEB+VpHsHvCPrVy7/CXALof+syWQDgdX75+m1xfeqyl1lg2ooAQEEEEAAAQQQQAABZwlEhker63Ena9Dx9zircKoNOYFFu3/QjOWPGuk7KjxGN/V6Wi3rdjISn6C/L8AAi09GyAhUVlfo1UX3aW3O/JDpmUYRQAABBBBAAAEEEPCVQGrscbq4w81qm9ZTUeHRvgpLHASMCBSW5Wnc9xcZiR3mCtOlHW9Tv6bnG4lPUAZYfAZCXGBx9o96e9kjIa5A+wgggAACCCCAAAIIeCdg/WO9UVJrXdvtftWLb+DdZlYjEECBp2fepF1H1hmpoF/TC/SXTrfJJZ7/ZgT4d4LyDSx/SZMnoAKHivfphXm3K7dkb0DrIDkCCCCAAAIIIIAAAk4SiItK0snNL9OA5pcoOiLWSaVTKwL6x4Y3jr593sTVPKWjbj3heYW5wk2EJyYDLD4DoShQ7a7WF+tf0Y9b3gvF9ukZAQQQQAABBBBAAIEaCSRF19XwXk+qYXJLvmVSI0E2BVpga+4qPTd3pJEyrOfBPXXmPxQeFmEkPkH/W4BvYPGpCHoB69Wp0xeOU17p/qDvlQYRQAABBBBAAAEEEKitgPUP8l4Nz9IF7W5UXFRibcOxH4GACeQUZevF+Xcqr2SfkRpu7DFBHTKyjMQmKAMsPgMhKPD20se1eI+Z16eGICctI4AAAggggAACCASxQGJ0XQ0+fpxapnZSZHhUEHdKa6EgUFJRqOmLxmtL7goj7fZscKYGdxtrJDZBGWDxGQgxgRV7Z+m1JfeFWNe0iwACCCCAAAIIIICAdwLhYZHKTO2si9qPUIOklt5tZjUCNhZ4d8XTmr/rH0YqjIlI0ONnfKqIsEgj8Qn67wLcQsgnImgFCsry9Nri+7U1b1XQ9khjCCCAAAIIIIAAAgjUViAqPFbntblevZucpZiI+NqGYz8CthJYuPt7vbP8MWM1jTnxFTVObmUsPoH/vwADLD4NQSswf+dX+nD1JFVWVwRtjzSGAAIIIIAAAggggEBNBay3p6UnNNFlnW5Xy9TONQ3DPgRsLXCweK8e/ulKYzVe0Wm0Tmh6rrH4BGaAxWcgyAVyS/br+bkjlVdyIMg7pT0EEEAAAQQQQAABBLwXsB7UPqD5X3RSs4tVJzbN+wDsQMAxAm49/NMgHSzONlJx36bn6y8db1OYK8xIfIIywOIzEMQC1e5qfbz6Bc3a8WkQd0lrCCCAAAIIIIAAAgh4L+CSS/XjG+uKzqPVsi7fuvJekB1OFPh07RT9vPVDI6W3qttVw3o+puiIOCPxCcoAi89AEAtsy1uj6YvGqaj8cBB3SWsIIIAAAggggAACCHgnEBeZqBOanq9+Tc5Xaly6d5tZjYCDBTYfWq7J824z0kFydD2N6T9dSdGpRuITlAEWn4EgFnhzycNauvenIO6Q1hBAAAEEEEAAAQQQ8E4gPjJZw3pNUPOU9t5tZDUCQSBgveDriZlDVVCWa6SbW094US1TOxqJTVAGWHwGglRg5b65emvpg6qoLg/SDmkLAQQQQAABBBBAAAHPBWIjE5TV+Fyd0WqQ4iITPN/ISgSCSKC0slgvLxyrLbkrjHR1RuZfdW7b64zEJigDLD4DQSiQX3JQz8wersNlB4OwO1pCAAEEEEAAAQQQQMA7gYyE5rqu+wNKS2ikcFeEd5tZjUAQCVjPSf5g1TOat/MfRrpqnNxWY06cZiQ2QRlg8RkIMgG33Pp569/0+bppqnZXBVl3tIMAAggggAACCCCAgOcC1u2CfRqfrVMzr1BCVB3PN7ISgSAWmLn9M/1t9XPGOnzizC9kPWeOy5yAy+12u82FJzIC/hEoqSjUxNnDlVO02z8JyYIAAggggAACCCCAgA0FWqR00oXtb1KTOm0V5gqzYYWUhEBgBKyXfU2ac7Ox5Df1ekrt6vcyFp/AEgMsPgWOF6iqrtCHq57XvF1fOr4XGkAAAQQQQAABBBBAoCYCyTFp6tN4oAa2vkYuBlc1IWRPkAuUVZZo7HcXqNLQ85LPajVEA9tcE+SKgW2PAVZg/cnuA4H1BxZr2qK7uXXQB5aEQAABBBBAAAEEEHCWQJgrXF0yTtKZrQfruIRmcrlczmqAahHwo8DLC8dpzYG5RjJ2Su+n67o/qPAwnjdnBFh8A8uUK3H9JFBWVaLXFt+v9TmL/JSRNAgggAACCCCAAAIIBF7ApTAlx9TVeW1vVM9GpwW+ICpAwAECi7N/0NvLHjVSaePkNhre6wklRqcYiU9QBlh8BhwusHLfLM1Y9risQRYXAggggAACCCCAAAKhIBAVHqMTmpynE5tdqLT4hqHQMj0i4BOB4vIC3fvDJUZuI0yKrqtb+jyrjMSmPqmVIP8twC2EfCocK1BSUaAnZw5Tbslex/ZA4QgggAACCCCAAAIIeCrgkkupccdpSLf7jz6knQsBBLwTsN5h99SsYco+ssm7jR6utgZYret183A1y7wVYIDlrRjrbSFQVV2pLze8ph+3vGeLeigCAQQQQAABBBBAAAGTAonRqTqhybk6ucVfFBeZaDIVsREIWgG33Hp3+VNasPtrIz2e1epaDWxzrZHYBOUWQj4DDhXIKcrWS/PvVG7JPod2QNkIIIAAAggggAACCHgm0CH9BF3e6XZZtyiF8YZBz9BYhcAfCPy89SN9tnaKrGGWr6/M1K4adcIkX4cl3v8J8A0sPgqOFHhv5UTN2/mlI2unaAQQQAABBBBAAAEEjiVg3S5o3SbYv+kl6tZwAG82OxYYv4+AhwLrcxbr1cXjVV5V5uEOz5dFhsdowumfKSoixvNNrPRYgAGWx1QstIvAugML9erie1VRXW6XkqgDAQQQQAABBBBAAAGfCcRHJWtg6yHq2mCAEqLq+CwugRBAQMorOaAnZ16v4oojRjhu6TNJret1NRI71IMywAr1T4DD+i8sP6xXF43X1rzVDqucchFAAAEEEEAAAQQQ+HOB2MhEta7bTee3u1Fp8Q3gQgABQwJP/DpUewq2GInOc7CMsB4NygDLnC2RDQjM2fGFPl4zWZXVFQaiExIBBBBAAAEEEEAAgcAItEztojNbDVbL1M6KDI8KTBFkRSBEBL7e8Ja+3vSGkW5b1e2qm/s8w/PqDOgywDKASkgzAmWVJXpuzi3KNjQpN1M1URFAAAEEEEAAAQQQ+GOBlNh0ndriCvVvfhFMCCDgJ4HsI5uP3kZo4qqf0ESj+kxSUkxdE+FDOiYDrJA+fuc073ZX69O10/TLtg+dUzSVIoAAAggggAACCCDwBwLxkcnq3eRsZTUeqPrxjeVyubBCAAE/CVj/vhz3/UUqKj/s84zWc+uG93pSTeq08XnsUA/IACvUPwEO6X9b3lpNXTBGpZVFDqmYMhFAAAEEEEAAAQQQ+G+BcFeEGia30uDjxyo9oQlECCAQIIEpC+7W/2PvPuCrqNI+jv9vSe+VhARCh9BrAEXAht21rrq69l0FFRtFLFjXjhUQVOy9rW1dRUVEWujSe+8JnfRy388E311lgbSZZO6d33w+78d3l3Oe8zzfM4vwZObM8pxs01d3uzy6ttuD6pjSx/TYTg9IA8vpd4Cf1P/2/Mc0Z8tE+eTzk4xJEwEEEEAAAQQQQACBPwo0jeugvk3OU7e0k6FBAIF6Fvh6+QRNXP22JVmc1vIqndX6GktiOzkoDSwn776f1L5y1wKNnXmHyn3lfpIxaSKAAAIIIIAAAggg8F+BUG+Ezsm8Qb0bnSGvOwgaBBCwgcD8rZP15vyHVe4rMz2bzKQsDez5pOlxnR6QBpbT7wCb13+waK9Gz7zTsk+c2rx80kMAAQQQQAABBBDwY4GokDh1ST2p4oD25Ih0P66E1BEIPIH1e5Zq/OwRlpyDFREcrUdO/ac8Lk/gwdVjRTSw6hGfpY8tYLwuOHndp/rnktFQIYAAAggggAACCCDgVwJtk3rr3My/KSUqQ8aZOFwIIGAvgb2FuXph+mDl5m+1JLE7+4xXBge5m2pLA8tUToKZKbC3IEdjs4dp+8F1ZoYlFgIIIIAAAggggAAClgh43cFKjWqq/k0vUre0k2hcWaJMUATMETBeHXxh+q1au2exOQEPi3J2q+s1oNUVlsR2alAaWE7deT+o+59Lxmryuo85uN0P9ooUEUAAAQQQQAABpwvEhTXQ2a2vV2ZyliKDY5zOQf0I+IXAV8te0fdr3rUk16Zx7XT78WMsie3UoDSwnLrzNq971a5f9eKMW22eJekhgAACCCCAAAIIOF0gJjRRPdIG6MzW13BAu9NvBur3O4HlO2dr7KyhluQdHRKv4X0nyDgLj8scARpY5jgSxUSBwtJ8vbvgcf26fYqJUQmFAAIIIIAAAggggIB5AmHeSPVqdIayGp2u1KgmvC5oHi2REKgzgaLSfN018U8qKy8xfU3j66PGlwiNJ7G4zBGggWWOI1FMFFi2c5YmzL1fxWUFJkYlFAIIIIAAAggggAACtRcIcgeraXwHXdz+VjWIbFz7gERAAIF6FRg19SZt2LvE9Bw8bq8u7zRc3dNONT22UwPSwHLqztu07oNFezV65h3aemCtTTMkLQQQQAABBBBAAAEnChgHtGcmZem4jLPVJrG7jL+cciGAgP8LfL50nCat/cCSQk5vdZXObHWNJbGdGJQGlhN33cY1f7fybf1r5QQbZ0hqCCCAAAIIIIAAAk4TiAyO1eWdRygzqYfcLrfTyqdeBAJaYOH2X/TqnPssqbFzSn9d2/0BS2I7MSgNLCfuuk1r3nFwo17KHqrdBTtsmiFpIYAAAggggAACCDhFwHjCqklsW3VLO0U90k5RiDfcKaVTJwKOEti8b7XGzLxTeSX7TK+7QWSG7un/pulxnRqQBpZTd96GdX+6eLSmbPhUPp/PhtmREgIIIIAAAggggIBTBIy/dJ6fOUjNEtpXNK5ccjmldOpEwHECewty9NKsYdp2YJ3ptRtPbD5x+jcK8YSaHtuJAWlgOXHXbVjz2t2LK56+KuLgdhvuDikhgAACCCCAAAKBL+B1B6lxTBv1SB+gno1Ol/GfuRBAIPAFSsqK9fLsEVqRO9eSYq/v/g91TDnekthOC0oDy2k7bsN684r3a2z2UG3at8KG2ZESAggggAACCCCAQKALZMS21TltrldadHNFBMcEernUhwAChwl8tmSMJq/72BKX4xqdrUs7DbEkttOC0sBy2o7bsN45W37U+wufVElZkQ2zIyUEEEAAAQQQQACBQBQIcgcrNbq5jm98jno1Ol0uDmcPxG2mJgSqJDB/62S9Ps+aw9Zjw5L14Ekf8HtMlXbi2INoYJmASIiaC5SUl+i5aTfz9FXNCZmJAAIIIIAAAgggUA0Bj8urFgmddWKzi5URm6mI4OhqzGYoAggEosCegh26/8dLLCnNaI4/cNIHigtLtiS+k4LSwHLSbtusVp+vXN+sfFPfreKrDDbbGtJBAAEEEEAAAQQCTiDYE6qUyCY6q/V1ykzuEXD1URACCNRO4MEfL9Ougm21C3KE2cZHIG7MekqZyd1Nj+20gDSwnLbjNqp3494VGj3zDhWW5tkoK1JBAAEEEEAAAQQQCCQB4yuCHRv0Ude0k9QqoauCPMGBVB61IICASQIf/DpK0zd9ZVK0P4a5oO3N6t/sIktiOykoDSwn7baNai3zlemdBY9p7pYfbJQVqSCAAAIIIIAAAggEioDx1EPz+M66vPMwJYSnBkpZ1IEAAhYJzN06SW/Oe8iS6MdnnKuL298mN2ft1cqXBlat+JhcU4H1e5Zq/KwRyivZV9MQzEMAAQQQQAABBBBA4H8EokMS1TGlj7qnnaJm8e0RQgABBKoksOPgJj0x5TqVlhdXaXx1BrVO7KG/93hEQZ6Q6kxj7GECNLC4JepcoLisUM9Mu0Vb96+q87VZEAEEEEAAAQQQQCAwBYyvCvZufK5OaX6JokMTeNIhMLeZqhCwTGB/0W49P32wcvI2m75GYlhDDe37ssKCIk2P7aSANLCctNs2qLXcV64p6z7TZ0tH2yAbUkAAAQQQQAABBBDwZwHji4INIhurQ4PjdVzGOXzly583k9wRqGeBwtJ8vTrnPq3MnWt6Jm6XR/f2f1uJEQ1Nj+2kgDSwnLTbNqj1QNEejZk5RFsPrLFBNqSAAAIIIIAAAggg4K8CyZGNdWara9Q8vqNiQhP8tQzyRgABmwj4fOV6b+GTyt70rSUZXd7pbvVsNMCS2E4JSgPLKTttkzr/tfw1fbf6LZtkQxoIIIAAAggggAAC/iQQ6o1QSmSG+jY5X93STpHL5fKn9MkVAQRsLvDjmg/1xbKXLMmyW9oAXdXlbktiOyUoDSyn7LQN6ly/Z7leyh6igtKDNsiGFBBAAAEEEEAAAQT8RSDIHaIuqf2VlX6aMuLaKMQb7i+pkycCCPiRwLKc2Xope6glGUcEx+ixAV9YEtspQWlgOWWn67nO4rICvTXvH1q4Y2o9Z8LyCCCAAAIIIIAAAv4gYJwZEx4UrdaJXSteFUyKTPeHtMkRAQT8WGBvQa5G/niRZRWMPPE9zsGqhS4NrFrgMbXqAgu3T9U7Cx6VcTAeFwIIIIAAAggggAACRxPwuDxqHJupzqn9lJmUpZSoDLAQQACBOhLwaeQPl2pv4Q5L1ruu20PqlNrXkthOCEoDywm7XM81Gl8efHH67Vqz59d6zoTlEUAAAQQQQAABBOwp4JLH7VGj6NY6v+0gNYlvK5c438qee0VWCAS2wAe/jtL0TV9ZUuSAln/V2a2vsyS2E4LSwHLCLtdjjT75NGnNR5YdhFePpbE0AggggAACCCCAQC0FjNcEU6OaKTOphzqk9FHTuLa1jMh0BBBAoHYCC7ZN0WtzR9YuyFFmd0w5Qdd0vV8et9eS+IEelAZWoO9wPde348BGjc0eoj2FO+s5E5ZHAAEEEEAAAQQQsJNAWlRLnd3merVM7KwgdzBfFLTT5pALAg4WKCjN013fni3jYQyzr4zYTN2Q9bgig2PMDu2IeDSwHLHN9VfkF0vHa9K6D+XzlddfEqyMAAIIIIAAAgggYAuBlMgmahbfQZ1T+qlFYid53UG2yIskEEAAgf8XKCkr1hNTrtfOvI2mo8SEJunW3s9zkHsNZWlg1RCOaZULbN63Ss9NHyzjC4RcCCCAAAIIIIAAAs4UcLncahHXWSc2u1iNY1srMiRWbpfbmRhUjQACthcoKy/VhDkjtXjndNNzNX4/vP240WrC69I1sqWBVSM2JlUmUFRaoFfnjNSK3NmVDeXXEUAAAQQQQAABBAJMwOsOVlJEmprHddLxTc5RWnTzAKuQchBAIFAFfD6fPl/2kn5a+5ElJV7c/nad0ORPlsQO9KA0sAJ9h+upvrlbJumdXx9TWXlJPWXAsggggAACCCCAAAJ1LRDkDlGHBserZ6PTlRrVVDGhCTKeOOBCAAEE/Elg2oav9PHiZ1VuwVE4PdPP0OWdh/sTh21ypYFlm60InESKSgsrDm5ft2dx4BRFJQgggAACCCCAAAJHFAjxhCk6NEHG17VObX6ZwoOjkUIAAQT8WmBl7nyNmzVMpRY8kNEgoonuOfENv/apr+RpYNWXfACv+8PqD/X1ivGWdKsDmI3SfWhTZAAAIABJREFUEEAAAQQQQAABvxFwyaW4sBR1TTtRLeM7V5znEhYU6Tf5kygCCCBwLIE9BTv16OSrVGTBec5ul0ePDvhC4fyeWe2bkAZWtcmYcCyBLfvX6Ikp14GEAAIIIIAAAgggEGACLpdLxiuCKVFNNKD55eqQcjyvBwbYHlMOAgj8V2DkD3/W3sKdlpAM7v28WiR0siR2IAelgRXIu1vHtRmPV362ZLSmbviijldmOQQQQAABBBBAAAGrBLzuEDWP76C2yVlqHt9J6TEtZDxBwIUAAggEssAHv47S9E1fWVLi+Zk368TmF1kSO5CD0sAK5N2t49q27l+rF2bcpvyS/XW8MsshgAACCCCAAAIImC1gfEnwuEbn6OzMaxXkCZWHppXZxMRDAAEbC8zfNkWvzx1pSYbd0wboyi53WxI7kIPSwArk3a3D2gpL8vTynHu0eteCOlyVpRBAAAEEEEAAAQTMEvC4vWoQ0VhN4zuoZXwntU85TsGeULPCEwcBBBDwK4EDRXt17/cXyKdy0/NuEtdON/d6RsGeENNjB3JAGliBvLt1WNv0DV/rg0WjJPnqcFWWQgABBBBAAAEEEKitQGhQpDo36Ku+Tc9XXFiywoOiONuqtqjMRwCBgBC4/8dLtadgu+m1NIhsrEE9n674PZer6gI0sKpuxcijCOwtzNVL2cO07cBajBBAAAEEEEAAAQRsLuB1B1V8QbBRTEu1TeqlTql9FOINt3nWpIcAAgjUvcBL2cO1LCfb9IWjguM0sOeTSo9paXrsQA5IAyuQd7eOavt+1Xv6ZuVrKvOV1tGKLIMAAggggAACCCBQXYHI4Di1S+6t7mknKzEiTXFhSRzGXl1ExiOAgKMEPlsyRpPXfWx6zR6XVzdkPaY2ST1Mjx3IAWlgBfLu1kFtOw5s0LPTb1Z+yYE6WI0lEEAAAQQQQAABBKoi4JKr4vyqmNBENYxuoe4NT1bbBlkyDmbnQgABBBComsC0DV/po0XPyGfBUTkXthusfk0vqFoijKoQoIHFjVBjgaLSfL05/x9avGNajWMwEQEEEEAAAQQQQMA8AaNB1TCymbqknaj06BZKiWqi6NB4GQ0tLgQQQACB6gks3Zmt1+ber+KywupNrMLoXo3O0l86Da3CSIb8vwANLO6FGguszJ2nCXNHqqDkYI1jMBEBBBBAAAEEEECg5gJul6fiK1axocnq0KBPxU/zjYYVFwIIIIBA7QW27F+jMTPv1MHivbUPdliERjFtNPSEcabHDeSANLACeXctrK3cV6aXsu/SitzZFq5CaAQQQAABBBBAAIHDBYyzUxLD09QisbMaRbdUw+jmSo9pIeNwdi4EEEAAAfMEjMbV01Nv1O58879EGOQJ0eMDvpTxT66qCdDAqpoTow4TmLr+C320+FlcEEAAAQQQQAABBOpIIDYsWVlpp6tf0/MVFRJrnAZSRyuzDAIIIOBcgad/uVEb9y23BGBIn3FqHNvGktiBGJQGViDuqsU17Ty4qeIxyj2FOy1eifAIIIAAAggggIAzBYyzrFKjmqhJXDulRDZR66RuSo5IdyYGVSOAAAL1KPDp4jH6eb35XyI0Srqg3WD15yD3Ku8uDawqUzHw/wU+XzpWP6392JIvMaCMAAIIIIAAAgg4VSDYHaom8e3Vp/E5ahrfvuJsq1BvuFwut1NJqBsBBBCod4F5W37SG/MftCSPLg1P1jVd77MkdiAGpYEViLtqYU278rfp+emDtbcwx8JVCI0AAggggAACCASugPFFwPCgaCVGNFRSRLqSIhqpXXJPNYppSbMqcLedyhBAwE8Fdufv0AOTLrEk++SIRhrR73V53F5L4gdaUBpYgbajFtZTWl6i8bPu5uB2C40JjQACCCCAAAKBKeByuRQflqoODU5Qt7T+CvGEKTIkThHB0TIaWlwIIIAAAvYU8Mmne7+/UAeKdpueYGxoom47boziwxuYHjsQA9LACsRdtaAm43+0xqOTb85/WJLPghUIiQACCCCAAAII+L+A2+VRqDdC0SHxig6NV0J4utolZ6ltck++Euj/20sFCCDgUIGXsodpWc4s06sPD4rS33s8pmbx7U2PHYgBaWAF4q5aUFNRaYHGzxqh1bsXWBCdkAgggAACCCCAgH8KGE9PhQVFKT2mlTqmHK+EsBSFB8coITyloonFhQACCCDg/wJfLntZP6x5z/RCvO4g/bXzPerSsL/psQMxIA2sQNxVC2r6Zf0X+njxsxZEJiQCCCCAAAIIIGB/AaNR5XEHKcQbprCgCCWEpSkzOUs90k5RVEic/QsgQwQQQACBGgvM3fKj3pz/iCVvI53b5gad0uKyGufmpIk0sJy02zWsdefBTXphxu3aX5RbwwhMQwABBBBAAAEE/E8g2BOqxPCGah7fUanRzRQZHKMGkRlKjWrif8WQMQIIIIBAjQXW7l6kcbOGq7A0v8YxjjaxZ6MzdHmn4abHDcSANLACcVdNrKmsvFSfLH5B0zZ+aWJUQiGAAAIIIIAAAvYQMJ6scrnccrvcCvGGKymisdom9lCvjNMVG5psjyTJAgEEEECgXgV2HNwo4xys3QXbTc+jWVwH3Xb8i6bHDcSANLACcVdNrGnt7sWaMPc+HSjaY2JUQiGAAAIIIIAAAnUv4HF5FRkcq4TwVKVGNVVUaLyigmNlfMa8UUwrhQdH1X1SrIgAAgggYHuBg8X7NHbmEG3ev8r0XCOD4/TogH+aHjcQA9LACsRdNbGmV2bdq0U7p5oYkVAIIIAAAggggEDdCIR4QpUc0VitErqoa/rJig9LqXjSyuP2yusOrvj/uRBAAAEEEKhMwCefxsy8Uytz51U2tEa//tApnyo2NKFGc500iQaWk3a7mrXO2jxR7yx4tJqzGI4AAggggAACCFgv4HF5FOwNU7g3quJJqrjQpIqvAcaEJKphdHO1TOjEE1XWbwMrIIAAAo4R+HzpOE1a+4El9V7b7WF1Tj3BktiBFJQGViDtpom17C3I0cuz77bkEUkT0yQUAggggAACCAS4gHE+VagnXLFhDZQS2URN4zLVJK6tgr2h8riCFOQJVojn0JcB3S5PgGtQHgIIIIBAfQnM2fyj3lrwsCXLn9T0Up3X7kZLYgdSUBpYgbSbJtYyae3H+mrZeJX5Sk2MSigEEEAAAQQQQOCQgPH6nvEa36HmU6QiQ2IV7AlTeFCU4kKTK7701yguU6mRjSFDAAEEEECg3gW27F+jJ6ZcZ0keTWLb6Y4+YyyJHUhBaWAF0m6aVEtO3mY9N+0WHSjm4HaTSAmDAAIIIICA4wSMr/sFeUIU6o1QVEhcRVMqMSJNKZEZig1LqvjyX5DRwPKGKyIoqmKMMZ4LAQQQQAABOwqUlpdoyL9PV7mvzPT0wrwRevjUTxXsCTU9diAFpIEVSLtpQi1l5aV679enNHvLdyZEIwQCCCCAAAII+LuA0Ygymk3G63mHDj8Pqmg8GX/INv6z8dRURHCMYkOTlBTeUClRTdUopqWiQ+P9vXTyRwABBBBA4A8Cj/98nbYeWGO6ivHv1eF9Jyg5spHpsQMpIA2sQNpNE2pZkTNXE+aOVGFpngnRCIEAAggggAACdhZwuTy/PQUVpjBvZEUjKjokXrGhiYoLS654tc9oXh1qWoUoxDg0PShKkca40ISK/54LAQQQQAABpwi8Pf9xzd7yrenlGj8QurHHE2qd1M302IEUkAZWIO1mLWvx+cr18ux7tWTn9FpGYjoCCCCAAAIImC9gPAslyfXbP40noyqejvr9P92H/vNvT0wZZ0xVvMIXHKeYsN+ekIpsrIbRzZQckS6322t+mkREAAEEEEAgQAV+Wvux/rnU/LOqjHMhL+kwRL0bnxmgcuaURQPLHMeAiDJ78/d679cnOLg9IHaTIhBAAAEE7CpQ0VyS8Tqep+IJJqPJZLyOZ7yKZzzhZJyDERoUofCgyIqnnbyeILn02yt8Lo+8nuDfzQlVqDesokllfIXPeGLKmMPX+Oy6++SFAAIIIODPAitz52n0zDssKeG0llfqrNbXGD+psiR+IASlgRUIu2hCDbn52yq+qFBUmm9CNEIggAACCCDgDAHjFbyKc6B++5peiNFA8h56xc44lDzGeBUvNElxESlKCktVWHDUb38sPfSHU+NpqYp/Vvy3hz9NdehJKi4EEEAAAQQQsIfAjoMb9fTUGy35e3NW+un6S6eh/BDqGFtNA8se/zuo1yyMVwe/XfW2vl35hnzy1WsuLI4AAggggIBZAkZTyHgSye32yOP67+HjxpfuKp548oYqxBOuUO+h/3O7jdfvfj/20DjjqSjj1w893RRdcU5UVHCMwoOjzEqVOAgggAACCCDgBwJ7CnbqxRm3Kzd/i+nZtkzoooE9n+R8SRpYpt9bARVwX2GuRk0dpL2FOwOqLopBAAEEEAgsAeO8pmC30XQKU0hQuMI9kQoPjq5oJkWFHnraKTbEeNqpgUI94RVP4P92OlTFk0yHzoU69CpexRf1fnt6yvj/vRVnQfHIfmDdMVSDAAIIIICAuQJ5xfs1fvYIrd+zxNzAkhLC0jSi/4SKH55xHVmAJ7AcfmeUlBXrnfmPa/72SQ6XoHwEEEAAASsFDh02fuh1O+NT0UGe4EONKG94xVlPxrlOHleQQj2hCg2KUlRwrKJDExUf1kBJEQ0rvojH63RW7hCxEUAAAQQQQKAygZLyYr0+90Et3jGtsqHV/nXjXMyHT/mk4klvLhpY3ANHEFi4baomzL2PVwe5OxBAAAEEai1gNJiMplR4UIxiQxOVGN5QKVEZSo9pUdG4cv3u4HKjiXXoNb5Dr+cZf2jjQgABBBBAAAEE7C3g00eLntfUDZ9bkuYtvZ5Vy8QulsQOhKA8gRUIu1jDGgpKDurl2Xdrze6FNYzANAQQQACBQBUwmlGHXrELqnhiKtg4N8obVtFoqmhSBccoLiRJiRHpahjdVBkxrRQSFBGoHNSFAAIIIIAAAghUCExe84k+WzbaEo2zWv9Np7W83JLYgRCUBlYg7GINa8je9J0+WvyMSsqKahiBaQgggAACgSBgNKgig2MVH5ai1OhmyohtI6/HaFyFVDSrjMPLI4yzpkLiKxpZXAgggAACCCCAgFMFluyYqfGz77Kk/HZJx+mGno9aEjsQgtLACoRdrEEN+wp36alfbtD+otwazGYKAggggIA/CBw6d+q/T1JVPD3lDVNcaIrSoppVPKLeKqlrxSt8XAgggAACCCCAAAKVC+zM26xHfrqi8oE1GGF87fix076o+AgN1/8K0MBy4F1hHDz32eLRmrbxSwdWT8kIIIBAYAoYX9Iz/tBTceh5ZLpSo5pUPEEV6o1QTEiCEiJSlRCeyllTgbn9VIUAAggggAACdSRQWl6iYd+erdJya95kMg5yN76szEUDi3tA0rb96zQme4j2F+3CAwEEEEDATwWMp6niw1LVMqGLeqSdqoz4Nr/9tK7iuSu5XPzkzk+3lrQRQAABBBBAwOYCo6YM0ob9Sy3JcnDv59UioZMlsf09KE9g+fsOVjN/n8+nt+Y/orlbf6zmTIYjgAACCNSlgNGECg0ynp5KVIOoDMWGJikyOEZJ4elqHNe64gt/XAgggAACCCCAAAJ1L/DJohc0ZcNnlix8aYehOi7jLEti+3tQGlj+voPVzH/Btp/15ryHVeYrreZMhiOAAAIIWClgvAIYHZqkjJjW6pTSV80S2snt8irIHVTx9T/joHUuBBBAAAEEEEAAgfoXmLV5ot5ZYM1h6yc3v1R/yryx/ou0YQY0sGy4KValtK8wVy/NGq6t+9dYtQRxEUAAAQQqEfC4vIoIjlGDyEaKCU1Sw6hmapPUQ+kxLbBDAAEEEEAAAQQQ8AOB7Qc26NGfr5bkMz3bLg1P1JWd75HH7TU9tr8HpIHl7ztYjfx/XPOhvl7+Ck9fVcOMoQgggIAZAkGeEKVHt1LXhv2VEZtZcbB6bFgSX/8zA5cYCCCAAAIIIIBAHQvklxzQw5MuV17JftNXNs43/VuPRyr+vMj1RwEaWA65I/KK9+vZaTdrZ95Gh1RMmQgggEDdC7hdboV4whUdmqDokLiKplX3tFPUKLZV3SfDiggggAACCCCAAAKWCBSV5uvZaYO19cBq0+MbT+ff1GuUokLiTI/t7wFpYPn7DlYh/zJfmT5YOErZm76pwmiGIIAAAghUR8D4GmCDyCZqm9xTGbGtFREUo+TIRvyhozqIjEUAAQQQQAABBPxIoKSsWBPmjNTSnJmmZx0dkqA7+oxVfFgD02P7e0AaWP6+g1XIf0XOXL08526VlBVVYTRDEEAAAQSOJnDoCaswhQVHqUlsO/VpfI5aJHYGDAEEEEAAAQQQQMBBAuW+Mr3/6yhlbzb/IRHjvNS7+k1Qg8gMB4lWrVQaWFVz8ttRPl+5Jsx9QAu3T/HbGkgcAQQQqE8B4wmruNAGategt1KjmqhhdHOlR7fgYM363BTWRgABBBBAAAEE6lng6+UTNHH125ZkcUOPxyr+7Mn1RwEaWAF+RyzaPl2vzLk7wKukPAQQQMA8AZdccrs8SghvqB5pp6hfs4s4bN08XiIhgAACCCCAAAIBITBtw1f6aNEz8lnwJcJz2wzUKS0uCQgnM4uggWWmps1i7S3M1YvTb1NO/mabZUY6CCCAgL0EQrwRSonMUPOEDkqNbKqWiV04d8BeW0Q2CCCAAAIIIICArQQW75ipV+fcrXJfuel5ZaWfris632V6XH8PSAPL33fwKPkbrw5+u+pt/Xvl6wFaIWUhgAACtRNwy62G0S3VJ+McdUztoyB3sIK9YTKewOJCAAEEEEAAAQQQQOBYAlv2rdZTU2+QcR6W2VejmNYaesJ4s8P6fTwaWH6/hUcuYOfBzRo3a5hy87cGaIWUhQACCFRPINgTqqSIdDWOaa30mFbqnNpPUSGx1QvCaAQQQAABBBBAAAEEJB0s2qv7frhIZb5S0z2MjwY9fvrX8rg8psf254A0sPx5946R+3u/Pq2Zm74O0OooCwEEEKi6QExokro1PFlZ6QMUGRKr6JD4qk9mJAIIIIAAAggggAACRxDw+Xy6+/sLlFe8xxKf+0/6QAnhKZbE9tegNLD8deeOkffSndkaN2t4AFZGSQgggEDlAsGeMMWHJatRbBt1Se2v9nzBpXI0RiCAAAIIIIAAAghUW+Cl7OFalpNd7XlVmXBzr2fUKrFrVYY6ZgwNrADb6vySA3pj7kNanjs7wCqjHAQQQODoAi6XWwlhqerS8ES1SequpIg0xYYmQYYAAggggAACCCCAgGUCXy9/TRNXv2VJ/Eva36njm5xjSWx/DUoDy1937ih5z9sySe/++rhKyosDrDLKQQABBP4o4HF5FRkco/Tolurf7CK1TuoOEQIIIIAAAggggAACdSawcNtUvTr3XkvWO6nZJTqv7UBLYvtrUBpY/rpzR8h7b2GuXpx+q3LytwRQVZSCAAII/FEg1Buhtkk91a5BLzWJbaukyDSJLwdymyCAAAIIIIAAAgjUscDu/B16YNIllqzaIaWPru/+MF/I/p0uDSxLbrW6D+qTT18ufVk/rn2/7hdnRQQQQMBiAeMLLFEhCToh43yd2vIyi1cjPAIIIIAAAggggAACVRMY8u2ZKi7Nr9rgaoxqFt9BA7OeVIg3rBqzAnsoDawA2d9N+1Zq/KwR2l+0K0AqogwEEHC6gNvlUVJ4ujo37Kdmce2VmZzldBLqRwABBBBAAAEEELCZwGM/X6ttB9aanlXDqOYa2PNJxYQmmB7bXwPSwPLXnTss73cXPKHszd9K8gVIRZSBAAJOFXDJpZSopjq7zfVqldBFwd5QHp126s1A3QgggAACCCCAgM0FxmXfpaU5M03PMj4sRYN6PqXkyEamx/bXgDSw/HXnfpf3sp2z9eqce1VSXhQA1VACAgg4UcD4imByRLpaJ3ZX59R+ah7fQcZ/x4UAAggggAACCASqwI6DG+V1ByshPCVQS3REXR8ufFbTNn5heq1h3kjd1GuUGse2Nj22vwakgeWvO/db3vuLduuF6bdqZ94mP6+E9BFAwIkCbpdbjaLbVDxtlRKVwSPSTrwJqBkBBBBAAAGHCozNHqorOo9QdEi8QwUCo+yJq97R1yteNb0Y460E4wksvrT9X1oaWKbfZnUbcNqGr/TpkhdUWl5StwuzGgIIIFBDAeNfxnFhDdQ8oaN6NTpLLRM61TAS0xBAAAEEEEAAAf8U2FeYqw8WPqsL292kxIiG/lkEWVcIZG/6Vu8vfErlvjLTRS7pcKeOzzjH9Lj+GpAGlr/unKTi0gI9PW2gth9Y78dVkDoCCDhJICGsoc5sdbUy4jKVGJEm4wksLgQQQAABBBBAwGkCY2YOUUZMG/VtdgFPYPn55i/dOUuvzR2p4rJC0ys5sdklOr/tQNPj+mtAGlh+unNGd/ezxS9pyoZP/LQC0kYAAacIGGc7JEWkKyttgE5ucalTyqZOBBBAAAEEEEDgiAJFpfl69OdrlBGTqSu73C2vJxgpPxbYtG+Vxsy8Q/klB0yvon3y8fp71j9Mj+uvAWlg+enOrd61UGOz7+TVQT/dP9JGwAkCHrdXbRKz1KvxGWoW10FRIbFOKJsaEUAAAQQQQACBYwr8um2KPlz0rLqnnaIL2t2Elp8L7C3I0dNTb5BxPrXZV1JEY9134ltmh/XbeDSw/HDrSsuL9frch7Rox1Q/zJ6UEUAgsAVcCvIEKyOmrS7qMFgNo5oGdrlUhwACCCCAAAIIVFPg6+WvaeLqt/TXTnerR6MB1ZzNcLsJGOdRP/LTFdpdsMOS1J4/6ye5XC5LYvtbUBpY/rZjkpbnzNFrcx9QYelBP8yelBFAIFAFYkISldXoNLVJ7KHmCR3kdnkCtVTqQgABBBBAAAEEaizwj8lXasfBjbqr7+tqGM0P+2oMaaOJz0+/TWt2L7Ako/tOfFdJEWmWxPa3oDSw/GzHCkvz9OSUG5Sbv9nPMiddBBAIVIEQT5h6NTpHf2r7NxmvDRpfGeRCAAEEEEAAAQQQ+F+B9XuW6ZlpA+VxB+mZMyfy56YAuUk+XPicpm383JJqbsx6Sm2Te1gS29+C0sDyox0r85Vp4qp39O+Vr/tR1qSKAAKBKGB8PTA1qpk6ppygHmmn8vnnQNxkakIAAQQQQAABkwV8Gp99t5bkzKg4J3RQrydNjk+4+hL4ed0/9emS5y1Z/uJ2t+mEpudZEtvfgtLA8qMd21OwU6Nn3qmcvE1+lDWpIoBAoAkkhafrnMy/q2VCJ0UExwRaedSDAAIIIIAAAghYIpCTt0WPTr5KZb5Snd36bxrQ8nJL1iFo3QsYx/yMzR5iycL9m1ysC9pz2L+BSwPLklvMmqCfLnlRP6/71JrgREUAAQSOIRDsCVPTuLbqnHqistJPVZAnBC8EEEAAAQQQQACBaghM2/CVPlr0jHySbj3ueTWP71iN2Qy1s8Ce/J26f9KfLUmxbXJv3Zj1mCWx/S0oDSw/2bFVuxZo/KwRKi4r8JOMSRMBBAJBwDjPqlFMG53fbqDSo1sqxBsWCGVRAwIIIIAAAgggUKcCxpfq3pz3sH7dPkURQdEa3m+CYkOT6jQHFrNOwOcr17Bvz1KRBX9fT4tuoSF9xlWcNev0iwaWH9wB+SUH9drc+7Uyd64fZEuKCCAQCALGvyATwlN1UtNL1KvxGXxRMBA2lRoQQAABBBBAoN4EDhTt1lO/3KC9hTlKj26lm3o9rYjg6HrLh4XNF3h08tXafnC96YGTItJ1+3FjFBnC0R00sEy/vcwPOHvz9/pw0SgVlxWaH5yICCCAwGEC8eGpOrnZn9UptZ+iQ+LxQQABBBBAAAEEEKilwM/rPtOnS16oiNKhQR9d3fU+jmSopandpo/LvktLc2aanlZcWLJu7vWMjEaW0y8aWDa/A0rLi/Xs1Fu0af8Km2dKeggg4M8CxquC4UHR6tnoTJ3X9gZ/LoXcEUAAAQQQQAABWwkYrw8+Nvka5eRvrsirX9MLdWG7W2yVI8nUXuCjRc9p6obPax/osAiRwbG6MesJNY5tbXpsfwtIA8vGO2a8R/uvFW9o4uq3bJwlqSGAgL8LGP9SPD7jXHVK6av0mBb+Xg75I4AAAggggAACthJYsPVnvTbv/v/kdGXne9U9/RRb5UgytRf4YfX7+nL5+NoHOixCiDdc13V7SG2Supse298C0sCy8Y5t3req4lOcB4v32ThLUkMAAX8VcLncapXQQ4N6PS7jCSwuBBBAAAEEEEAAAXMFSsqK9Pq8B7V4x/T/BL6n/1tqENnY3IWIVu8C87ZO0hvzHjI9D7fLo6u63KsuDU80Pba/BaSBZeMd+3DhM5q+8Sv5Kj60yoUAAgiYIxDkCVHLhC46IeM8ZSb34IB2c1iJggACCCCAAAII/I9ATt5mjZ5xp/YU7qj4taiQBD1yyscyfpDIFVgCy3Pm6JU598hoWpp9XdRusPo2vcDssH4XjwaWTbdsze7FGjPzdhnvS3MhgAACZgnEhCTpko63q1ViNwV7QswKSxwEEEAAAQQQQACBIwgYr5V9tfzl/zyU0DfjQl3UgfOvAvFm2bBnucbPvksHi/eaXt4pzf+iczP/bnpcfwtIA8uGO5ZfckDjsodr/d6lNsyOlBBAwN8EjNcDEyPS1Sv9dJ3a8nJ/S598EUAAAQQQQAABvxQoKDmop38ZqJz8Tf/Jf3DvF9QioaNf1kPSxxbYeXCTxmYP1e6C7aZTdU87VVd2ucf0uP4WkAaWzXbMeF1w+oav9fHiZ1XuK7dZdqSDAAL+JhDiCdOpLS6X8S+9+PAG/pY++SKAAAIIIIAAAn4rkL3pW7376+P/yT8yJE4PnvSBjOMcuAJPYH/Rbo2ecYe2H1xvenEt4rto8HHPmh7X3wLSwLLZjuUV79PomUO0Zf8qm2VGOggg4E+e2nO5AAAgAElEQVQCRuOqZWJXndX6OqVFN/On1MkVAQQQQAABBBDwe4HC0ny9Mvterdo17z+1tEzoqpt6PcX5o36/u0cuwDj76vnpt2rjvuWmV5gYnqaRJ71relx/C0gDy2Y79vXy1/T96rc5uN1m+0I6CPiTQIPIJjq/7SC1TOjET/j8aePIFQEEEEAAAQQCRmDzvtV6adZQHSja85+a+jW9SBe0u4mvPwfMLv9vIeNnjdCSnTNMr9DrDtKoMybK5XL2l8NpYJl+a9U84Lo9S/XstEE1D8BMBBBwtECIN1y9G52pczL/riB3sKMtKB4BBBBAAAEEEKhPga+Wv6rvV7/znxTcLo/+0mm4stIH1GdarG2xwKeLx+jn9R9bssr9J32ghPAUS2L7S1AaWDbZqeKyIn2wcJTmbJlok4xIAwEE/EXA+ANRx5QT1CfjPLVK7OwvaZMnAggggAACCCAQkAJ5xfv15C9/056CHf+pL9gTqpt7PasmcZkBWTNFHRKYsu5zfbLkOUs4bsx6Sm2Te1gS21+C0sCyyU6t3b1IL2UPV1FZvk0yIg0EEPAHgbCgKJ2XOVC9G5/pD+mSIwIIIIAAAgggEPACv6z/ouKjXL+/woOiZDxBExYUEfD1O7nAZTtn6aVZwywhuKDtLerf7EJLYvtLUBpYNtgpo0P/UvZQbdy3wgbZkAICCPiDQKg3XN3TT9Upzf+i+DC+LugPe0aOCCCAAAIIIBD4AgUlBzU2e5g27F36h2K7NTxFV3W9N/ABHF5hTt4WPfzT5ZYoHNfoXF3a6Q5LYvtLUBpYNtipSWs/1udLx9ggE1JAAAF/EDAaVtd2e0jpMS34io0/bBg5IoAAAggggIBjBFblLtArc+5RYWneH2q+svO96p5+imMcnFqoz+fTrf860ZLym8V31G3HvWBJbH8JSgOrnncqN29rxSOGOXmb6zkTlkcAAbsLhHojZPz0bkDLyxUXlmz3dMkPAQQQQAABBBBwnMBHi57V1A1f/KFu4/yrkSe9r+iQOMd5OLHgkT/8WXsLd5peenRogh46+WO5XW7TY/tLQBpY9bxTXy57RZPWvq9yX3k9Z8LyCCBgZ4HI4Dhd1mmo2iX35KkrO28UuSGAAAIIIICAYwX2Fe7S4z9fq7ySfX8waBrXXrcfP9qxLk4r/JmpN2n93iWmlx0eFK2RJ72n8KBI02P7S0AaWPW4Uxv3rtSLM29TUSkHt9fjNrA0ArYWCHKHqH2D43VV13toXNl6p0gOAQQQQAABBJws4POV659Lxmny+o/+h6Ff04t0YbubnczjqNpfm/OAFmyfbHrNYd5IDev7qhLCU0yP7S8BaWDV007llxzUhDn3adWu+fWUAcsigIDdBRLCUvWXzsPVOKaVQrzhdk+X/BBAAAEEEEAAAccKbD+wUc9Pv+V/nr4Kcgfris73qEvDfo61cVrhny4ZrZ/XfWJ62cbfB27t/ULFObhOvWhg1dPOL9w+TW/Pf0RFZQX1lAHLIoCAXQW87mC1SeymC9sPVkJ4ql3TJC8EEEAAAQQQQACB3wQmr/1Eny8b+z9Hw0SHxGtQz1FqGN0UK4cI/LjmA32xbJzp1QZ7QnRD1hNqmdDZ9Nj+EpAGVj3sVGl5iV6ccbvW7VlcD6uzJAII2FkgOiRBp7e8Sn2anGvnNMkNAQQQQAABBBBA4DeBsvJSPTv9Fm3cu+x/TBrHZmpw72dlHOTO5QyBOVt+0FvzHzG9WK87SFd3fUAdU443Pba/BKSBVcc75ZNP36/6QF+vGF/HK7McAgjYWcDlcqtBZBMN7PGY4sIb2DlVckMAAQQQQAABBBD4ncDcLZP05vyHjmgyoMWVOrvNtXg5SGB17gK9MPM20yt2uzy6rOMw9Wx0mumx/SUgDaw63qkt+9do9Mw7lFf8xy9T1HEaLIcAAjYSMH4iZxzueWqLvyiUs65stDOkggACCCCAAAIIHFsgv+SAnpl6s3bmbTjiwNuPG6Om8e1gdJDApn0r9dy0W1RSXmRq1S65dF7bQTqx2cWmxvWnYDSw6nC3fD6fPlg0SjM2fl2Hq7IUAgjYWSA+LEV39BmryOBYuV1uO6dKbggggAACCCCAAAKHCczbMklvHOXpq6TIDN3b7w25XC7cHCSw/cAGvTDjVh0s3mt61ae3vFJntnbuE300sEy/pY4ecNv+dRVPXx0o3lOHq7IUAgjYUcB46qpbw1N0SovLlBSRZscUyQkBBBBAAAEEEEDgGAJFpQV6fe4DWpqTfcRRfTLO0587mP8qGZtib4Hc/K0aPeNO7S7YZnqiJzQ5Xxe1HyzjaSwnXjSw6mjXi8sK9eKMO7Rh79I6WpFlEEDArgLGa4KXdhiizg37yXiXnQsBBBBAAAEEEEDA/wSMV8WMj3MVlub9T/Jul1fXdHtAnVL6+F9hZFwrgX2FuRqbPUzbDqytVZwjTe6Wdoqu7HyPY5/qo4Fl+i31vwGNVwdnbPyXPlj0dB2sxhIIIGBXAeMVwYzYdrqg7SBlxGXaNU3yQgABBBBAAAEEEKhEwPg73jvzH9PsrROPODI2NFmDej6llKgMLB0mkFe8X+Nn3aX1Fjy8kpnUUzdmPSbjA1BOvGhg1cGu55cc1NiZQ7Rx3/I6WI0lEEDArgI90k7T+e0GVpx3xYUAAggggAACCCDgvwIb9izTCzNuO+pB3RmxmRrY80mFB0X5b5FkXiMB49XSV+bcq5W5c2s0/1iTMmIydXufMY49O5cGlum31P8G/H71e/pq+ct1sBJLIICAHQWMP7j0b/pnnd7qr3ZMj5wQQAABBBBAAAEEqiFQ7ivTJ4tf1NQNnx911knNLtV5bW+sRlSGBoqAcX9MmDNSi3ZMM72kxPA03XviW449hoQGlum31B8Dbt63RmNm3qG8kn0Wr0R4BBCwo0B8WKqu6HxXxeeTPS6vHVMkJwQQQAABBBBAAIFqCOTkbdHY7CHalX/0Q7pv6PGE2jXoWY2oDA0kgXd/fULZm/5teknGD8b/MeBzeRx6ji4NLNNvqf8GLCkrlnHjztv6o4WrEBoBBOwoYHwZxDjvamDPJxQWFGHHFMkJAQQQQAABBBBAoAYC3658S9+sfO2oM0O9EXrolI9lfLiHy5kCXy1/Rd+vfteS4kedMVFBnmBLYts9KA0sC3doec4cvTHvQeWXHLBwFUIjgIDdBII9oerX5CL1bXqeYkIT7ZYe+SCAAAIIIIAAAgjUUMB46ur56YO1tzDnqBG6pw3QlV3uruEKTAsEgclrP9NnS1+wpJR7+r2pBg79OAANLEtuqUNBX5xxp1btMv/gNgtTJjQCCNRSwOsO0hWd71bXhv0luWoZjekIIIAAAggggAACdhL455KX9NO6D4+Z0lVdRqpb2kl2Sptc6lhg3paf9Mb8By1Z9YasJ9Qu2Zmvp9LAsuCW8smnqeu+0MdLnrMgOiERQMCOAsYrgw2jm+vs1terXYNedkyRnBBAAAEEEEAAAQRqIbDtwPqKs6/2FeYeNUpCeKpu7f2CYsOSarESU/1dYNWuBXpxxm2WlHFx+9t0QpPzLIlt96A0sCzYody8rRo3a7h25m2yIDohEUDAjgItE7rqis4jFMcfVuy4PeSEAAIIIIAAAgjUWuDr5RP0/ep3ZDywcLQrM7mnruv2oIwjJbicK7D9wAY9+vNVlgCc1PRSndfOmV+4pIFlwS31zYo3NHH1Wyr3lVsQnZAIIGAngRBPmHqkn64/d7jVTmmRCwIIIIAAAggggICJAvsLd2vUtEHaU7D9mFEvaHuL+je70MSVCeWPAnnF+zVi4rmWpN6pQX9d1+MBS2LbPSgNLJN3aOv+dXp+xmAVcHC7ybKEQ8B+AkGeEF3Y7hb1SBvg2C+B2G9XyAgBBBBAAAEEEDBf4ONFL+iXDZ9VGnjYCa8qPaZFpeMYENgCPp9Pd/57gErLS0wvNC26lYb3fdn0uP4QkAaWibtUUlakN+Y9okU7fjExKqEQQMCOAqlRTXVll3uVFt3cjumREwIIIIAAAggggIBJApv2rao4z6iwNO+YEZvGttftfUabtCph/FnA5yvX/ZMu096CHaaXERoUqSdP+9r0uP4QkAaWibv06/Zf9Nb8R2Q0srgQQCBwBYw/nFzR5S4lRaQHbpFUhgACCCCAAAIIIFAh8MXS8Zq07kMZTYljXZd2HKLjGp+NGgI6WLRX42aN0MZ9yyzRGHXGdzLeBnHaRQPLpB0vKy/V2OxhWrVrnkkRCYMAAnYTML402C65t67v8bDcLo/d0iMfBBBAAAEEEEAAAZMFissK9Y+frtaewmOffRUVEq+RJ76jEG+4yRkQzh8F9hbk6OVZ92jzgZWWpP/IqZ8pOiTekth2DkoDy6TdmbLuc3229AUObjfJkzAI2E/Apb5NztNpLa9UVEic/dIjIwQQQAABBBBAAAHTBT5a9Jymbvi80rhtk3vp+u4Py+sOqnQsAwJfwGh8jpj4J8vezrr3xLeVHNEo8CEPq5AGlglbvuOg8YnMayp9pNSEpQiBAAL1IGA8eXVumxt0cotL62F1lkQAAQQQQAABBBCoD4GNe1fo6ak3VLq08WfF89oO0onNLq50LAOcI3D7N6fIeFPLiuvOPuOUEdvGitC2jkkDq5bbU+4r05fLXtaktR/WMhLTEUDAjgLGu+V/yrxRfZucb8f0yAkBBBBAAAEEEEDAAoEyX6m+WDpOk9d9Uml0j9urW3o9p2bx7SsdywDnCNwz8XwdKN5jScE39XxGrZO6WhLbzkFpYNVyd3bmbdJz0wbroEU3Zi3TYzoCCNRCINgTqmu6PaB2yb1qEYWpCCCAAAIIIIAAAv4mcLB4r56a8nftKdxZaeqJ4Q11d/83eX2wUilnDXh88rXaenCtJUVf2+1hdU49wZLYdg5KA6sWu1NUWqDX5t6vZTmzahGFqQggYEeByOBYnd/2JvVIP9WO6ZETAggggAACCCCAgEUCPp9PHy1+XtOqcPaVkcLZra7XgFZXWJQNYf1VYOzMoVqeO9uS9P/Scbh6NT7Dkth2DkoDqxa7M3vz93p7wT9qEYGpCCBgR4GY0ERd3WWkmid0tGN65IQAAggggAACCCBgocCaXQs1JnuoSsuLKl0l2BOm+058RzGhCZWOZYCzBN7/9WnN2PS1JUVf0PZm9W92kSWx7RyUBlYNd+dA0V6NnzVcG/etqGEEpiGAgB0FYkOTdFnHYcpM7mHH9MgJAQQQQAABBBBAwEIB4+tx78x/XAu2T67SKq0Tu+umXk9XaSyDnCXw7xVv6N+r3rCk6NNbXq0zW19tSWw7B6WBVcPd+Xndp/pi2TiVlpfUMALTEEDAbgINo5rris53KT2mpd1SIx8EEEAAAQQQQACBOhBYkTtPr80ZqYLSg5Wu5nK5dXbr63Rqi8srHcsA5wlMXf+lPlr8jCWF92t6kS5sd7Mlse0clAZWDXYnN2+rnp56o/JL9tdgNlMQQMCOAnFhDXRj1uNKjWpqx/TICQEEEEAAAQQQQMBiAePhhFdm36tlOdlVWiksKFI39Hicrw9WSct5g37d9osmzL3PksJ7NzpLl3S8U26X25L4dg1KA6uaO2M8Umq8yzp36w/VnMlwBBCwq4Dx6PdlHYcqPryBXVMkLwQQQAABBBBAAAGLBWZv/kFvL3ikyqs0jmmjW3o/oxBveJXnMNA5Amt3L9Jz02+xpOCuDU/WFZ1HyOv2WhLfrkFpYFVzZ9bvWabxs+9SXvG+as5kOAII2FEgObKxhvQZp1D+4GHH7SEnBBBAAAEEEECgTgT2F+3W6Jl3aPuB9VVe7/y2N+tEBx6kXWUghw/Mydush3+y5uuU7Rscr2u6jlSQJ8RRyjSwqrHd5b4yvTL7Pi3ZOb0asxiKAAJ2Feic2l9XdblXHof95MKu+0FeCCCAAAIIIIBAfQnM3PiNPl78vEqq8OVBI8fI4FgN7zuBrw/W14b5wbp7C3L04KTLVOYrNT3bVold9bfu/1CIN8z02HYOSAOrGruTvelbvbfwSfl85dWYxVAEELCjQOPYNhrc+zkFe0LtmB45IYAAAggggAACCNSRgE8+PT75Wm07uK7KK2alnaYruoyo8ngGOk9gX2Gu/jH5KhWW5plefEZsOw3q+YSMc9icdNHAquJu78rfprEzhygnf0sVZzAMAQTsKtAyoUvFTyxCgzivwK57RF4IIIAAAggggEBdCJT7yvXvFW/qu9VvVnk5rztYf+18j7o07FflOQx0nsCBoj16csrftK8o1/TiU6OaVfwwPiI42vTYdg5IA6uKu/PNitc0cfU7Mn6D40IAAf8VaBrXXtd1f0jRIfH+WwSZI4AAAggggAACCJgisHX/Oo3NHqL9RbuqHC8xIk039XxaCeGpVZ7DQOcJ5BXv17PTbtbOvI2mF58Qlqo7+oxVVEic6bHtHJAGVhV2x3j0z7jxdhdsr8JohiCAgF0FGkY10w1ZjysuLNmuKZIXAggggAACCCCAQB0KfLF0nCat/VDGa4RVvbqnDdAVnYfL7fJUdQrjHChQUHJQY7OHasPeZaZXHxUcp2F9X3XcGWw0sCq5lUrLS/TGvIe1cPsU0286AiKAQN0JNIltq6u7jlR8eErdLcpKCCCAAAIIIIAAArYVyM3bolHTBlX7C/M3Zj2htsk9bVsXidlDoKi0QK/Mvlcrd801PSHjHN97+r/luB/M08Cq5FZauH2aXp97vyVfDjD9LiYgAggcUSAmNFGDej6t1KgmCCGAAAIIIIAAAgggoLLyUr05/1Et2DapWhrG2UMj+r1WrTkMdqZASVmR3pj3kBbtmGYJwMiT3lNieENLYts1KA2sY+yM8fTVy7Pu1vLc2XbdP/JCAIFKBFIim1ScedUgsjFWCCCAAAIIIIAAAghUCCzPmaNxs4ar3FdWLZFz2vxdp7b4S7XmMNiZAkY/4Z0Fj2ne1uo1SauqdfvxY9Q0rl1VhwfEOBpYx9jG7M3f6d0FjwXERlMEAk4UCPVG6NpuD6pNUncnlk/NCCCAAAIIIIAAAkcQMJ6MeXXOSC3Lya6WT1RwvG497nklRzaq1jwGO1PAeMrvvYVPavbmiZYAXN/tEXVM7WNJbLsGpYF1lJ3Zlb9NL0y/TXsKd9h178gLAQSOIRDiDddfOg1Xl1Q+b8yNggACCCCAAAIIIPBfgbmbJ+m9RU+qpKywWiwt4jvpbz0eVVhQRLXmMdiZAuW+cn24aJRmbPyXJQBXdB6hrPTTLIlt16A0sI6wM8ZjpJ8vHafJ6z62676RFwIIHEPA6w7SVV3uU6fUvjghgAACCCCAAAIIIPAfAeNBhUcm/7XiDKzqXn/KHKSTm/+5utMY71ABn8+njxc/r6kbPrdE4ML2t6lfk/MsiW3XoDSwjrAzm/et1vjZI7SvMMeu+0ZeCCBwFAGjeXVe25vU12G/mXNDIIAAAggggAACCBxbwDiT6MtlL9foQQWvO1jDTnhFKVEZMCNQZYHPlozW5HWfVHl8dQY68Tw2GlhHuEPemPug5m37qTr3DmMRQMAGAm6XR1d3HanOvDZog90gBQQQQAABBBBAwF4CW/ev1ZjsITpQtLvaiXVNPVlXdb1XLper2nOZ4FyBL5aN149r3rcEYEDzv+rszOssiW3XoDSwDtuZ+Vsn6/V5D9h1v8gLAQSOIuByudWv6UU6p/X1CvIE44QAAggggAACCCCAwH8EikoL9NrcB6p9cLsRIMgdooE9n1KLhI6IIlAtgX8tn6DvVr9drTlVHdy3yYW6qP0tVR0eEONoYP1uGw8U7dGrc+7Tuj2LA2JzKQIBJwkc1/gcnd92kEK8YU4qm1oRQAABBBBAAAEEqiAwbf3X+nDxKEm+Koz+45CmcR00qOeT/Dmz2nJM+Hbl2/pm5QRLIHqmn6HLOw+3JLZdg9LA+t3OTF3/lT5d+nyNDvSz6waTFwJOEGiV0E3XdX9QYUGRTiiXGhFAAAEEEEAAAQSqIWAc3P5S9jDtzNtUjVn/HXpGq6t1esureH2wRnrOnvTDmg/15bKXLEHolNKv4u9ATrpoYP2228Zvas9Pv1V7C3c6af+pFQG/F4gNbaBbeo9SUkS639dCAQgggAACCCCAAALmC/xrxev6YfW7KvNV/8uDkktDTxivRjGtzE+MiAEvMGXdP/XJkuctqbNNYpYG9XrSkth2DUoDS1K5r0wfL3pB0zZ+Ydd9Ii8EEDiCQGRwrB465SMZX4XhQgABBBBAAAEEEEDgcIGNe1fomWk3qbxGzSspM7GXBvZ6HFgEaiQwY+M3en+hNU2mJrHtdUef0TXKy18n0cCStGbXQr06517llez3130kbwQcJ+B1B+nSjkPVI/1UucTXYBx3A1AwAggggAACCCBQiUB+8X69Pu8hrcidUyMrj8urm3s9o+Yc3l4jPyZJc7f8qDfnP2wJRWpUM43o95olse0alAaWpAlzHtCv2yfbdY/ICwEEjiBwcrPL9ae2f8MGAQQQQAABBBBAAIEjCszfNlnvzH9MJeVFNRJqGtdetx/vrCdcagTFpKMKLNo+Xa/MudsSobiwFD148geWxLZrUMc3sBZs/Vlvzn9EZb4Su+4ReSGAwO8E3C6Pejc6S5d0vAMXBBBAAAEEEEAAAQSOKJBXvE+jZ96pLftX10jI7XLrzFbXakDLK2o0n0kIGAIrc+ZpdLY1f28JC4rSE6d95ShoRzewdhfs0LPTbtK+wlxHbTrFIuDPAk3i2umWXs8qyMO5V/68j+SOAAIIIIAAAghYKfDPJWP107qPJflqtEyoN0I39XpGGbGtazSfSQgYAmt3L9Zz02+2BMPlcuv5syZZEtuuQR3cwPLpxzUf6avlL1cc4s6FAAL2FzC+NDiw51NKDE+1f7JkiAACCCCAAAIIIFAvAity5+nlWXeppLy4xuu3TOiigVlPyMsPTWtsyERp076VeuqXv1tGMeqMiY76wb5jG1h5xfv19NQbtSt/q2U3E4ERQMA8AeOLg1d1uU+tk7qZF5RICCCAAAIIIIAAAgElUOYr04TZ92nxzhk1fvrKALm++6PqmHJcQNlQTN0LbDuwXo/9fLVlCz8+4CuFB0dZFt9ugR3ZwCotL9H7vz6t2Vu+s9t+kA8CCBxBwOP26rzMQerX9AJ8EEAAAQQQQAABBBA4ioBPU9Z9rk+WPF8roUYxrTX0hPG1isFkBAyB3PytemjSXyzDeOjkTxQblmhZfLsFdmQDa9nOWRo3+y75fOV22w/yQQCBwwSMAzQHtLhCZ7a+FhsEEEAAAQQQQAABBI4qsHHvSo3NHqL8kv01VnLJpbPaXK8BLS6vcQwmIvD/AsZ52/f9cJFlIPf2f0fJkemWxbdbYMc1sIpKC/TqnPu0IneO3faCfBBA4AgCmUlZurrrSIUFReKDAAIIIIAAAggggMARBYrLCvXGvIe0eMf0WglFhcTrxqwn1CimZa3iMBkBQ8A4umjExHMtwxje91WlRbewLL7dAjuugTV/2xS9u+AxFZcV2G0vyAcBBA4TSAxP0w1Zj6lBZGNsEEAAAQQQQAABBBA4qsD8rT/r/YVPqLA0v1ZK7Rscr6u73qdgT2it4jAZAUOguLRQQ7493TKM248fo6Zx7SyLb7fAjmpgHSzaq8d/uV77C3Pttg/kgwAChwlEBMVo5EnvKSwoAhsEEEAAAQQQQAABBI4qsCd/px775ToVlhyopZKr4umrtslZtYzDdAQOCZT7ynXbv06yjOOmXs+odWJXy+LbLbBjGljGwe1fL39Vk9Z+aLc9IB8EEDhMwOVy68J2g3VCxp/kcrnwQQABBBBAAAEEEEDgiALGq4OfLn5RMzb9q9ZCrRO7a1Cvp2Scg8WFgFkCt/7rRPl8PrPC/SHO33s8pvYNelsS245BHdPAysnbotEz79Cegh123AdyQgCB3wm0Sz5O13d/SMbXB7kQQAABBBBAAAEEEDiawIqceZow9z4VlubVCsnjDtI1Xe5Xx9Q+tYrDZAQOF7j9m1NVVl5iCcw1XR9Ul4b9LIltx6COaGAZ3c73f31KMzd/Y8c9ICcEEPidgPEOt/EuNxcCCCCAAAIIIIAAAscSOFC0R+NnjdDGfctrDWUchD0w60lFh8bXOhYBEPi9wJ3fnKaS8iJLUM7LHKSTmv/Zkth2DOqIBtbiHTP02tz7VVpebMc9ICcEEPhNINQboeu6P+yo97jZfAQQQAABBBBAAIHqCxgPKXy+dJx+WmfOETFntb5eA1r8RcZRFlwImCkw9NszVVTLjwscLZ82ST10bbcHFeoNNzNl28YK+AbWgaK9enn2CG3Yu8y2m0BiCCCgitcFz271N53c4hI4EEAAAQQQQAABBBA4psDK3Pl6fd4DyiveV2up8KAoDT3hZSWEp9Y6FgEQOFxg+HfnqKDWHxg4sqtx717b7SG1SuziCPiAb2D9sv4L/XPpaBmHuHMhgIA9BYyDMo/LOEeXdLjDngmSFQIIIIAAAggggICtBF7KHqZlObNMyenUFn/VOW2uMyUWQRA4XODuiefpYPFey2CMI1hu6jVKwZ5Qy9awS+CAbmAVlubrmak3afvBdXbxJg8EEDiCQEpkE/29x6NKjGiIDwIIIIAAAggggAACRxUo95Vp0pqP9eXycaYoxYYma8gJLyk6JMGUeARB4HCBe7+/SPuLci2F+VObgTqp+cUB/wpswDawjN/YPl0yRr+s/8zSG4XgCCBQO4Egd4hu6f2smsS1rV0gZiOAAAIIIIAAAggEvMC6PUs1ftZdyi/Zb0qtWemn6dKOQ+R1B5kSjyAIHC4w8oc/a2/hTkthjNdfjY8QJEc2snSd+g4esA2stbsXa9ys4bX+nGp9bxDrIxDIAsarg6e3vFpntL4qkMukNgQQQAABBBBAAAETBIyHFMbPulvLcrJNiHYoxI1ZT6ptcpZp8QiEwOECD066TLvyt1kOc2KzPyP71TAAACAASURBVOv8toMsX6c+FwjYBtab8x7R3K0/SvLVpy9rI4DAMQRaJnTVtd0eUERwNE4IIIAAAggggAACCBxT4LtV7+qbla/K+AKhGVfjmEwN7v2sgr2Bf3aQGV7EqJnAw5P+qpz8TTWbXI1ZkcFxuqnn00qLaV6NWf41NCAbWMtz5mjcrGEq95X7126QLQIOEnC5XBrc63k1T+jooKopFQEEEEAAAQQQQKAmAitz5mnsrKEynsIy6xrU82m1SepuVjjiIHBEgX9Mvlo7Dq6vE51mcZ00qNcTAXuge8A1sA4U7dHoGXdq28G1dXKDsAgCCFRfwOP26uxW1+vkFpdWfzIzEEAAAQQQQAABBBwlUFCSp5dnj9Ca3QtNq7t5fCfd0vsZuV0e02ISCIEjCTz+83XaemBNneAEuYN1aceh6pF+ap2sV9eLBFQDy3iUdNLaD/XlsvHy8epgXd9LrIdAlQUyk3vqum4PBuxPBqoMwUAEEEAAAQQQQACBSgW+WfG6Jq5+x7Snr4ym1UXtb1WfjHMrXZsBCNRW4MlfbtTmfctrG6bK85vGddDtx79Y5fH+NDCgGlh7CnZqbPYQ7Ti40Z/2gFwRcJRAsCe04rDMFrw66Kh9p1gEEEAAAQQQQKC6AsZDCYt3zNArs++u7tRjjo8JTdStx72gxPCGpsYlGAJHEnhm6k1av3dJneL8KfNGndT8EhkfzQqkK6AaWJ8sfkFT1n8WSPtDLQgElIBLbl3S4U4dl3FWQNVFMQgggAACCCCAAALmC+wv2q1X54zU+j2LTQ1+ZqvrdHqrv5oak2AIHE3guWmDtXaPea+/VkU6PChKt/R+TmnRgXWge8A0sFbmztPomXdUZS8ZgwAC9SSQmdRTA3s+UU+rsywCCCCAAAIIIICAvwgYh7V/sWy8flr7kakpJ4Q31Ih+r3GUhamqBDuWwIvT79Sq3XPrHOm4xufq4vaDZZw/HChXQDSwCkvz9fb8R7Vox9RA2RfqQCDgBEK84box63E1j+ergwG3uRSEAAIIIIAAAgiYLLBg2xS9s+BRFZcVmhbZ7XLr9JZX6/RWV5oWk0AIVCbw0sxhWpY7q7Jhpv96eFC0bsh6XE3j2poeu74CBkQDa8n2GXpt/gMqKSuqL0fWRQCBYwgY7173yThPF3e4FScEEEAAAQQQQAABBI4pkJu3VWOzhyo3f4upUtEhCRrU82k1jG5qalyCIXAsgfGz7taSndPrBallfFcN6vVkwDyF5fcNLOO96DEz7tS2g+vq5YZgUQQQqFwgI7at7uwztvKBjEAAAQQQQAABBBBwvMDHi17QtI2fq9xXbqpFr0Zn6ZIOtwfMX+ZNxSGYZQKvzB6pRTumWBa/ssCXdhii3hlnBcSB7n7fwPpmxZv6dtXrle0Zv44AAvUkEOIJ03XdHlKb5B71lAHLIoAAAggggAACCPiLwNwtk/TW/IdlfIHQzMvt8uqe/m8oKSLdzLDEQqBSgdfnPqT52yZVOs6qAenRLXVjzycVHRJn1RJ1FtevG1g7D26qeLR0d8H2OgNjIQQQqJ5AVvppuqzjUH7SVT02RiOAAAIIIIAAAo4T2H5gvcZmD9Pewp2m135CxgW6uMNg0+MSEIHKBN6a95jmbP2usmGW/brH5dF5mYPUr9mFlq1RV4H9uoH11fJX9MOa9+Uz+dHSusJnHQQCXSAuNFkj+r+hUG94oJdKfQgggAACCCCAAAK1FDCeVFmw7SfTn76KConXDT0eV+PYVrXMkOkIVF/gnQVPaNbmf1d/ookzjL+P3dX3NcWHp5gYte5D+W0DKydvi56bfosOFO2uezVWRACBSgWCPCH6a+e71Tm1X6VjGYAAAggggAACCCDgXIGy8lL9uPZDfb38FUsQOjTooyu73qsQT6gl8QmKwLEE3pj7sOZt+7Hekfo1uVB/anujvO6ges+lpgn4ZQOrtLxYb837hxZs/7mmdTMPAQQsFujQ4Hhd3XWkjEYWFwIIIIAAAggggAACRxNYvnOOXp17n4rLCixBuqnXM2qd2NWS2ARFoDKBl2fdp8U7f6lsmOW/HhOapEFZTyrVj7/C6ZcNrBW58/TanJEqKD1o+SazAAIIVF/AaFoNzHpKLRI6Vn8yMxBAAAEEEEAAAQQcI2B8Vf7lWXdr477lltTcOaW/ru3+gCWxCYpAVQRemjFMy3bNqspQy8f0yThPf+5wm+XrWLWAXzaw3pj3sOZtNU7xN/fLFFYhExcBJwm45NIZra7R6a2udFLZ1IoAAggggAACCCBQTYHSshK9++uTmrv1+2rOrNrw8KBo3ZD1mJrGtavaBEYhYIHAC9Nu0+o9CyyIXP2QYd5IDez5lJrEZVZ/sg1m+F0Da9uB9Xril+tVXl5qAz5SQACBwwUaRjXXzb1HKTI4FhwEEEAAAQQQQAABBI4oYHyIa+qGr/Tx4mctE8pM6qlru92vED4oZJkxgSsXGDV1kDbsXVr5wDoa0Sm1n67pOlJul6eOVjRvGb9qYPl8Pr01/1HLOvTmsRIJAecKXNZxmHo3PtO5AFSOAAIIIIAAAgggUKnA+j1L9drcB/6PvfuAjqpc9wb+n/RegYTeewi9N1GKoB4LNhBFikgRpIMovSpNuoKgKCgKKEcUkd5JaAkQQg0JkJBKei8z39o5937Xcw6SmcnsPe/e899rnXXPWrzvU357Ti482fNupOcnlbnW3AXvtpyNVlV7mLud+yhgEYFPT7yHuMzbFolliSDujl6lT2HV8GloiXCKxlDVACsuMworTo1Ckb5QUSQmowAFjBOo6lUf07rJ8/YY4yrgKgpQgAIUoAAFKEAB0QX0Bj1Wnv5A1qdSavo0waQu60WnYH02ILDg2GAkZd8TqtOn676JlxqPFKomY4pRzQDLAAMO3v4ev9/aDOlxU14UoIBYAtJXBid0XoeK7lXFKozVUIACFKAABShAAQoII1BYko89kV/g1L09stXk4uCOEW0XoZ5/c9lyMDAFjBWYe3ggHuU9NHa5IusquFXF5C5fwM3JU5F8lkqimgFWsb4Qq89MQEz6NUv1zjgUoICFBEoPbm84BM/W58HtFiJlGApQgAIUoAAFKKBJgbCHx7H98hIUluTJ1l9QQCcMbT0XDnaOsuVgYAoYKzDz0GvIyE82drli615sPBLP1H1TsXyWSKSaAdb1pPPYeP4jlBh4eLslbjxjUMCSAtLTV2M7fo7KnrUsGZaxKEABClCAAhSgAAU0JJCcE4cvz32EpJz7snUlHUz9XpsFaBrQUbYcDEwBUwRmHHgZ2YVppmxRZK23S0VM7rIB3i4VFMlniSSqGWCtOjMeUalivHrSEvCMQQEtCbzQcAR61R+opZbYCwUoQAEKUIACFKCABQWyCtKw6fzHiJH5bWyNKrTDe+0WwNHOyYLVMxQFzBeY9ufzyCvKNj+ATDulYe/A5lPRrlofmTJYPqwqBlj3029i2an3Ld89I1KAAuUWqObdAFO7bix3HAagAAUoQAEKUIACFNCugHSe8b7bW1Cil+8bNc72bhjbcaUq366m3TvPzib/8Syks99EvIIDumJI69mwt3MQsbz/qkkVA6wjd3/Cnki+QUIVnygWaVMC0m+23gyegrbVetlU32yWAhSgAAUoQAEKUMB4gYjEs9gWvhi5RZnGbzJjZduqffB2y4/M2MktFJBPYMLvvVBiKJIvQTkiezn7Y3q3zfBw9ilHFOW2Cj/AKijJw5YLs3E9+ZxyKsxEAQoYJVDTp3Hpb7mc7F2MWs9FFKAABShAAQpQgAK2JRCbeQefn/5A9idQXB08MKLdYtT1a2ZbwOxWeIEPf+8Bg8EgbJ39m45D99qvCFvfXwsTfoCVnp+Mz0+PRWpegipAWSQFbEVAeqvLuI6rUcu3sa20zD4pQAEKUIACFKAABUwQ0BtKsPnCbEQknoYB8v4DvkXgUxjU8iM42TubUCGXUkBeAb1Bj/G/Py1vknJGr+ReHVO7bVLFQwnCD7DOxx7Ed+ELy3lLuJ0CFLC0QOsqvTC41ceWDst4FKAABShAAQpQgAIaEJCeOPn1+iYcvvu97N3Y6ewwrdvXqOxZU/ZcTEABUwSKSgox6Y/epmyxytqxHVaifoWWVsltSlLhB1gbz39cOrHnRQEKiCPg4eSDUe2Xorp3fXGKYiUUoAAFKEABClCAAkIISE+dhDzYhx1XlilQjw7da/VH/6APFMjFFBQwTSC/OBdT9/czbZMVVj9d5w38o/EISG8mFPkSeoCVnBOHhcfehvQDkBcFKCCOQIvKT2FIq1nQ6ezEKYqVUIACFKAABShAAQoIIZCRn4JVZ8YhJfeh7PV4O1fAyHafoqp3XdlzMQEFTBXIKczCRwdeMHWb4utr+jTBqHZL4ObkpXhuUxIKPcA6FfMrfopYYUo/XEsBCsgs4GDnVHpwe23fpjJnYngKUIACFKAABShAAbUJZOQ/wjcX5yIq7YoipXeo3g+vN5sA6XxWXhQQTSCrIA0fH3xZtLL+qx4XB3eM77QGVbzqCF2rsAOsEn0Jtlychav8+qDQHyAWZ3sCbar2wjstefaV7d15dkwBClCAAhSgAAWeLFBYnI8frizDxYeHFKGS/tE9pctGVPSoqkg+JqGAqQIZeSmYefhVU7dZZf3LjcegR93XrJLb2KTCDrCkyf2Gc1PxMDPK2F64jgIUkFlAOvtqYud1qODOvyTITM3wFKAABShAAQpQQHUCF2IP4seIlSgozpW9dumsnj7130HfBoNlz8UEFDBXIDU3AXOOvGnudkX31fdvjbEdlyua09Rkwg6wYjNuY13oZOQUZpjaE9dTgAIyCbSr9izeDJ7ER7Rl8mVYClCAAhSgAAUooFaBO4+ulH6DJrswXZEWAjxqlJ595e9WWZF8TEIBcwQSs+9j4bF3zNmq+B7pqJhZPbbDx7Wi4rmNTSjsAOvM/d8UemuFsVRcRwHbFpB+yzW6/TI0UMHrVW37TrF7ClCAAhSgAAUooKyAdFj7+pDJihza/r+dvdh4JJ6pq44nW5S9G8wmksD99JtYdup9kUp6Yi2Dms9Au+q9ha1X2AHW1xfnIiz+qLBwLIwCtibQPLA7hrWZa2tts18KUIACFKAABShAgTIEfri8FKGx+6E3lChiVdmjDsZ2XAEPZx9F8jEJBcwVuP0oHGvOjjd3u+L72lbtg7dbTgegUzy3MQmFHGDpDXpM3d8PhSX5xvTANRSggMwCzg5umPfMT3B19JA5E8NTgAIUoAAFKEABCqhFwGDQ40jUTvzzxgbFSrbT2WFo6zkIDuymWE4mooC5AhEJZ7Dxwgxztyu+r4Z3Q4xq/xncnbwVz21MQiEHWNeSQvHluWnG1M81FKCAAgJtq/bGwOZTYW/noEA2pqAABShAAQpQgAIUUINA2MNj2H55MQpLChQrt3HFdhjWZh6c7F0Uy8lEFDBX4NyDA9h2eZG52xXf5+Xsj9EdlqGKZ23FcxuTUMgB1p5rG3Ak+kdj6ucaClBAZgHpt1yDW85CyypPyZyJ4SlAAQpQgAIUoAAF1CIgvWxr6alRSM19qGjJI9ouRlBAR0VzMhkFzBU4Eb0Hu659bu52xffpoMOYDsvRoEIrxXMbk1C4AZb09cHVZ8fjbuoVY+rnGgpQQGaBQI/amNZtE5++ktmZ4SlAAQpQgAIUoIBaBNLyErH5wmzcz7ihaMlNKnXEsNZz4GjvrGheJqOAuQIH73yPvTc2mrvdKvtebDwKz9R9wyq5y0oq3AArqyANK898gJScuLJq559TgAIyC0gT+Amd16OWb2OZMzE8BShAAQpQgAIUoIAaBIpKCvBd2GKEJxxTtFzpq03Tu22Bh7OYZ/MoisFkqhH4/eYW/Hn7W9XUKxXasvLTGNJ6lpA1CzfAis24gw3npkAaZPGiAAWsK1DHLxjjO622bhHMTgEKUIACFKAABSgghEBRSSH239qKg1HbFa1Hp7NDj9qv4aUmoxTNy2QUKK/Anutf4EjUjvKGUXS/v1tlzH76B0VzGptMuAHWtcQQbLk0G9JknxcFKGA9AXudA15vNhEda/SzXhHMTAEKUIACFKAABSgghIDBYMDpe3vxc+QaFOuLFK1JehP2h53WCHuwtKIYTKYaAQMM2B2xGidiflFNzVKh0rdw5vXcDW8XP+HqFm6AdSL6Z+y6xic+hPuksCCbE/BzDcT4Tmvg41rR5npnwxSgAAUoQAEKUIAC/y4QnXYNWy7ORkZ+iuI0zzUYjj4NBimelwkpUB4B6XzvH68sx9kHv5cnjFX2Dms9H80rd7VK7iclFW6AtePKMpy5/5twUCyIArYm0LPuQPyj8Qhba5v9UoACFKAABShAAQr8h0BsZhS2XJiFlFzlzymu7t0AH3RYAekpLF4UUJNAib4Y28OX4MLDQ2oqu7TWp2u/iZeajhSubuEGWCtOjUFM+jXhoFgQBWxJwMXBHYt674GDnaMttc1eKUABClCAAhSgAAX+QyA9Pxkbzk1HfGaU4jbS30XfbDYZ7ar3UTw3E1KgvAJF+kJsvTQfVxJOljeU4vtr+wZhfOc1pV8nFOkSboD10YEXkVOYIZIRa6GAzQl0r9Uf/YPG2lzfbJgCFKAABShAAQpQ4P8EDAY9friyAudi/4DeUKI4TV2/5hjWZh48nPjmQcXxmbDcAoUl+dh8YTauJ4eWO5bSASq5V8fELuvh5uipdOon5hNqgJVXlI1pfz4vFBCLoYCtCbg4uGFE28Wo59/c1lpnvxSgAAUoQAEKUIACfxH4/ebX+PP2VquZSH8nDQroaLX8TEyB8gjkF+di47kZuJMaXp4wVtnr41IJYzusQEWPalbJ/3dJhRpgSQcDrjw9RiggFkMBWxOo4xeMke0WQ/oaIS8KUIACFKAABShAAdsUCHnwB3ZFrIL0FIk1rk7VX8CbzSdZIzVzUsAiAtIDOutCJuN+xg2LxFMyiJujF95vuxi1/ZoqmbbMXEINsM7e34cfrnxWZtFcQAEKyCfwatAEdKv1onwJGJkCFKAABShAAQpQQGiBBxm3sDZkEvKKsqxSp79bFYxstwQBHjWskp9JKWAJgZzCTHx+ZiwSs+9ZIpyiMRzsnDCk1Ww0C+ysaN6ykgk1wPr52noci/6prJr55xSggEwC0qOis57ezsPbZfJlWApQgAIUoAAFKCC6QFxGFDZe+ARpefFWK/W5hu+hV70BsNPZWa0GJqZAeQWyCtKw7OT7SMtPKm8oq+x/vdkEdKkp1oMNQg2w1odMwY2U81a5OUxKAQoA/ZuMRfc6/UlBAQpQgAIUoAAFKGCDAoUlBfgydDpup4ZZrfvaPkEY1eEzSOey8qKAmgUyCx5h8fGhqn1J3dN13sBLTUYJdQuEGWBJb7iYc3gA0vIThQJiMRSwFQEvZ3+M6/g5KnlUt5WW2ScFKEABClCAAhSgwP8ISF932ha2GNeSz1rNxNnBDe+1WYAGFVpZrQYmpoClBNLzU7Dg6NsoLMmzVEhF4wQHdMXwtvMVzVlWMmEGWNmFGaU3N7cos6ya+ecUoIAMAi0qP4V3Wn7Mrw/KYMuQFKAABShAAQpQQGQB6W1pP139HBfiDli1zI41XsBrQeP491Gr3gUmt5RAWl4S5h4ZAL2hxFIhFY1TxbMupnffrGjOspIJM8BKyonF8pPvI684p6ya+ecUoIAMAgODp6JDjX4yRGZIClCAAhSgAAUoQAFRBUr0xdh74yscubvDqiU62btgQud1qOpV16p1MDkFLCWQnBOL+UcHWSqc4nE8nf2wsNfPiud9UkJhBlj3029iTch4FBSr8/E6oe4qi6GAiQLSD6dZPbbD2cHVxJ1cTgEKUIACFKAABSigVgHpyZDDUT9i742NVm1Bp9Ph1abj0ZVvwrbqfWByywrcTrmENSETLRtUwWh2Oges6HdAqJcpCDPAuplyCZvOfwTp4EBeFKCAsgJ96w9B34aDlU3KbBSgAAUoQAEKUIACVhW48+gyvjg33epn9DSo0Aaj238KO529VT2YnAKWFDj34E9su7zYkiEVj7Wg18/wcvZTPO/fJRRmgHU5/hS2hs1Fsb5IGBwWQgFbEPBw8sFH3b+Gp7OvLbTLHilAAQpQgAIUoAAFANxMvoRvwxYgqzDVqh4Odk4Y2nouggI6WrUOJqeApQX+vL0Nv9/8ytJhFY03pctGVPdpoGjOJyUTZoAV+mA/friyVLUHnAlzR1kIBUwUaFmlB95uMYOHZZroxuUUoAAFKEABClBArQLS8S2bzn+MjIIUq7fQtmofvNViKp++svqdYAGWFtge/ilCY/+wdFhF473XZhGaBXZSNKcqBljHonfhl2vrYIBBGBwWQgFbEHiz2WR0qvm8LbTKHilAAQpQgAIUoIDNC2Tkp2DzhVmISY+0uoW/a2WM67QKvq6VrF4LC6CApQU+P/0h7qZdtnRYReO92nQCutV+UdGcqhhg/XHrG0j/4UUBCignYGfniCW9/wkXBzflkjITBShAAQpQgAIUoIBVBPKKsrH67IeIy4yySv6/JnWwc8SrQePRqcZzVq+FBVBADoE5h99Aal6iHKEVi9mr7iC80Hi4YvnKSiTEVwilp66kp6+kp7B4UYACygkEB3TD8LbzlEvITBSgAAUoQAEKUIACVhEwGPSlR7aEPBDjK001fRrjvbYLhTog2io3hkk1KmDApD+eRZHKX1LXtuqzeLvldGHukTADrB+vLMeZ+78JA8NCKKB1AXudA2b22AY/t0Ctt8r+KEABClCAAhSggM0L7IxYjVP39kAaZFn7crR3weh2S1HXv5m1S2F+CsgikF+ci6n7+8kSW8mgTSp1xMh24rxJUZgB1veXP0OoIL8NUPIDwVwUsJZAFc+6mN5deiuGzlolMC8FKEABClCAAhSggMwCeoMeR6J+xK83vpQ5k3Hh7XT26Fl3IJ5vNMy4DVxFARUKpOQ8xLyjA1VY+b+XXNu3GSZ0XiNMH2IMsAwGbAtfjPNxB4SBYSEU0LKADjr0qf8O+jUcouU22RsFKEABClCAAhSweYGQ+/ux5/o65BZlCWER6FkLo9otha9rRSHqYREUkEMgOi0SK0+PliO0ojGreNbB9O5bFM35pGTCDLC+DVuAiw8PCwPDQiigZQFHO2cMaTUHQYEdtdwme6MABShAAQpQgAI2KyCdM3wl/jQ2X/xEGAOdzg6DW8xEq6o9hKmJhVBADoGrCWew6cIMOUIrGtPHNQDznvlR0ZyqGGB9fWkuwuOPCQPDQiigZQE/10BM6/YVXB09tNwme6MABShAAQpQgAI2K3ArJQzfhS9ERn6KMAbtq/fDwODJkAZZvCigZYGTMf/EzoiVqm/Rw8kHC3rthvTVXxEuQZ7A0mPzxdm4knBSBBPWQAHNC3Sp8SJeD56g+T7ZIAUoQAEKUIACFLBFgUc5iVh4/G0U6wuFab+Sew2M6bAMvq6VhKmJhVBALoG9N77CwTvb5AqvWFx3J2/MfeZHONm7KJbzSYmEGWBtOv8JIpLOCIHCIiigZQF7OwfM6vE9//Kg5ZvM3ihAAQpQgAIUsFmBpOwHWBc6CWl5SUIZvNLkA3Sv/QqfvhLqrrAYuQR2XFmGM/d/kyu8YnHdHb0ws8d2uDl5KpZTFQOsL899hMjkUCFQWAQFtCxQzbMeppa+fZAXBShAAQpQgAIUoIDWBOYeHoBHefFCtdW4QjsMbzsfjvbOQtXFYiggl4B0RFLYw6NyhVcsrpujJ2Z03wovFz/FcqpigLUhdDpupJwTAoVFUEC7Ajo833AYetcfpN0W2RkFKEABClCAAhSwQYGM/EdYHzoF8Vl3herey9kfH3RYDuntg7woYAsCxfoibL4wE9eSQlTfrjTA+qj71/B2qSBEL8J8hXDj+RmauMFC3FUWQYG/EZC+uzy8zXw0qtiWRhSgAAUoQAEKUIACGhLYeE7699RZSG8fFOXSQYcXGo3AM3XfhE6nE6Us1kEBWQXyi3Ox6fwM3H4ULmseJYJLXyH8pMc2uDt5KZGuzBzCDLA2XZiJiMTTZRbMBRSggPkCFdyrYmyHlTz/ynxC7qQABShAAQpQgAJCCUj/WP4+/FOEJxwXqi6pGF/XAEzsvB7eLv7C1caCKCCXQHZhBr4InYb7GTfkSqFYXOkQ9zlP74Czg6tiOZ+USJABlgFbLs7G5YQTQqCwCApoVaBZYFcMbz2PvwHT6g1mXxSgAAUoQAEK2JSA9FWlPZFf4ETMbuH6dnPywui2S1HDt6FwtbEgCsgpkJ6XVPp13oTse3KmUSS2h5MP5vfaBXudgyL5ykoizADrm7B5mjjkrCxw/jkFrCkwuMUstK72tDVLYG4KUIACFKAABShAAQsI6A0lOHZ3N/ZcX2+BaJYNIX11sFvtV9C/6VjLBmY0CqhAQHoT6NqzE5BekKKCap9cordLRczvuVOYPoQZYH0XvggX4g4KA8NCKKA1ATdHL8zr+ROkc7B4UYACFKAABShAAQqoV6BEX4yj0bvw6/UvhGyiknt1vN9uCSq6VxWyPhZFATkF4jKjsOrMOOQX58iZRpHY0ssXZnT/RpFcxiQRY4AFA7aHL8G52D+NqZlrKEABMwRaVO6Boa1nm7GTWyhAAQpQgAIUoAAFRBIIf3gMX1+aK9SB7X/1GdZmPpoHdhWJjLVQQDGBmPTrWHFqNCDQCxXMbb6WTxAmdllr7naL7xNmgPXD5aUIebDP4g0yIAUoANjp7DCs9Tw0C+xCDgpQgAIUoAAFKEABlQroDXqce7Af31/5TMgO7HT26F6rP15uKv3jnRcFbFPgYtwRbA2bp4nmG1dsj1HtPxWmF2EGWD9dXYHT9/YKA8NCKKAlAU8nX4zpsBxVvOpoqS32QgEKUIACFKAABWxK4FpiCDZfnIVifaGQfVd0r4bR7ZfC362ykPWxKAooIbD/1rfYd2uLEqlkz9GmSm+82pZwwAAAIABJREFU02qG7HmMTSDEAEt6tO6f17/E4agdxtbNdRSggAkCdf2aY0TbRXB1dDdhF5dSgAIUoAAFKEABCogicDPlAtaFTBalnP+qw9neFe+0nIlmgZ2ErZGFUUAJga8vzkdY/GElUsmeo2edgfhHkxGy5zE2gSADLODAnW347cZXxtbNdRSggAkCXWu9hNeCxpuwg0spQAEKUIACFKAABUQRkJ68+ubSXBSU5IlS0n/V8UzdAXih0XulR1fwooAtCyw49i6SsmM0QfBq0w/RrfbLwvQizADrZMwe7Lq2GgaDXhgcFkIBrQi812YRfxumlZvJPihAAQpQgAIUsCmBh1nRWHn6AxQI/Eaz2r5BGN5mPjydfW3q3rBZCvyngMFgwOQ/+qJIn68JHNFeyCDMAOt87CF8f3kJSgzFmrjRbIICogi4OnpgYc+f4WDvJEpJrIMCFKAABShAAQpQwAiBm8kXS982mFuUacRq6y0Z0XYxmgZ0gA466xXBzBQQQCCzIBWfHHxFgEosU8KkLl+gpk8jywSzQBRhBlgRCWew5dIcYQ8ktIA1Q1DAKgLNArrivbbzrZKbSSlAAQpQgAIUoAAFzBNIzU3AyjPjkJGfZF4ABXZJbx3sXfdt9Gv0rgLZmIIC4gtEPbqKVWfHil+okRUu6LkbXi7+Rq6Wf5kwA6w7j67gi3NTUViijUft5L91zECBsgWk34KN7rAcDSu0KnsxV1CAAhSgAAUoQAEKCCEQnRqBrWELkJqXIEQ9f1dEXb9gvN9uCVwc3ISuk8VRQCmBM/f2YcfVz5RKJ2see509lvc7AGlQLcolzAArNuMOVp8dh/ziXFFsWAcFVC/g5uiFad2+gq9rJdX3wgYoQAEKUIACFKCALQik5yVjzdkJSM6NFb7dD9qvQIOK/EWp8DeKBSomsPPqGpy8t1uxfHIm8nDyxaLev8iZwuTYwgywUnLjsfTke8gryja5CW6gAAUeLyAdqDmy3RJI52DxogAFKEABClCAAhQQW0A6sH1b2GLEZt4SulDpKf++Dd7Fsw0GC10ni6OA0gJfnJuGyKRQpdPKkq+yRx189NQWWWKbG1SYAVZeUQ7mHR2AnEKxDyg0F5r7KGANga41X8KrzT7kgZrWwGdOClCAAhSgAAUoYIJAal4iNp3/GHGZd0zYZZ2lDSu0Kf0lqb2dg3UKYFYKCChQrC/CqjPjcC/9uoDVmV5SUKXOGNFuoekbZdwhzABL6nHe0YFIyXkoY7sMTQHbEnil6Vg8Vbu/bTXNbilAAQpQgAIUoIDKBBKz7+P7y58hOi1C+MrdHD0hvXWwjl+Q8LWyQAooKZBVkI41IROQkBWtZFrZcnWv/Sr6N/1AtvjmBBZqgLXp/ExcTTxpTh/cQwEKPEZgWrctqOpVhzYUoAAFKEABClCAAoIKxGdG45uweYhXyT96n2s4HD3rDYB0wDMvClDg/wSSsmOxPnSy8C9fMPae9W86Ft0FexhCqAHWb9c340DUd8Z6ch0FKPAEARcHd3z27O80ogAFKEABClCAAhQQVCA5Jw5bLs5WxdcGpXOvggO7YVibuYJqsiwKWFcgOvUavjz/EXKL1H8skvT14HdbzkLzyt2si/of2YUaYF2MO4KtYfOEAmIxFFCrQPPA7vwLhlpvHuumAAUoQAEKUEDzAjFpkfgubJEq3jYo3Qxvlwp4r+0i1PBuoPl7wwYpYI6AdHj7Vxc+gXQWltov6SVgI9osQl3/YKFaEWqAFZsZhc9ODBMKiMVQQK0CEzqvR23fJmotn3VTgAIUoAAFKEABzQpIB7avPTsRKblxqujRwc4RrwVNQscaz6qiXhZJAWsIXIw7jK1h862R2uI5pYH1mPbLEehZ0+KxyxNQqAFWUUkBpuzvC71BX56euJcCNi/gaO+MJb1/hfR/eVGAAhSgAAUoQAEKiCNwKyUM28IXIz0/SZyiyqikc80X8VrQONjx3CvV3DMWqrzAgTvb8duNTconliFjRfeqGN9pLTydfWWIbn5IoQZYUhszD72ODBX9MDefnjspIJ9AJffqmN59C6TflvGiAAUoQAEKUIACFBBD4FFuPFacHoOsglQxCjKiiiqedTGy/RL4uFQ0YjWXUMB2BXZcXo4zD/ZqAqCqVz1M6boRdjo7ofoRboC19uwk3Hp0USgkFkMBtQm0rdobb7WYLtwPHLU5sl4KUIACFKAABShgKYHryedLz7zKLkyzVEjZ4zjZu2BIqzloGtBB9lxMQAG1C6w6/SGi0i6rvY3S+jtWfx4Dmk8WrhfhBlg/R67Hsbs/CQfFgiigJoHnGw1H73qD1FQya6UABShAAQpQgAKaFYjNuI21IRORW5Slqh6fazAMvesPgk6nU1XdLJYC1hD4+MDLyFLRgPpJRm81n4721cU78064AdbZ+/uw4+oyGHgOljX+N8ecGhCQziZ4M3gyOlTvq4Fu2AIFKEABClCAAhRQt4D05NWWi7NRUJyrqkaaVuqIwa1mwsXBTVV1s1gKWEMgvzgHU/c/Z43UsuT85KnvUMmjuiyxyxNUuAHWzZRL2HzhE+Sr7Ad8eW4C91LAkgLSwe1jO3yOWr6NLRmWsShAAQpQgAIUoAAFTBS4kXyhdHgl/eNWbdfEzutRi2+0VtttY71WEriVcqn0KUstXB5OvljYazd0gp1/JdkKN8BKzL6PtSGTkJGfrIV7zx4ooLiAu5MXFvb6hW+JUVyeCSlAAQpQgAIUoMC/BAwGA6JSL2PN2YkwQF1vWJfOvXotaALaV+/D20kBChgpsP/Wd9h3a7ORq8Ve1qRih9IXN4h4CTfAkp68Wn5qFBKz74noxZooILxAVa/6mNZNG69vFR6bBVKAAhSgAAUoQIHHCJx7sB87ri5Hsb5IVT466CC9DGhgi2l8GZCq7hyLtbaAll5G92z9wejXcIi1SR+bX7gBllTlxvMfIyLxtJBgLIoCogs8Vet1vBI0WvQyWR8FKEABClCAAhTQnECJvhiRSaHYdOFjVfbm41IRYzosR4BHDVXWz6IpYA0BvaEE844MRGpeojXSWzSnNMQe3mY+mgV2sWhcSwUTcoB16M6P+PXGBkv1yDgUsCmBqV02oZpPfZvqmc1SgAIUoAAFKEABawuUGEpw9O5P+PX6l9Yuxaz8ro6eGNJyNhpVamPWfm6igK0KpOUlYdmpkcgqSFU9gZujF8Z0WIbq3g2E7EXIAVZCZgwWnZAeWTMIicaiKCCqgPQGws+fOyxqeayLAhSgAAUoQAEKaFJAGl6diP4Fv0SuVWV/0lMXPeq8gZeajFRl/SyaAtYUiE6NxBfnpiKvONuaZVgkdxXPOhjVfim8XfwtEs/SQYQcYElNzj86CMk5sZbul/EooGkBH5dKmNfzJ033yOYoQAEKUIACFKCASAIFxXnYf/tbHI76QaSyTKqlccV2GNTiI3g6+5q0j4spQAHgYtwRbLu8GCUqO/PucfeueWA3vNtqNuzt7IW8tcIOsH6+thbHoncJicaiKCCqQOOK7TGq/aeilse6KEABClCAAhSggOYEfrq6Cqfv7yl986AaL1/XQEzotAY+rhXVWD5rpoDVBY5H78bua2usXoclCnilyVg8Vae/JULJEkPYAdaVhJP4+uIcSI/j8qIABYwT6NdwKJ6t/45xi7mKAhSgAAUoQAEKUMBsgezCDPwa+SVCYveZHcPaG10dPfBms8loWeUpa5fC/BRQrcDuiDU4HrNbtfX/tfAZ3b9BoGctYXsRdoCVkHUP60MnIz0/WVg8FkYBkQSkswsGtpiO9tX6iFQWa6EABShAAQpQgAKaFNh4/hNEJp2F9AYytV596g3Gsw3fgb1OzK8LqdWVdduWwBeh0xGZHKL6pqt41sO0bhuh09kJ24uwA6ycwkxsODcV99NvCIvHwiggkoCjvTOGtJqNoIBOIpXFWihAAQpQgAIUoICmBDLyH+G7sMW49eiCqvsKCuiMwS0/gbODq6r7YPEUsLbA7ENvIi0/wdpllDt/73rv4PlGQ8sdR84Awg6wDAY9frq6Eqfv75Wzf8amgGYEPJx8MLr9UlTzrq+ZntgIBShAAQpQgAIUEE3g8zNjEZ0WodozryTPQI9aGN5mASp5VBONl/VQQFUCJfpiTPqjj6qfxJTAHeycML7TatTwaSS0v7ADLEntYtxhbA2bLzQgi6OAKAIV3Kpictcv4eboIUpJrIMCFKAABShAAQpoRkB68mrZqfeRkZ+i6p6c7F3wbstZCArkU/uqvpEsXgiBe2nXsfz0KCFqKU8RlT1q44OOK4R/E6nQA6zcoiwsOPo2sgvTy3MvuJcCNiFQ1as+pkrfWYbOJvplkxSgAAUoQAEKUEApAWlotSF0Kh5m3VUqpSx5pLNtXmg0Ak/XeQ12PPdKFmMGtS2Bw1E78M/rX6i+6Q7V++GNZhNhb+cgdC9CD7AkuR+uLMdZfo1Q6A8RixNDoGmlTni/3SIximEVFKAABShAAQpQQAMCBhgQnxmNJSfEPhfGWOoWlZ/COy0/hoOdo7FbuI4CFHiCwOrTE3En7ZLqjd5tNRutqvQQvg/hB1i3H4Xji9CpKNIXCo/JAilgTQHpLTLPNRpizRKYmwIUoAAFKEABCmhKIDIpBD9d/Rypeeo/oDnAvSZGtFuEiu5VNXWP2AwFrCUgnds9/c8XkVecZa0SLJLX3ckbHz+1FdKZyqJfwg+wsgrSsDZkEuJV/riu6B8E1qd+gbGdVqG+X3P1N8IOKEABClCAAhSggAACF+IO47uwBZCewlL7Jb2t+sOOa1HDhy/7Ufu9ZP3iCEhfLZ5z+E2UGIrFKcqMSrrV7I9Xm401Y6fyW4QfYBXri7DjynKci92vvA4zUkAlAtJ5Biv7HeRZBiq5XyyTAhSgAAUoQAGxBY7d/Rl/3N6CvKJssQs1ojrp64LPNxyOp+u+YcRqLqEABYwVuJsagdVnP1T1GwillzpM6LwOVb3qGtu2VdcJP8CSdM7HHsJ34QusCsXkFBBZwNXRE5/22StyiayNAhSgAAUoQAEKCC8g/fJ8d8RahMbug/TftXC1qvwMBrWcznOvtHAz2YNQAmfv78OOK0tV/ZRmbd8gjO24Ag52TkLZ/l0xqhhgpeUnY8mxIcgrVv9vQFTxqWCRqhOoVvoGwk2qq5sFU4ACFKAABShAAVEEcgoz8UvkelyIOwC9QS9KWeWqo4Z3I4xouxBeLv7lisPNFKDAvwtIXy3+7cZXOHhnu2pppLfX96w3EM83HAbpGz1quFQxwJIgpd+EHI/ZpQZT1kgBxQWCA7pheNt5iudlQgpQgAIUoAAFKKAFgdS8RHx9cQ7upV/XQjulPXi7VMDQ1nNR27epZnpiIxQQRUB6QvPbsIUIjz8mSkkm1yE9dfVhx1Wo6dvY5L3W2qCaAdajnIdYeup95Bap+4R/a91o5tW2QM+6A/GPxiO03SS7owAFKEABClCAAjIIPMpNwLbwRYhKvSJDdOuEdLZ3w5vBk9G66tPWKYBZKaBxgfziXCw/OQqJOfdU22nzwKcwrM0cVdWvmgFWib4Y31yah8sJJ1QFzGIpoITA4JafoHXVnkqkYg4KUIACFKAABSigGYG7qdfww5XPkJit3n+E/ufNkA5t79tgCHrWHQCdTqeZe8VGKCCSQGZBKmYfel21byB0dnDDhE7rUMWrtkisZdaimgGW1EnYw2PYGjZf1af8l3lHuIACZgiMbr8UjSq2NWMnt1CAAhSgAAUoQAHbE5DOuIpJi8TWS/ORlp+oKYCggE54p+UncHFw01RfbIYCIgmEPzyOLZdmi1SSSbU0D+yOYW3mmrRHhMWqGmBlF6Rj+enReJT7UAQ71kABIQTsdPaQBlgNKrQSoh4WQQEKUIACFKAABUQWKCopxOn7e/Hn7e+QU5gucqkm11bTpymGtJoJP7dAk/dyAwUoYLzANxcX4FL8IeM3CLTSyd4ZbzX/CC2rPCVQVcaVoqoBltTSkaifsOf6euO64yoK2ICAk70LRrVfirp+zWygW7ZIAQpQgAIUoAAFzBcwGPT449a3+PPOt5D+u5Yuf7cqmNh5HTydfbXUFnuhgJACU/b3Q0FxrpC1lVWUn2sgJnXZoMqfFaobYOUUZmHZqRF4lBtf1n3hn1PAJgTcnbxLn8Cq7t3AJvplkxSgAAUoQAEKUMAcgayCNOy98RVCHvxuznbh97zV4iO0q9oLOp2d8LWyQAqoWSApOxYLjg1SbQuvBY1H11ovqbJ+1Q2wJOXfb27BgdvfwQCDKtFZNAUsKSBN0KUBViWP6pYMy1gUoAAFKEABClBAMwLSkxJfnZ+FW6mXNPfklXSTnm84Aj3rvQHpaAleFKCAvALnHhzAtsuL5E0iU/Qa3o0xofMa2Ns5yJRB3rCqHGAlZt/H+tApSMvT1oGL8t5qRteqQBWvuqUDLC9nP622yL4oQAEKUIACFKCA2QJ3Hl3BzohViM+KMjuGqBvtdHboUO05vNl8kqglsi4KaE5A+nlyMuYX1fXlaOeE15pNQIfqfVVX+/8WrMoBlvTWkAO3t2Pfrc2qhWfhFLCUQF2/4NIBlqO9s6VCMg4FKEABClCAAhTQhEBEYgh2XPkM0ivvtXgFetTCqPafwde1khbbY08UEE6gqKQAWy7OxrWkEOFqK6ugyp61MabDclU/+KDKAZZ0Y/KLc7Di1BgkZMeUdZ/45xTQtECjim1LB1i8KEABClCAAhSgAAX+JaA3lCDk/h/YcXWZZkm8nf3xfrtPUc27nmZ7ZGMUEE0gM/8R1oVORnxWtGillVnPgOCp6FijX5nrRF6g2gGWhBry4A/8dHUlivWFIhuzNgrIKhAc2BXD28yXNQeDU4ACFKAABShAAbUIFJYUYP+tb3Hq3p7SX3pr8XJz9MTA4KkIrtxVi+2xJwoIK5CQfQ/LTr6PwpJ8YWt8XGG1fJtiTPtlcHZwVVXd/1msqgdYGfkp+PLcR4jNvK3qm8DiKVAegQ7Vn8PA5lPKE4J7KUABClCAAhSggCYEMvNT8UvkOlx8eFgT/TyuCenw5b71h6J3/YGa7ZGNUUBUgcvxJ7H54kxRy3tsXfZ2jni35Sw018DAW9UDLOnunL2/Dz9c+UxVHyAWSwFLCvSp9w6eazTUkiEZiwIUoAAFKEABCqhOID4zGj9FrER0WgSkM3O1eEmHtneq8SJebjKS559q8QazJ+EFfryyEqfv/1P4Ov9aYMMKbTC09Ry4Onqoqu7HFav6AZbU1IbQabieHKr6m8EGKGCOwIDgKehY4zlztnIPBShAAQpQgAIU0ITAw8y72Hj+I6Rq/C3ldfya4b02C+Hu5KWJ+8YmKKA2gVmH3kB6fqJqytbp7DCizSI0DeigmpqfVKgmBlhRqVew+cIsZBema+KmsAkKmCIwvtNa1PELMmUL11KAAhSgAAUoQAFNCBTrixCRcBZ7b2xEcm6sJnr6uyaqedXHu61moZJHdU33yeYoIKqAdID7J4f6i1reY+tqX60vBjSfDDudvarq/rtiNTHAkv4f149XVyL0wT5N3BQ2QQFTBD55ahsqeVQzZQvXUoACFKAABShAAU0I/HFrKw5FfQ/p1fZavvxdq2Bsx5XwcwvQcpvsjQJCC4Q/PI4tl2YLXeNfi6vgVhUTu6yHh5O3amouq1BNDLCkJuOzYrD27ARkFaaV1TP/nAKaEpj/zC54u1bQVE9shgIUoAAFKEABCjxJID0vGb/f3ILQ2D80D+Vo54yBzaehVZUe0Ol0mu+XDVJAVIEdl5fjzIO9opb3H3Xp0Kf+2+jbYLBmnr6SGtTMAEtq5tjdXfg5cq1KPlAskwKWEfi0z2+aOJDPMhqMQgEKUIACFKCA1gVScuPxXdhCRKddA2DQert4LWg8OtV8AfYa+QqQ5m8YG9SkQFFJIdaHTkFU6mVV9OfpUgFTunwBHxdtPeigqQFWQXEe1odORXTaVVV8qFgkBSwhsLLfIUivU+ZFAQpQgAIUoAAFtCxQYijG1YQz2BnxObIKUrXcamlv0uHL3Wq+jJebjoH09kFeFKCA9QRSch5iw7kpSM6Js14RRmZ2tHfG4BYzEVy5i5E71LNMUwMsAww4H3sQ28MXQ/rvvCigdQHpLzarnjui9TbZHwUoQAEKUIACFMChOz/gYNR25BVl24RGs4CueKvFVLg5etpEv2ySAiIL3E4Jw4Zz01CsLxS5zNLaggO7YnibedIYXPhaTS1QUwMsqXnpAMcNodNwJzXcVAuup4DqBBzsnbCi7wHV1c2CKUABClCAAhSggLECmQWp+P36FpyN/c3YLapep4MOtXyaYkzHZXCyd1F1LyyeAloROBL1E/ZcXy98Oy4ObhjRdjHq+TcXvlZzCtTcAEtCSM6JxaozHyKz4JE5JtxDAdUIuDp44NNnbeMvc6q5KSyUAhSgAAUoQAGLCcRm3Maua6sRkxYJvaHEYnFFDuTl7Idhbeajtm9TkctkbRSwKYHPz3yIuyo4/6pdtWfxRrOJcLR30uT90eQAS7pTu6+twYnon/lVQk1+bNnU/wp4OvtjYa/dBKEABShAAQpQgAKaEjAYDLibdhWbL8xCdmG6pnp7UjMOdk4Y1noemgZ0sJme2SgFRBeQvjY46Y8+kH4uiXz5ugZgateNcHfyFrnMctWm2QFWQtY9rAudhIz8lHIBcTMFRBbwd6uK2U9vF7lE1kYBClCAAhSgAAVMEsgvzsXpe7/h6N0fbeobFS4O7ni5yRh0rNHPJC8upgAF5BW4GHcEW8OkM6XEvaTht/Tzo2utF8Ut0gKVaXaAJdkcv7sbuyPXWICJISggpkAVz7qY3n2zmMWxKgpQgAIUoAAFKGCigMGgx/bLS3E+7k9I/92Wrl5138LzjYaVvn2QFwUoII6AdMb29eRQcQp6TCUBHjXwQYeV8HbxF7rO8han6QFWib4I60Kn4s6jsPI6cT8FhBSo7RuMCZ1XC1kbi6IABShAAQpQgALGCkhfzYnLjMLeG5uE/4eisT0Zu85OZ4921frg1aBxPLTdWDSuo4BCAjmFmVh26n08yo1XKKPpaaSfIYNbzkTLKk+ZvlllOzQ9wJLuxY3kC/j64hzkFdvG63ZV9vljueUUaFKxA0a2X1LOKNxOAQpQgAIUoAAFrCsQkXAaO6+tQVpegnULsUJ26W1hQ1vPhYeTjxWyMyUFKPAkgTuPrmDT+RlCzxNaVX4Gb7eaAXudveZvpuYHWPnFOfjm0gJEJp3V/M1kg7Yn0KZKT7zT6hPba5wdU4ACFKAABSigCYG8ohyciPkFv9/8ShP9mNpEoEdtDG87H5Xcq5m6lespQAEFBE7f24ufIlYK+5Vmb5cKeL/dElTzqqeAhvVTaH6AJRHHZURh1dkPkc+nsKz/iWMFFhXoVvMVvNpsnEVjMhgFKEABClCAAhRQQkD6Ss7ua2txI/k8pLd82dolnWU6vM18VHCvYmuts18KqEZge/gShMbuF7beHrXfwD8avwd7Owdha7RkYTYxwJLA9t/6Fvtvb4XeUGJJP8aigFUF+tZ/F30bvmvVGpicAhSgAAUoQAEKmCpw+1E4vr/8qdDnypjakynrXR098V7rBahXobkp27iWAhRQWGD24TeQlpeocFbj0rk7eWNS5w02NQS3mQFWWl4SNpybhoSsaOM+DVxFARUIvNb0Q3St/bIKKmWJFKAABShAAQpQACgozsPpe7/jaPQOZOSn2CSJvZ0jhraai2aBnWyyfzZNAbUIJGXHYuHxtyG9ZEK0S/o5MqDZZLSr3ke00mStx2YGWJLiqZhf8VPECllBGZwCSgq8GTwFnWo8p2RK5qIABShAAQpQgAJmCeQX52JXxGqcjzsg7HkyZjVmwiY7nR2ebzgcPesNNGEXl1KAAtYQ2B2xFsdjdlkjdZk5G1RoXfoVZBcHtzLXammBTQ2wcouysfHcdNxNi9DSPWQvNizwStOxeKp2fxsWYOsUoAAFKEABCoguID29EJMWiT3XNyDaxv8e3qP2a+jXcCicHVxFv22sjwI2LVCiL8b8o4OQKuibUYe3WYDgwC42d49saoAl3d3YjNtYfXYCD3S3uY+6Nht+vtFw9K43SJvNsSsKUIACFKAABTQhEP7wGH64uhx5RVma6MfcJlpX6YnBfHu0uXzcRwFFBR5m3cWKU6NQWFKgaF5jkjUPfArD2swxZqnm1tjcAKtYX4SdEatx9v5ezd1MNmR7An3qvY3nGg2zvcbZMQUoQAEKUIACwgvkFGbi0J3vcfjuDuFrlbvAmj5NMKz1XPi4VpQ7FeNTgAIWEAi5vw87ri6D3qC3QDTLhfBxqYhxnVahgpttvr3U5gZY0kfnQcZtLD35nuU+RYxEASsJ9Kj9Ol5uOtpK2ZmWAhSgAAUoQAEKPF4gKfsBvr+8FDHp12z+LeA6nQ5Leu+Fq6MHPy4UoIAKBKSvPf8SuR7HoncKVa1OZ4c+9d9BvwaDAeiEqk2pYmxygCXh/nl7O/bd2myzB0gq9QFjHnkFOtd4CW8Ej5c3CaNTgAIUoAAFKEABIwWkbztcTTiNXyLXIT0/2chd2l3m5eyHke0/QzWvetptkp1RQGMC0s+xz8+Mw/3060J1Jj11NabDcvi7VRaqLiWLsdkBlvQK37Uhk3AvPVJJb+aigEUF2lXri0Etplk0JoNRgAIUoAAFKEABcwSyCtLw242vEBZ/DPnFOeaE0NyeEW0XoWmlDpCenOBFAQqoQ6CwJB8zDrwE6f+KdA1qPgPtqvcWqSTFa7HZAZYkfT72IL6/8hlK9EWKwzMhBSwh0LLy0xjSepYlQjEGBShAAQpQgAIUMEtAbyhBck4cdlxZjqjUy2bF0NomN0dPvBk8BS0qd9Naa+yHApoXOHp3N36JXCNUn0GVOmNEu4VC1WSNYmx6gCX9ZmjT+Zm4/eiSNeyZkwLlFggK6IIRbReUOw4DUICCdddEAAAgAElEQVQCFKAABShAAXMEpOHViZhfcDRqJ9LyE80Jock9bzSbhI41+sFOZ6/J/tgUBbQsMPfwADzKixemRVdHT7zbchYaV2orTE3WKsSmB1gSekz6Daw5+yGKBHw9prU+FMyrHoFGFdphdIfP1FMwK6UABShAAQpQQBMCBhiQV5iFX29swhm+3fv/31NHOyc81/A9PF33NU3cZzZBAVsTuJd+A8tPjRSq7dZVeuKtFtPgYOcoVF3WKMbmB1gS+s/X1uF4zG4e6G6NTyBzlkugnl9LjOu0slwxuJkCFKAABShAAQqYKnA96Tz+uPVN6VsGef1LwN7OAc/Wfxd96g8iCQUooFKB/be+xb5bW4Sp3s81EGM7rrTpg9v/ejM4wAKQkBWD9aFT+KYUYf5nykKMFajpE4RJXdYau5zrKEABClCAAhSgQLkESvTFOHNvL3ZeW1WuOFrbrIMOHau/gDebT9Raa+yHAjYjIB3avuXibEQmhQrRs/Rz5R+NR+KZum8IUY8IRXCABcBgMODgnR/w282NItwT1kABowWqeTXA1G783BoNxoUUoAAFKEABCpgtkJh1D/tub0VEwmkU6QvMjqO1jfY6B3Sp+SL6B43VWmvshwI2JZCWl4RlJ99HVmGaEH1X926AEW0Xw9vFX4h6RCiCA6z/uQvSb5NWnxmP6PQIEe4La6CAUQKBHnUw4ylxHnE1qmguogAFKEABClBAdQJ3UsLxXfgipOUnqa52uQtuUqk93muzsPQrhLwoQAH1Clx6eBTfXJorTAODWsxAu2q9AOiEqcnahXCA9Zc7cDn+BLZdXoKC4lxr3xfmp4BRAhXdq2Nmj++MWstFFKAABShAAQpQwFSB7IJ0HI/5GSdj9iC3KNPU7ZpfHxzYDcPbzNN8n2yQArYgsPzUaNxLjxSi1aYBnTC89TwOxv/jbnCA9ReQ/OJcfHtpASKSzgjxoWURFChLwM+1MuY880NZy/jnFKAABShAAQpQwGSBpOw47IxYiVspFyG9dZDXvwvU929R+vUeZwdX0lCAAioXeJSXgPlH3oLeUGL1TrydK2B0h6Wo7Fnb6rWIVgAHWP9xR6JTI7Hh3BTkF+eIdq9YDwX+S8DdyReLe/9CGQpQgAIUoAAFKGAxgcKSAlyKO4KfI9fy78R/o1rDuyHGdVoFJ3sXi7kzEAUoYD2BP259iz8EeftgxxrP47WgD+Fg52g9EEEzc4D1mBuz98YmHLyzXdBbxrIo8H8C9jpHrHzuIEkoQAEKUIACFKCARQSSc+Lw282vEJkYgoKSPIvE1FqQun7BGNp6LjydfbXWGvuhgE0KSEP7ry58ghvJ563ev5ujFyZ2XodKHtWtXouIBXCA9Zi7klWQhrUhkxCfdVfEe8aaKPBvAsv7/glHe2eqUIACFKAABShAAbMFivVFuJd+E9vCF+FR7kOz42h9o69rAD7stBp+rgFab5X9UcBmBBKyYrAuZDIyClKs2rP0RtP+TcehS61/WLUOkZNzgPWYu6M36HHs7i7sub5e5HvH2ihQKjDn6R3wcwukBgUoQAEKUIACFDBLILswHX/e+hYX4g4jpyjDrBi2sKmWb1O822oWh1e2cLPZo00JhMcfxzeX5ln9/Kt6/i0wqv1ncLRzsil/U5rlAOtvtAqK87D89GgkZEWb4sm1FFBc4MOOq1HXP1jxvExIAQpQgAIUoIC6BQwGPR7lJuC7sEWITo9QdzMyV+/p5IsPO69GJXd+rUdmaoangOICX4ROR2RyiOJ5/5rQXmePIa3mIrhyF6vWIXpyDrCecIfupkZg4/mPkFuUJfp9ZH02LPBW8HS0r/GsDQuwdQpQgAIUoAAFTBUwGAw4Hr0bB6O+R1ZBqqnbbWp9Na/6eKflJwj0rGlTfbNZCtiCQG5hJmYffsPqZ/41qtAGQ9vMg4uDmy2wm90jB1hPoJNeoflt2CJcenjYbGBupIDcAn0bDEHfBoPlTsP4FKAABShAAQpoRCAtLxnfhi9CdOplSEdn8Pp7AS9nP4xuvwxVvOqQiQIU0KDAkaid2HN9nVU7c3fywbSuX8HHtYJV61BDcg6wyrhLMWnXsS50EgqKc9VwP1mjDQp0rvkS3mg23gY7Z8sUoAAFKEABCpgiUFRSiMikUPx2czMSs2NM2WqTawM8auCt5tNRy7eJTfbPpimgdYESfTHWhU7GnUfhVmvVTmeP3vUGoV/DIVarQU2JOcAq425Jv5X67cYWHIrapqb7ylptSKBllR4Y0mq2DXXMVilAAQpQgAIUMFUgrygbu6+tRXj8MRSW5Ju63ebWS28bHNp6Lmr6NLK53tkwBWxF4GFmNDaESm8ffGS1lr2c/TGu0ypUcq9mtRrUlJgDLCPulvTbqpVnxiA247YRq7mEAsoKNKnUASPbLVE2KbNRgAIUoAAFKKAKAenvsTdTLmLfjS2IzeLfZY25aT4ulfBW82loWLG1Mcu5hgIUUKnAxYdHsC1sEUoMxVbpQKezw2tNx6NLrX9YJb8ak3KAZeRdOx97EDuuLEORvsDIHVxGAWUE6vu3xOgOS2Gvc1AmIbNQgAIUoAAFKKAKgZzCDOy9/hUuxR9BfnGOKmq2dpG+LgEY3OoT1PFrZu1SmJ8CFJBZ4JtL86163nXDCm0xou0CONo7y9ypdsJzgGXkvcwuzMD6kCmIzbxl5A4uo4AyAtK5DNLhonxjhTLezEIBClCAAhQQXUA61+XWozD8dHUlHuU+FL1cYepzdfQsPfMqOLCzMDWxEApQQB6B/OJczDz0GgqsNNyXft4Mbz0P9Su0lKdBjUblAMuEG3vn0RV8cW4qzw0wwYxL5Reo7FkHo9svhbeLv/zJmIECFKAABShAAaEFUvMSsf/mVlxJPIXcokyhaxWpOG/nChjU4iN+bVCkm8JaKCCjgPR06kErnnPdtmpvvBE8EU72LjJ2qb3QHGCZeE93Xl2FU/f2wACDiTu5nALyCPi5BpYOsCp5VJcnAaNSgAIUoAAFKCC8gPTU1f30m9h++VMk5dwXvl6RCpS+vjOo+Qy0rNJdpLJYCwUoIJNAXlEOFh4fjMz8FJkyPDmso50TJnXZgCpeda2SX81JOcAy8e4lZN3DhnNTkZaXaOJOLqeAPAIeTj4Y1X4pqnvXlycBo1KAAhSgAAUoILRAel4SDkXtwNkHv6OohOe1mnKzPJ398FrQeLSo3M2UbVxLAQqoWOBy/ElsDZuPYn2h4l3Y6ezxXMPh6FVvgOK5tZCQAywz7uL+W1ux79bXZuzkFgpYXsDZwbV0gFXHN8jywRmRAhSgAAUoQAGhBW6lXMLXF+cipyhD6DpFLE766s7QVnPRJKC9iOWxJgpQQBYBA3ZGrMbJmF9kiV5W0Gpe9TGy/afwcvYrayn//DECHGCZ8bHIKkjDmrPjkZB9z4zd3EIBywpIU/xR7T9Dwwp81bNlZRmNAhSgAAUoIK7Ao9x4nIj+GWcf7OMbBs24TT4uldC/6Vg0r9zVjN3cQgEKqFWgSF+I+UcGIT0/ySotDAieio41+gLQWSW/2pNygGXmHbyWGIKvL83hge5m+nGbZQUGt5yJ1lWfsWxQRqMABShAAQpQQEgB6e+hu66tRmpuPM9lNeMOeTj5YmjrOajn39yM3dxCAQqoWSDk/h/4/spngBXOtG7g3wYj2y+Gg52jmgmtWjsHWGbyS6/d3Ba2GFcST5oZgdsoYDmBXnXfwguN37NcQEaiAAUoQAEKUEA4gcTs+zgR/QvOPvgNxfoi4epTQ0HSy29ebzYRTSq1U0O5rJECFLCggHRG4MJjg5Gal2DBqMaFcnP0Kv3qYC2fxsZt4KrHCnCAVY4Pxu2UcKwJGV+OCNxKAcsI1PdvjbEdl1smGKNQgAIUoAAFKCCUgN6gx5l7v5e+8l06sJ1vwzbv9vi7VcE7LT9Bbd8m5gXgLgpQQNUCkYmh+OL8NKv00KXmS+jf9APY2zlYJb9WknKAVc47uTtiLU7E7OZfJMrpyO3lE/ByroAFvXaVLwh3U4ACFKAABSgglECJoQQJWTH47cZmXEs6I1RtaitGOvNKGl7V8w9WW+mslwIUsICAwaDHz5HrcDx6twWimRbC1cED4zqtRlWvOqZt5Or/EuAAq5wfirS8JKwPnYJEHuheTkluL4+AdJD7yucOQcfDAMvDyL0UoAAFKEABYQTyirJx6M4POBd3ABn5ycLUpcZCqnjWwVstpqO6dwM1ls+aKUABCwjkFmbi8zPjkJAdY4FopoV4qfEoPF33DdM2cfVjBTjAKucHQ3qE++jdXdgTud4qB8GVs3xu15DAzB7bUdG9qoY6YisUoAAFKEAB2xMo0RcjOi0SuyNWIy7rju0BWLhjdydvjGm/HNW861k4MsNRgAJqEohMDMEX56crXnId32CM77xa8bxaTcgBlgXubFZBGtaGTEJ81l0LRGMICpgn8Fbz6Whf/VnzNnMXBShAAQpQgAJWF0jOicPxmJ9x7sF+5BfnWL0etRdQw6cR3m4xAwEeNdTeCuunAAXKKbDy9FhEp10tZxTTtjvaOWNA8GS0qdbLtI1c/bcCHGBZ6MNxKyUc60Im8CwsC3kyjOkCHau/gAHNJ5m+kTsoQAEKUIACFLCqgMFgwNWE0/gufCEKSvKsWotWkns4+WBi5/Wo4F5FKy2xDwpQwEyBB+m3sPTUCDN3m7+tnl9LjGq/BI72zuYH4c5/E+AAy4IfiO/CFuFC3EEOsSxoylDGC9Tza4FxnT43fgNXUoACFKAABShgVQFpcHU//SaORu/E1YSTKNIXWrUerSSv7RtU+uQVh1dauaPsgwLmC0hvcf35mvTitZ/ND2LGTg8nX4xpvxRV+fVlM/T+fgsHWBbkvJsagS/OTeMj3xY0ZSjjBQI9amF69y2w09kZv4krKUABClCAAhSwmsDhOztwIGo78oqyrFaD1hJXdK+OsR1WwMe1otZaYz8UoIAZApkFqfgidBpiM2+bsdv8LU/XeRMvNRlpfgDufKwAB1gW/GD869Wc63E8epcFozIUBYwT8HMNxMTO6+Dl4m/cBq6iAAUoQAEKUEBxgcLifNxMuYhDUT8gOi1C8fxaTljPvwWGtZ4HdycvLbfJ3ihAARMEbiRfxKbzHyn6hGsFt6oY2e5TVPKoZkKlXGqMAAdYxiiZsCavKAefnx6L+Gwe6G4CG5daQEB6y470g7KmTyMLRGMIClCAAhSgAAUsLZCal4hdVz/H7UeXUVCSa+nwNh2vrl8w3mu7EG6OnjbtwOYpQIF/F9hyYQ7CE44pyvJi49HoUedVfjNGBnUOsGRAPXXvn6Xfsy3WF8kQnSEp8HgB6S0XQ1rNRlBgJxJRgAIUoAAFKCCQQGZ+Ki4+PIIDd7YhpzBdoMrUX4p0dIL05NUHHVaovxl2QAEKWFQgKScWS44PUfTf5XV8m+GDjivgYOdo0V4Y7F8CHGDJ8EnILkjHxgufIIaPhcugy5B/J6DT2WFQ8+loW603kShAAQpQgAIUEEBAOqT9SvxJ/Bm1DQ8zo6A3lAhQlbZKaF+9L14PGs+3fGnrtrIbClhE4McrK3H6/j8tEsuYIG6OXhjSeg4aVmhlzHKuMUOAAywz0IzZEpkUiq8uzEQx3yZjDBfXWEjghYbvoVf9tywUjWEoQAEKUIACFDBHQBpUpeUlY++NTQh7eIRvqDYHsYw99naOaBHQDYNbz5QhOkNSgAJqF0jOicP60Ml4lBuvWCtBAZ0wuOVMODu4KpbT1hJxgCXjHf/+8lKEPPhdxgwMTYF/F2hUoR1Gd/iMLBSgAAUoQAEKWEkgrygbh+/+iPMPDiAtP9FKVWg7rZ3OHs/UGYDnGg3lGTPavtXsjgJmC5yM+Sd2X1ut2JOvzg7upV9lrunT0OyaubFsAQ6wyjYye4U09V0XMgmpeQlmx+BGCpgi4OrohU/7/GrKFq6lAAUoQAEKUMACAtJTV7dTwrD9ymdIz0uyQESGeJyANLzqWXcgnm80jEAUoAAFHitgMOix+PhQJGTHKCKkgw7P1n8XfRsOViSfLSfhAEvGuy8d4v7bjc04cneHjFkYmgL/LrCg5254ufiThQIUoAAFKEABBQSkfyjdS7+J49G7cTXxFApL8hXIapspnO1d0a/hUPSo85ptArBrClDAKIHQB39i++XFRq21xKJqXvUxpsMySG+F5yWvAAdY8voipzATn50cgTQ+hSWzNMP/r8DzDd9Db56DxQ8EBShAAQpQQBGBX69vxMl7e1BQnKtIPltOMqj5DLSt1hPSi2t4UYACFHicQEFxHpaeHIGknAeKAb3ZbAo61XxOsXy2nIgDLAXufnj8CWwLX4zCkjwFsjGFrQvU8GmMyV022DoD+6cABShAAQrIJpBblI3wh8dwNHonErPvyZaHgf8l4O7khf5Nx6FN1Z4koQAFKPBEgasJp7E1bL5iT8NW8ayLsR1Xlv6c4iW/AAdY8hujoCQPmy/Mwo3k8wpkYwpbF3Bz9MS8nrvgZO9s6xTsnwIUoAAFKGBRAQMMuJ0Sjp3XVuFRzkO+bdqiun8fbHSH5Wjg3wLS+Ve8KEABCjxJ4NuwRbgQd0ARJBcHD3zY8XNU9a6nSD4mATjAUuhTcD3pPL48P12xtyAo1BbTCCjgaO+MsR0+Ry3fxgJWx5IoQAEKUIAC6hOQDmhPyL6PEzG/4HzsnygqKVBfEyqs2Nc1AMNaz0MNvtVLhXePJVNAeYHMgjQsODoI+cU5sieXDm7vVPMfeD1oPHQ6nez5mOBfAhxgKfRJkA50//HKSoTG7lMoI9PYqoCdzg6vB01Ep5rP2yoB+6YABShAAQpYTCC7IB0H7/yAS/GHkZGfYrG4DPRkAR+XAIzpsBQBHjVIRQEKUMAoga8vzUPYwyNGrS3vImcHV4zruBrVveuXNxT3myDAAZYJWOVdmleUjaUn30dKblx5Q3E/BZ4o0LfBu5D+w4sCFKAABShAAfME8opycCvlEn6OXMeX8ZhHaPauWj5NS9/oJf0DkRcFKEABYwTis2Lw6YlhinzjSXr66tn6Q9C34TvGlMY1FhTgAMuCmGWFks5NOBL1E/be2KjI/7DKqod/rl2BZgFdMKzNXJ4Vod1bzM4oQAEKUEBGgYjEEByP3oWo1Cs850pG58eFblqxI15r9iH83AIVzsx0FKCAWgUMBgP23foaf97+DoBB9jZqeDcufULU1dFD9lxM8O8CHGAp/IlIz0/GspPvI7MgVeHMTGdLAj4ulTDz6W1wtHOypbbZKwUoQAEKUMBsAYNBj7S8JPx6/Stcij9kdhxuNE9AeqKhdZWeeKfVx+YF4C4KUMBmBaQzr1acGoOE7BjZDaQXZQ1qMQMtKneXPRcT/LcAB1hW+FRciT+Fb8Lm8Td6VrC3lZTSW3oW9PoZHk7ettIy+6QABShAAQqYLZCS8xBnH/yOi3GHkZqXYHYcbjRPwN7OEd1qvYLe9QbB3cnTvCDcRQEK2KzA+diD2H55MfQGvewGjSq0xbutZ0F68zsv5QU4wFLevPSxxq8vzkNY/FGrZGdS2xAY1OITtKvW0zaaZZcUoAAFKEABMwWORf+C/be+Rm5RppkRuK08Ao72Lni16YfoUONZSE9h8aIABShgqsAnB19R7BtO4zuvQx3fpqaWyPUWEuAAy0KQpoaJTr2GjRdmIKcww9StXE8BowTq+bXEuE4rjVrLRRSgAAUoQAFbEsgpzMTVhNM4eW8PHmTctKXWherV16USXmwyqvSrONJblHlRgAIUMFUg9MF+bL+8xNRtJq/X6ezwVK1X8XLT0Sbv5QbLCXCAZTlLkyLpDSXYdXUtTt3/xaR9XEwBYwWkrxEu7/sn7O0cjN3CdRSgAAUoQAHNC0gHtO+JXI/UvHgU64s036+oDfq5Vsaw1nNR3aeBqCWyLgpQQHCBguI8fH1pDiKTQmWv1N+tKka2W4IAj+qy52KCvxfgAMuKn47UvER8fvoDSAe786KAHAIfdFiJBhVayhGaMSlAAQpQgAKqEZB+cXg39SpORO/BlcQTipyTohocKxRa2bM2BgRPRS3fxlbIzpQUoIBWBO6l38C6kEmQDnGX+3qh0Qj0rDsAOh2/6iy39ZPic4BlTX0AZ+//jp0Rq3igu5Xvg1bT967/Dp5vOFSr7bEvClCAAhSgQJkC8ZnRpa9Xv/MoHDk856pML7kXNKzQBm8ET0QFtypyp2J8ClBA4wJfnvsI15LOyt5lda9G+KDjcrg6usueiwmeLMABlpU/IVkFadh8YRbupl21ciVMr0WBZgGd8W6rWXC0d9Zie+yJAhSgAAUo8FgB6YmrtLzk0jcLnoj+BfnF2ZSysoCTvQtaBD6FF5uMhKezj5WrYXoKUEDtAtcSQ/Dl+emyt+Fo54whrecgKKCj7LmYoGwBDrDKNpJ9RXj8CWy5OEv2PExgewJ+bpUxsfM6eDn72V7z7JgCFKAABWxSID0/BSdj/omwh0eQkhtnkwaiNe1o54R/NB6JzjVfgIOdo2jlsR4KUEBlArlFWfjq/EzcSQ2XvfKmAZ3wbsuZcHZwlT0XE5QtwAFW2UaKrNh6aSEuPjyoSC4msS2BCZ3WorZfkG01zW4pQAEKUMCmBAwGPfKKc3Eh9iB+v/kV8hQ4D8WmgM1uVgdXRzcMDJ6O5pW7mh2FGylAAQr8VeB68jl8dWEmikoKZIWR3jz4fpvFaBLQXtY8DG68AAdYxlvJujIuMwrSd3jT85NkzcPgtifQrdYreDVonO01zo4pQAEKUMAmBDLzUxHyYB8uPTyKh1lRNtGzWpqs6dMULzYegXr+zdVSMuukAAVUILDy9FhEK3AET1BAF4xou0AFIrZTIgdYgtxrvUGPvTe+wuGo7wWpiGVoRcDDyRuLev9TK+2wDwpQgAIUoECpQIm+GGfu78PuyNXQ64upIphAUKXOGNpmDr8yKNh9YTkUULvAyZhfsTNihextuDi4Y17PnXBxcJM9FxMYL8ABlvFWsq98lBuPNWcnIDUvQfZcTGBbAmPar0DDiq1sq2l2SwEKUIACmhSQzri6/PA4zsUdQGzGLRhg0GSfam3KTmePLjVfxHMNh8LV0UOtbbBuClBAQAHpids1IRORmB0je3WdajyP15tNgPQzjZc4AhxgiXMvSiu5GHcIW8P4mKJgt0X15XSv3R/9m45VfR9sgAIUoAAFbFegsKQA5x78if13tiK7IB3SmwZ5iSUgPbHwcpMxaFutF5+8EuvWsBoKaELgQtxBbAtfIvvPf+llE6PbL+PXnwX81HCAJdhNKdYXlR5IF5kUIlhlLEfNArV8m2Jk2yVwc/JUcxusnQIUoAAFbFAgM/8RIpPP4fS9vbiffp1PXAn6GajoXg0vNR6FpgEdYaezE7RKlkUBCqhVoMRQjE+PD0eCAk9fNa7YDu+3W8KfZQJ+WDjAEvCmRCSexeYLMyH9j5QXBSwh4OHkiw86LEcVrzqWCMcYFKAABShAAdkFCkvycSHuKI5H70RSzv3SM694iSlQ2zcI77T8GP5ulcUskFVRgAKqF9h342v8eedb2X+JIT19NaXLJlT2qqV6My02wAGWgHdVeiT+m0sLER5/RMDqWJJaBQYET0XHGv3UWj7rpgAFKEABGxAwGPTIKEjF7ZQwHIn6CXFZt22ga/W2KP1Dr55/CwwIngxf1wD1NsLKKUABoQVScxPw6cnhyCvKlr3OFoHdMbTNXNnzMIF5Ahxgmecm+y7pgNJVp8fh/7F3H+BtVWcfwP+SLMt72/GO7TjLsbMTJzGBMAKEFfYsqy2QlFFG2aPwscpsmQ1QoLSUMlpm2SNA9t6x43jEew/JsrWl7zk3gVJWPKSre6/+t8/3Zd173vf9HWHLR2d02ZoDHosBQkOgKLUUS0ofCI1iWSUFKEABCqhOoNfWgdX172Nb69fSEhExmMVLuQLhBhMWFp6PQ/NOQaQxWrmJMjMKUEDVAuKgjg/3/BUf7w387KtwQ6Q0m3Ry+iGqNtNy8hzAUnDvflj5V3wk/kPlGzgF95J6UhOfkt555OuIMyWqJ2lmSgEKUIACmhYQs86tTrO0Oftn1a9gwNWn6Xq1Upw4XfD0Sb+VNmvnRQEKUCCQAuL7wv1f/hJmR0cgw0hti32DfzP7IUQYowIeiwGGJ8ABrOG5yfJU90Ab/rz+erRZ62WJxyDaFzhpwhIcVXi29gtlhRSgAAUooHiBZksN1jZ8iJ1tq9A5wBnniu+wAwlmxhXilKKlGJ8yQy0pM08KUEDFAq/t+BNW1b0d8ArCDRFYOvtBjEmeHPBYDDB8AQ5gDd9Olic3NIqjQu8L+GZ1shTDIEEXyI4bi6vLnoD4As2LAhSgAAUoILeAmFUuNmf/966nsK7xQ84yl7sDRhBPBx3GJk3DxTN/j+jw+BG0xEcpQAEKDE6grrcCj6xcMribR3hXafYinDf1xhG2wscDLcABrEAL+6H9v2y4HdvbVvihJTYR6gIx4QlYMvsB5CaMD3UK1k8BClCAAjIKeLwuVHXtwNaWL7GlZTmXCspo769QhxeciePGXQRTGJfW+MuU7VCAAj8t4Pa68Or2R7G+8cOAM8WaknDJzHuQl1gU8FgMMDIBDmCNzE+Wp/f1lOPZDbfA6uyRJR6DaFlAh1MnXYEF+adpuUjWRgEKUIACChKo792DN3c/hYbeCri8LgA+BWXHVA4mYAqLxOnFV2Nm1lEw6AwHu53/TgEKUMAvAuLkwQdXXCLLBx6lOYuk01T1/Brnl74LZCMcwAqkrp/adnoceG37I9jQ9ImfWmQzoSwwLnkGrpj7SCgTsHYKUIACFAiwgNnehcrOzRBbIVR2bYLYrJ2X+gTSY/KweOISFKWVQqfTqa8AZkwBCqhW4LkNt2FH28qA5x9tjMeVc/+IzLiCgMdigJELcABr5IaytCBGoB9ZdTn6HF2yxGMQ7QoYdGG45bCXkBqTpRNC4bcAACAASURBVN0iWRkFKEABCgRFwONz47O9/8S6po/Qa+uA2+sMSh4MOnKBcSkzcP7UWxAfkTzyxtgCBShAgSEIbGz8HC9vu0+WDz8WFv4CJ0749RCy463BFOAAVjD1hxh7Re3beKv8KYj1wLwoMBKBBXmn49TiK0bSBJ+lAAUoQAEKSAIuj0M6MXlbywqsqHtLluUepA+cgNFgQknaPJxafCXiTEmBC8SWKUABCvyIQJ+jF89suBn1veUB90mNzsYVcx5FYmRawGMxgH8EOIDlH0dZWrE6zVi2/kbU91bIEo9BtCsQH5GK6+cvQ5yJn6pqt5dZGQUoQIHAC1R0bMTX+95CXW85rI4enpocePKARogMi8EJEy7B7OyjIfa+4kUBClBAboFPqv6BD/a8IMvsq6MLz8dx4y/i3ldyd/II4nEAawR4wXh0c9MXeGnrPTx2Ohj4GooZpjfi3Ck3YWbWkRqqiqVQgAIUoECgBXw+nzTDqslShQ/2/BU1PdsDHZLtyyCggw6xpkScWXIdJqeXyRCRIShAAQr8UKDP0YO7l58Hu3sg4DyRYdG44dC/IDkqI+CxGMB/AhzA8p+lLC05PXa8uPlu7GpbJUs8BtGuwKyso3H+tFu0WyArowAFKEABvwqIPa3WNXyEne1r0GTZyy0N/Kob3MYmpc3D8eN/iez4wuAmwugUoEDICjjcA3hh050o71gvi8EZk67G/PyTZYnFIP4T4ACW/yxla6nb1opHV14OCzd0l81ci4GijHG49+g3ITZ150UBClCAAhT4MQGx76bN3Y+PK/+GFfve4hJBjb1MDPowHJ5/Fk6aeInGKmM5FKCA2gS2t67AS5vvgcvrCHjqoxOKcMWch2EKiwp4LAbwrwAHsPzrKUtrHp8H/6l4Dp9XvypLPAbRrsCJ4y/DwrHnaLdAVkYBClCAAsMSsDi6sattLXa1r8Gezk0Qn4zz0pZAYsQoLBp/MWZlH8UPs7TVtayGAqoT8Po8eHDFpWi2VMuQuw6nTboSh+adAp1OJ0M8hvCnAAew/KkpY1sd1kbc89UF3AtLRnMthooIi8b9R78D8QksLwpQgAIUoIDD48Bne/+BlXXvwObug9fnJYoGBQoSJ+M3pQ/CGGaC2P+KFwUoQIFgCvxz2yNY0/CeLCnEm1Jx82EvICo8VpZ4DOJfAQ5g+ddT1tZW1/0Hb+z8Ezw+t6xxGUxbAhdOux0zuJm7tjqV1VCAAhQYgoDYlL26ewd2tKzA9raV0ibtvLQpEBEWhWkZR+C48RcjPoInEWuzl1kVBdQlIL7/LFt3AxweW8ATF0sGfzn9LkxMmxXwWAwQGAEOYAXGVZZWPV43lq2/CXs6N8oSj0G0KTAj80icN/UmiJMJeVGAAhSgQOgIDLisWFX3LjY0foIuWwtcnsDvOxI6usqrVOx9ec7k6zFp1Bx+z1de9zAjCoSkgA8+PLf+VuxsXy1L/dMyFuDiGb8HOPNUFu9ABOEAViBUZWxT7E/x4uY7IU4n5EWB4QhEG+Nx3SHLkBLNI2SH48dnKEABCqhJwO7uR0vfPuxoXYm1DR/B6uxRU/rMdRgCep0BWXGFOL34t8hPLBpGC3yEAhSgQGAEdretw7Mbb4HYAyvQl5iBetmsBzAmuSTQodh+AAU4gBVAXDmadnoceHnLfdja+pUc4RhDowIL8s/EqZN+o9HqWBYFKEABCvS7LFhT9wG2t61Au7WeywRD6CUxf/QpWDj2PCREpIRQ1SyVAhRQukB7fxMeWbkENpmWrc/NORFnlFzFGahKf2EcJD8OYKm8A0X6bdZ6PLryN7C5rRqohiUEQyDcEIE7jngFcaakYIRnTApQgAIUCICAzWWV3iOsb/gEm1o+g/gzr9ARiAmPx6Jxv8T8vMWhUzQrpQAFVCEgZly9vXsZvqx9Q5Z8kyIzcO0hTyPOlChLPAYJnAAHsAJnK2vLn+x9GR9WvgiPDNMvZS2MwWQTOHHCpVhYeK5s8RiIAhSgAAUCI9Bhbcam5k+xp3MzGs174fAMBCYQW1WsgDhl8IQJv0JBUjHEEkJeFKAABZQk0GKpxWNrfosBlyXgaRn14Tht0pWYN/rEgMdigMALcAAr8MayROgaaMGf192I9v56WeIxiPYE8hIn4bJZ9yM6PE57xbEiClCAAhoW8Pl8cHps6BxowQeVL2FH69carpal/ZxAmD4cs7OPwZklV3Pgii8VClBAkQJurwsPr1yKZkuVLPllxhZgaemDiOcyalm8Ax2EA1iBFpax/dV1/8GrOx6WMSJDaUnAaDDhoum/R8moeVoqi7VQgAIU0KyAWILRYN6LXW2rUd6xAY2WKni8Ls3Wy8J+XkD8kLZo3MWYmDYb4QYTuShAAQooUuCL6tfxdvnTsuV28fQ7MS1zgWzxGCiwAhzACqyvzK378PS6m1DRsU7muAynFYGc+Am4fv4yrZTDOihAAQpoVqCycwveKX8WTZZKWU5v0iykRgorTJ6GC6bdgoSIVI1UxDIoQAEtCoiZwk+tuRZdthZZypuecQQumnGHLLEYRB4BDmDJ4yxblMrOzXhx050Qpw3xosBwBC6cdjtmZB05nEf5DAUoQAEKBEigx9aB2p5dqO7eil1ta9Ftaw1QJDarJoE4UzKOHHM25uedzJO11NRxzJUCISrw+o4/YWXd27JUL74+XjLrXoxOmCBLPAaRR4ADWPI4yxZFrCl+dfujWN/4oWwxGUhbAqMTJuI3pQ8h0hijrcJYDQUoQAEVCtT27MYX1a+hunsb7O5+iO/zvCggBHLjJ+Kcyb9DRlw+9Do9UShAAQooWuCr2rfw1u4nZZs1vCD/DJxctJRfHxX9qhh6chzAGrqZ4p9ottTgybXXwursVXyuTFB5AiZDJC6cfgeKR81VXnLMiAIUoIDGBfqdFrT01UoDVhubvkCbdZ/GK2Z5QxWICIvGrOyjceKESxARFjXUx3k/BShAAdkFxPe1ZetuRI+9XZbYYvbVVfMeQ1p0tizxGEQ+AQ5gyWcta6TPq1/HOzJujidrcQwWcIGi1LlYUnp/wOMwAAUoQAEK7Bdotzbg69q3Ud2zDeJkYbt7AICPPBT4H4FRMaNxdsm1yE2YCKMhnDoUoAAFVCHwzLqbsbtjLXwyfV87q/g6lOWdqAobJjk0AQ5gDc1LNXfbXFYsW3+jtF8GLwoMR2Dp7IcxMW3mcB7lMxSgAAUocBABp8eOHlsb6nv34Ot976LBXAGvz003CvyoQLghAmOSpuCM4t8iJTqTShSgAAVUIeD1efHR3r/ho8q/ypbv2OTpuGTW3RCzVXlpT4ADWNrrU6kin8+HdY0f45Vtf9BohSwr0ALZceNw+ZyHER0eF+hQbJ8CFKBAyAj02jqwqfkLiENXmixV6HP2wOfzhkz9LHToAlHGWCyeuBQzMo9AeFjE0BvgExSgAAWCJFDVtQ1/2XgbBlx9smXwqxl3Y3LGIdBBJ1tMBpJPgANY8lnLHsnjdePJtb+TTiziRYGhCoTpw3HelBt5IuFQ4Xg/BShAge8IiE3Xxazo1r59+KLmDZR3rIX4RJoXBQ4moNcZUJBUgrNKrsOomJyD3c5/pwAFKKAoAZfXicdXX4263t2y5CUGrA4ZfSrOKLlSlngMEhwBDmAFx122qGLDvKfW/g4WR5dsMRlIOwIFiSW4uuwJ7RTESihAAQrIJNDWV4/yjg3Y17sT+3rK0W1rlSkyw2hBINaUiMPyT8f80Yt5KrAWOpQ1UCAEBV7f8UesqntXtn2vxEnqS2Y/wNUjGn+tcQBL4x0sNsr75ouHxktleQESOGfyDZibe1yAWmezFKAABbQhIJYBeuHD5qbl+Kz6FbT01WijMFYhs4AOmbH5uGz2H5AYmSZzbIajAAUo4B+B9Y2f4h/b7pdtibxYOfLLGXfxFHX/dJ+iW+EAlqK7xz/JtfTtw1Nrr+MsLP9whlwrsaZkXHfI00iKHBVytbNgClCAAj8n4PV5sK+nAvXmCuzt3ILq7u0YcFmIRoFhCYhZV2W5J+GQvJMgjoDnRQEKUECNAgPOPvxpzVVo7auVLf3Z2cfizJJrEG4wyRaTgYIjwAGs4LjLGlXMwvqy5l94a/dTssZlMG0IiPXkx469EMeOuxA6HTdD1EavsgoKUGAkAv1OC5bX/AubWz6Dxd4Dl9cuHZ7CiwLDFUiISMNF0+9AfmIRdDr9cJvhcxSgAAWCLvDU2uuxp3OjOFZMllzEwVPXlD0JoyFclngMElwBDmAF11+26OKN9RNrrkEVN3SXzVxLgVKisnDF3Ec5C0tLncpaKECBQQuIAatmSzUazXuxtXUFGswVEJuz86LASAUiwqJQmnMcjh93MSKMPPJ9pJ58ngIUCJ6AOKBETJp4u/xp2ZIwGSJxzuTrMT3rCNliMlBwBTiAFVx/WaPvbF2Nv229B3b3gKxxGUwbAjMzF+KC6bdqoxhWQQEKUOAgAmL28r6e3VhV9x/pBCWzvRMO94Bsm9Gyg7QvkBFbgNMmXYWCpCKI/Vt4UYACFFCzQNdACx5bfRV67R2ylVGafRzOmnw1v4bKJh78QBzACn4fyJaBzdWP5zfdjsrOzbLFZCBtCSyd/SAmps3WVlGshgIUoAAAsZ9Vr60TPfY2lLdvxKbmzyDejMu1BIKdEDoCEWHRmJQ2BycXLUV8REroFM5KKUABzQrYXFYsW38zant2yFZjclQmrprzJyRG8cAL2dAVEIgDWAroBDlTaLbU4PE112DAZZYzLGNpRKAobS4umn47xJIHXhSgAAW0IGBxdGFz01eo7t4KceiJGMByeRxaKI01KFAgLToHiycuxfjUGdxsWIH9w5QoQIHhCbxTvgyfV786vIeH8VRkWAx+MfUWlKTPG8bTfETNAhzAUnPvDTP39/e8iE+r/g6xTpkXBYYiYNAbcfG032NyxiFDeYz3UoACFFCEgFgWaHf1Y8DVh72dW7Gq/j9osOyB1+tWRH5MQrsC4YZITB51CE4uWoK4CJ4wqN2eZmUUCD2BPR2b8MKm38PmtspWfPGoMlw47TaYwiJli8lAyhDgAJYy+kHWLLoHWvH0uuvR3t8ga1wG04ZAcmQGri57gssetNGdrIICISEgBq3KOzZKSxvqeyvR0lcj6xvtkEBmkT8pkBM3HgvHnouSUWUw6MMoRQEKUEAzAmJv5T+uukL6virXlRSZgSvnPorkqAy5QjKOggQ4gKWgzpAzla9q38K/dz0mZ0jG0pDA3NwTcHbJddDpdBqqiqVQgAJaEfD4PPB4XdjXU44vql9HZddGnhqolc5VUR1heiPm5JyA04uvgF5nUFHmTJUCFKDAwQXE3pHPbrgNu9vXHPxmP92h1+lxwbTbMT3zcD+1yGbUJsABLLX1mJ/yDcZGe35Knc0oQCDKGIeLpt+BCakzFZANU6AABSgAacCqtmc36s17sK97F2p6dkLsb8WLAnILiB+w8hKLcfSY86S9rjjrSu4eYDwKUEAOgc+q/okPKl+Q9QOiGZlH4Zwpv0O4IUKOEhlDgQIcwFJgp8iVUl1vhbSU0Obqkysk42hIICtuLG489DkNVcRSKEABNQq09dVjec0b2NG+Svp+5vG6Ifa64kWBYAkcO/ZiHDnmTO7NEqwOYFwKUCDgAg3mvfjjqsvh9joDHuubAHpdGG5Z8CLEYRi8QleAA1ih2/fSKUuv7fgj1jd+FMIKLH0kAkcWnIMTJvyKny6PBJHPUoACgxZwe11o7duHNmsD9vXsxO6ODejsb+SA1aAFeWMgBSakzsZRY87BuJRpgQzDtilAAQoEVaC9vxFPrLkaZnunbHkY9SacM/l3mJm9ULaYDKRMAQ5gKbNfZMtKbGb78MpLZYvHQNoSEEsJL5l5D8YkT9ZWYayGAhRQlECTuRprGj7A3q7N6HP0QCyD9/h4cqCiOimEk4kyxuLYcReiNHsRIo3RISzB0ilAAa0LiFnOz6y/GRWdGwEZZzvPyDoKv5h6MwzcT1DrL7GD1scBrIMSaf+Gj/f+HR9Wvgivz6v9Ylmh3wWK0ubglzPuQrjB5Pe22SAFKBB6AuJEo66BFnQONKOiYyN2t61Fj70t9CBYseIFjAYTcuLH49Siy5GbMF7x+TJBClCAAiMREJu2v1P+DJbXvD6SZob8bGRYNJaWPoS8xKIhP8sHtCfAASzt9emQKxpw9eHptdej3lwx5Gf5AAV0Oj0W5J2JUyYtIQYFKECBYQmIJe3V3TuwrXUlmi1V0gCW1dkL8WaZFwWUKBAdHo/FE5dgSvp8RBpjlJgic6IABSjgV4G1DR/h1e0Pyf69+ZSJl+PwMWf4tRY2pl4BDmCpt+/8mvn6xk/wyrYHZP+C5Nci2FjQBML04fjVzLsxKa00aDkwMAUooA4BscG63TWAfmcvxD4aaxs+RmXnRgy4LOoogFmGtEBEWBSK08pwevGViAqPC2kLFk8BCoSOQJOlGsvW3wSzvUPWogsSJ+PqssdljclgyhbgAJay+0e27MR+Is+uvxXVPdtki8lA2hIYnTARV897ghu6a6tbWQ0F/CZgd/ejon0jqrq3obmvBm19dbC6zPBx+brfjNlQ4ATEbOOxSdOwcOx5yE8s4hHugaNmyxSggMIEum1tWLbuJrRaa2XNTHxgcOG02zFp1FxZ4zKYsgU4gKXs/pE1uwZzJR5d9RvpCHJeFBiOwJzsE3D2lGuh1+mH8zifoQAFNCIgZlm5PU64vE5UdmzByvp3UNO9Q9bjtjVCyTKCLKCDThqsOmrMedISFu73GOQOYXgKUEBWAZfHiZe23I3trStkjSuCFY8qw69n/h/03LhddnslB+QAlpJ7Jwi5/Xvnk/i67k1+Ih4Ee62EvGDarRAnhYg3/bwoQIHQEugcaEFt90609NWgrncPGs17YXP3hRYCq9WMgPihqTRnEQ4ZvRg58WM1UxcLoQAFKDBYgfcrXsTnNa/A7XUN9hG/3JcYMQpXzH0UqdFZfmmPjWhHgANY2ulLv1TSbKnBk2uvlTbP5UWB4QikRGXh6rInEGdKGs7jfIYCFFCZQJ+jB2sbPsT6ho/ROdAIL7zw+Xwqq4LpUuB/BZIjM3HelJswJrkEOh0/kOHrgwIUCD2Bz6r+ifcqnoWYVS33deKES7Cw8Dy5wzKeCgQ4gKWCTpI7xY8rX8b7lX+ROyzjaUhgfMpMXDT9dohTmnhRgALaEXC4bWjpq0WrtQ6NlipUdmxGe389DwDRTheHfCUJEamYlX0s5uedBPF7XhSgAAVCUWB76yr8Y9v9EPsky31lxY3FpbPuQ2IkvwbLba+GeBzAUkMvyZyjOM78iTXXYV/vTpkjM5yWBMpyT8LpxVdxU3ctdSprCUkBsS9iVdc2iOOz683lsDp64fDYOGgVkq8GbRc9PmU2Tilagoy4fC6D13ZXszoKUOBnBLxeD+74/AxYHN1BcTp3yk0ozTmGX4eDoq/8oBzAUn4fBSXDzU3L8cr2B+D02IMSn0HVL2AKi8K5k2/AtMwF6i+GFVAghATM9k509jejfaARO1pXo6Z7OwZclhASYKmhJCBOF8yOG4v5oxdjTu5xoVQ6a6UABSjwA4EeWzueWHOttCVAMK7itHm4ZPa9HLwKBr5KYnIASyUdJXeadvcAXtp8N3a1r5E7NONpSEAsIVw6+yHkJozTUFUshQLaExCDVluavsKero3oHGiC2d4Fh3sgKPteaE+XFSlVICY8AccUno9pmYcjNiKRPzAptaOYFwUoIIuA2OvqqTW/w96uzUH5/h9nSpaWDuYmjJelXgZRpwAHsNTZb7JkXdO9E39ed720VIQXBYYrkBGbj8tm3Y+kqPThNsHnKEABPwo4PQ5YHF3od5pR3rERW5qXo7WvNihvVv1YFpuiwKAFxIcrk1LnYtH4C5EclTHo53gjBShAAa0K2N39eHnLH7C9bUXQSpydfQzOKrkORkN40HJgYOULcABL+X0U1Azf2b0Mn9e8GtQcGFzdAmJ5RnHaXFwy6151F8LsKaBiAZurDxXtm1DbuxNt1ga0W+thdnTKfiy2igmZugYEDHojpqYfhkPzT0FuwgQYdAYNVMUSKEABCoxMQOx1+V7Fc/ii5rWRNTSCp2NMibh67uNIi8kZQSt8NBQEOIAVCr08ghp7bR14et31aLXuG0ErfJQCwNT0w3HB9JsRpuenKnw9UCCQAh6vC3a3DeLT1B1ta7C+/mO09NfC43UGMizbpoBiBQy6MMRFJOH0SVejOH0ulwoqtqeYGAUoEAyBXa1r8MzGm4MRWoqp1xlwWtGVmJ9/ctByYGD1CHAASz19FZRMvT4Pvqh+He9WPBOU+AyqHQHxA8TCwl/guPEXaacoVkIBhQg43XZUdW9Dfe8etFnr0GCuRJetFWIwixcFQlkgLToH8/NOxvTMIxFrSghlCtZOAQpQ4AcCG5s+w9+33AcfvEHTKUgqwdLZD8IUFhm0HBhYPQIcwFJPXwUtU5fXhYdXXIaWvpqg5cDA2hG4Ys7DGJcyUzsFsRIKBEXAB5fHhW0tK7C85g00WvZwD6ug9AODKlVAzPY9LO80LC66TKkpMi8KUIACQRUQH3r9cfUVQf2wSwcdLp5+J6ZmHhZUCwZXjwAHsNTTV0HNtLJzM57f9HuIfVR4UWCkAr8pfQgTUmeNtBk+T4GQERAbrzf07kGLtRbt1gbs6diEjoFG7mEVMq8AFjpYgYiwaExKm4ND80/D6IQJ0Ov0g32U91GAAhQIGYGdbavx1813Qby/COY1LmUGLpl5N0xhUcFMg7FVJMABLBV1VjBTdXtdeGnzPdjW+lUw02BsjQhEGWNx64K/IdaUqJGKWAYFAiOwtflrrKx/F63WWjhcA3B6HfD5gjfNPzBVslUK+EcgL6EEpxYvRXbcWITpjf5plK1QgAIU0JiAOGn+uY23oN9pCWplsaYk3HDoc4g3JQc1DwZXlwAHsNTVX0HNtrZ7N55ady2cHntQ82BwbQiIQawr5/4JWXFjtFEQq6DACARs7n609dXDbO9As6UGO9vWoLGvCj6fZwSt8lEKaF/AaDAhN348ykYvxvTMBdJmwLwoQAEKUODHBep6yqVVNb329qASidmxRxScg5MmXhLUPBhcfQIcwFJfnwUtY7Gh+3vlz+PzmleClgMDa0sgI7YAS2b/AYmRadoqjNVQYBACVqcZGxs/RXnnBvTa2mFxdMPmskJ8reVFAQocXCA1OgeLJy5BYfIURBljDv4A76AABSgQwgL7enbjxU13oifIg1eiC6LD43DNvKeQFpMTwj3C0ocjwAGs4aiF8DNi6cqDKy5Fk6UqhBVYuj8F8hKK8auZdyE+gtOH/enKtpQj4PP5YHX2wmzvhBi02t66EjvaVkmzrXhRgAJDE9Dp9EiLzsacnONxeMHpnHE1ND7eTQEKhKhA10ALnt1wqyIO5RIzZU8tuhKH5p8cor3BskciwAGskeiF6LNr6j/AGzv/yM2DQ7T/A1G22MDxF1NvRkJESiCaZ5sUkF3A43NLSwG3t66S3iz22NrQ2d8Cm5sHYcjeGQyoGYH4iBQcnn8mpmTMR1JkOnQ6nWZqYyEUoAAFAiUg3o+8sPlOtFvrAxViSO2OFxu3z7oP4QbTkJ7jzRQQAhzA4utgyAJiBsGfVl+pmC+CQy6ADyhSoHhUGc6fegsijdGKzI9JUeCnBDxeN8QeVg73AOrNlVhT9wFqerbD6bERjQIU8IOA2DNxavoCHDf+YsRFJPmhRTZBAQpQIDQExAzw5zfegeru7YooOCIsBr+eeTfGpUxTRD5MQn0CHMBSX58pIuOqru14dsPNsLv7FZEPk9CGwMTUUpw9+TruiaWN7tR0FTZXP6q7d2Bfzy50D7SgyVKNjoEmuL1OTdfN4iggp0C0MR4zso7C7OyjkR0/FmLTX14UoAAFKDA4gW5bG17ecj+qurcO7gEZ7pqWcTjOnXIDTGGRMkRjCC0KcABLi70qU02vbX8Uq+rflSkaw4SKQFHqXFw6+x7uaxIqHa6COr0+r7SxujhuelPT51jb+D7arA0QewLyogAF/C9g0IWhKHUOTi25AsmR6f4PwBYpQAEKaFxAvGf5y8bbFDPzSnCLDyFuPPQFZMTmaVyf5QVSgANYgdTVeNtiPfWf190As6NT45WyPLkFxEyssyZfi6TIUXKHZjwKSALdA63Y11uOzv4maXaVmGklvtaJwSxeFKBAYATiTSkoST8Es7KPRn5iUWCCsFUKUIACGhfosDbijV2Po6JjvWIqFR9MHDfuYiwce55icmIi6hTgAJY6+00RWYuTtT7Y8yI+rvqbIvJhEtoSmJA6C5fMvBdGQ7i2CmM1ihVo7qvFin3vYHf7WthcFrg8TojN2HlRgAKBF5g/+lQsHHsO4kxJnIEbeG5GoAAFNCrQNdCK5zbcgua+GkVVmBFbgCWz/8BtQhTVK+pMhgNY6uw3xWTd5+jBE2uuRau1VjE5MRHtCBQmTcWZJdciPTZXO0WxkqALuL0utFsb0N7fAHGsdEXHJtSbd0Psa8WLAhSQTyAlKhNFaXNQNvokLimRj52RKEABjQo0mqvwz+0PocG8R3EVnl3yO8wbfYLi8mJC6hPgAJb6+kxxGe9oXYWXttzDE7cU1zPaSEh8YnPpzHuRHJ2hjYJYRVAEXF4nytvWY2PzZ2jt24d+lwUDrj54vK6g5MOgFAhlAaPBhKPHnIdZOccg3pQMgz4slDlYOwUoQIERC9T1VuCvm/8PXQPNI27L3w2MS56Jy2aLVRUmfzfN9kJQgANYIdjp/i55wGXF3zbfjd0d6/zdNNujgCQQa0rCBdNuQ2HyFBh0BqpQ4CcFxNJmcWR0j60dfc4eNJgrsa15BVqsNdJG7LwoQIHgCOh0eqRGZUl7XC3IPx3xEcnBSYRRKUABCmhMoNG8F89vvANdthbFVRZljMWls+5HQVKx4nJjnIc9pAAAIABJREFUQuoU4ACWOvtNcVlXdm7Gk2uvVVxeTEg7AjHhCVg8cQlKc47VTlGsxC8CYmP12p7d2Nm2Gi19NTDbO6UBLJvbypMC/SLMRigwMoHkqExp0Kp41Fxp/xM9P4gYGSifpgAFKHBAoLxjA17ecj/6nN2KNJmXexJOL74SYXqjIvNjUuoT4ACW+vpMsRn/a8fjWFH3FnzwKTZHJqZ+gePH/RoLCk6DKSxS/cWwgiEJiK8tdle/tPRPHA+9t2sLNjd/iWZLFTdbH5Ikb6ZA4AXC9OFIic5EWe5JmJOziF+zA0/OCBSgQIgJiI3aH199NQZcFkVWbjJE4uqyJ5AVV6jI/JiUOgU4gKXOflNk1mIz5D+vuxHt/fWKzI9JaUNA7JUyNX0BTilaijguQdFGp/5MFWLDdbEMsLJzKzoHGtHZ34x2az2sLjNnV2m+91mgOgV0KEotRWnuIhQmTUasKVGdZTBrClCAAgoW2Nj0GV7b/jAcHrtiszxpwhIcVXi2YvNjYuoU4ACWOvtNkVmL2RHLq9/A2+VPKzI/JqUtATF4tWT2A8jmpzqa6VgxWCU2VRf76m1rWYUNTR+h2VLN2VWa6WEWomUBMeNqdEIRTi5agtEJE7RcKmujAAUoEDQBsZ9nRcdGLFt/Y9ByGEzg/MRi/HbeY1wyPhgs3jMkAQ5gDYmLNx9MwGLvxhNrr0Wbdd/BbuW/U2DEAmJflePH/RLTsw7nN8gRa8rfgMvjRLOlRjruudfegSZLtTTbSmy+7vN55U+IESlAgSELxJlSMCXjEExJX4D8xCIYDeFDboMPUIACFKDAwQVsrn58WvUPfFb9ysFvDuIdBr0RZ5f8DqU5xwQxC4bWqgAHsLTas0Gsq6JzM57mhu5B7IHQCq3X6VE2ejFOnriUPzipoOttLis2NH6GDY2foLV/H9xeJ8Qm7BywUkHnMUUKfEfAFBaFBfln4KgxZyPcYII4ZZAXBShAAQoETuAv62/DjvZVit9vuDBpKn4z5yFu3B64l0JIt8wBrJDu/sAUL34YfXnLfdjU/Lniv8AGRoCtBkNgYsosLBp/MXITxnM2VjA64HsxXR4H2q2N0p54Fkc3arp3orpnB/rsXfy6oID+YQoUGK5ATvx4lIw6BLOzFyIpKn24zfA5ClCAAhQYpEDXQDNe2foQ9nZvGeQTwbtNnBq+tPRB5MSPC14SjKxpAQ5gabp7g1dcVdc2aW22U8EbCwZPh5EDJRAbnohF4y7CIXmLAxWC7f6MgJhdtblpOba3rUDnQJO0l5XDPQCxtxUvClBAvQI66JATPwGLxl2AvMRJiAqPhfg7XhSgAAUoEFiBRnMVnt90B7oHWlTxAeCC/NNx6qQrAovC1kNagANYId39gS3+Xzsex9d1bwY2CFunwI8IzM05AQsLz5WOcOflfwExu6rb1gazvQt9jm7sbl+Pys7NMDs6/B+MLVKAAkETiDeloCCpBHNyjsO4lGkQp8DyogAFKEABeQQ2NH6K13f+UfowUA1XclQGLpv1ANJjc9WQLnNUqQAHsFTacWpIu99pweOrr0aLtUYN6TJHDQmIvVjEN9ETxv8a0zIXcKaAH/q2s78JO1pXo7Z3J8z2TvTaO2F19kIMZvGiAAW0JZAYOQrzRy9G8agy6YOAML1RWwWyGgpQgAIKF3iv/C9YWfcWbO5+hWf63/ROmrAER4w5E2J/Wl4UCJQAB7ACJct2JYGva9/EW+VPw+N1U4QCsgvodQaUZh+LReMvQnxECgeyDtIDPvgglgFaHWY4PANoNO/FpublqOvdrZpP/2R/kTEgBTQiYDJEYVTsaMzNPR6zso5CuCFCI5WxDApQgALqERDvwz6o/Cu+qv2XepIGUJA4Gb+d9xh0Oi4vV1XHqTBZDmCpsNPUlHKfowfPbbgV+3p3qylt5qoxgfSYPBxecAZm5xwDg45LYL7bvU63DdVig/XuHeiytaBnoBUd/U3od5nh9Xk09kpgORSgwPcFwg2RmJF5BKZlHo7chAmIMsYQiQIUoAAFgiDQZKnB27ufwt6urap6DxZpjMUF027FpLQ5QVBjyFAT4ABWqPV4EOrd1bYGf9l4Ozw+zsIKAj9DfkdgesYRWFy0BAliNlaITW/2+Dxweexwe1zosXdgXf2H2NWxFt22Vvh8Xr5OKECBEBIw6AyICo/D7KxjsHDsuYgyxoVQ9SyVAhSggPIExGbtf9l4m/S+TG3X+JSZ+PXM/4MpLEptqTNfFQpwAEuFnabGlP+x7QGsa/hQjakzZ40JJEWmozRnEebkLEJiZJrGqvtvOV6fF+LY5druXegYaEaPrU1aEihOB+TpoJrtdhZGgZ8VMBkiMS5lhvQp+YS0WUiKHEUxClCAAhQIooCY7b6p6XO8U/4MLI6uIGYyvNBi9tXlpQ9JM3h5UUAOAQ5gyaHMGGjtq8PT665Hr72dGhRQhEBMeCLOLL4GUzMPVUQ+/kpiU9MXWF3/Hup7K+D0OgCf2NnK56/m2Q4FKKBSgbLcxThx4q8RaYzhfoAq7UOmTQEKaE/g/T0v4LOqV1S7UuWYwgtw/IRfaq9jWJFiBTiApdiu0VZibq8L75U/h+W1r2urMFajagGxjLA4rQzz8xZjQupM1dRid/ej2VKD9v4m6URAMVhVb94Ds71DNTUwUQpQILACkWExGJM8GUWppdJpggmRKYENyNYpQAEKUGDQAp0DzXhr19PY0bYKUOkHjZmxBbh8ziOINSUOum7eSIGRCnAAa6SCfH7QAgPOPjy8com0hIkXBZQkYAqLxOiEIpw26UpkxOYpKTUpFzGDqqm3CusaP0ZVzzZYHT1wuG3SUkButK647mJCFAiqQERYDOZkL8K80ScgOSodRoMpqPkwOAUoQAEK/K9Ah7URz2y4GR39jaqeJX968dXSh8A68ORBvsblE+AAlnzWjARgY9PneHX7Q9yDh68GRQqYwqIxK/tozMk+BlnxhbKfWCgGpLoGWtBr78CA0yKdDri3cyu6bE0Qsxh5UYACFPgxgShjLDLjxmDyqEOk01bFn3lRgAIUoICyBMSBOitr38a7e56Fy+NQVnJDzCYrbiyumPMIosN5CMgQ6Xj7CAU4gDVCQD4+NAGx9Om5Dbdhb9eWoT3Iuykgo0BMeALGpUzHMWMvCOiMLGlmlbkK21pWosGyR9q8s8/RAzFb0SX2r+JFAQpQ4GcEYsMTMW/0iZiWebi0IXsET4Di64UCFKCAIgXM9i68tuNR7OnYAJfXqcgcB5vU/o3bH0FuwrjBPsL7KOA3AQ5g+Y2SDQ1WYFf7Ovxlw62q3axwsHXyPvULhBsiMTf3OMzLPRGp0ZkI04cPqyi314k+Ry/6nWZYnWZUdW/H7ra1aO2rgdvnHlabfIgCFAg9Ab3OgNjwBKTH5mNm5lGYknkoB61C72XAiilAAZUJVHVtw6s7HkW7tU5lmf9YujrpJO+zJl8r+0oFDeCxBD8IcADLD4hsYmgCYinUa9sfxbrGD4f2IO+mQJAExImF41OmY37eKShIKj5oFj6fFx39TSjvWI9GSxUs9i5021rRa++E021T9X4HBy2eN1CAAn4XMOiMKEiajNnZC5EdPxZpMTkwDnNA3e/JsUEKUIACFPhRAZvLiuU1b+DrfW9hwGXRhFKY3oir5z2J3ITxmqiHRahPgANY6uszTWRsdw/gwa8v4YbumujN0ClCnFo4LeNwnDTxUsSZkiD+LAakHB47xPLYnW1rsL35azT1VXMJYOi8LFgpBQIiIDZfjwqLweT0Q3HEmDORHJURkDhslAIUoAAF/Cvg8/lgdfbi+U13oqZ7m38bD2JrYrP2Y8ZeiOPGXxTELBg61AU4gBXqr4Ag1S9mqHxa9U+8X/k8xO95UUBNAiZDJIpGzZFmQLT11aN9oBE2V5+aSmCuFKCAQgWSozIxKW0OxqfMQF5iEY8nV2g/MS0KUIACPyWwct+7+Kz6FWn2vZaunPgJ0sbtkcZoLZXFWlQmwAEslXWYltIVy6nu/fJ8ONw2LZXFWihAAQpQgAKDFhCfaIu9rbJix2DRhItRlFoKnY5Hkg8akDdSgAIUUIiA1+fFc+tvx66OVQrJyH9piA9tz592K6ZmHOa/RtkSBYYhwAGsYaDxEf8JbG9ZgZe23qP6o2T9J8KWKEABClAgFASiwxNQkFiMgqQSFKXORlpsLgw6QyiUzhopQAEKaE5ge8tKfFL1d9SbKwH4NFdfYdI0/GrmXYgOj9NcbSxIXQIcwFJXf2kuW7F88IVNd2Fb61eaq40FUYACFKAABb4vkBadi8Pzz0BJRhmijDEQG+ICnHHFVwoFKEABNQq4vE68V/4cVta9A3HqtFava8qeQn7iJK2Wx7pUJMABLBV1llZTre7egWfX3wyb26rVElkXBShAAQqEqEBkWAwy4gqkN/6TRx2CvMSJ0gEQvChAAQpQQL0CHq8btT278M7uZ1BvLtfsCdN6nR6H5p2GUyddrt7OYuaaEuAAlqa6U53FiG8Ab+x8DKvr31NnAcyaAhSgAAUo8D2B5KgszM05DlMyDkGsKQlRxlgaUYACFKCARgTe2PEYNjV/hgGNH+KTFJmOy2b/ARmxeRrpOZahdgEOYKm9BzWSf89AO/64+gr02ts1UhHLoAAFKECBUBKICItGUuQo5CZMxKyshRibMjWUymetFKAABUJCYG/XVry1+89oNO8JiXqPH3cJjhl3XkjUyiLVIcABLHX0U0hkuaruP/j3rsc1vX48JDqSRVKAAhQIEQFxgmB6bAFmZB2BwqQpSI3OlGZb8aIABShAAW0JWJ1mfLz379jY+Cn6XWZtFfcT1eTGT8Rv5jzIGcQh0dvqKZIDWOrpK81narF34ZkNt6AhRD7R0HyHskAKUIACGhMQA1amsEhpkGpc8nQckrcYWXFjNFYly6EABShAgW8E3F4Xeu0deH7D7Wjqqw4ZGKPehIum3Y6SjENCpmYWqg4BDmCpo59CJsutLV/hhU2/D5l6WSgFKEABCihfwKgPR07CBExKK8XohInIiivkUeLK7zZmSAEKUGBEAr22Tny892/SXld298CI2lLbw1PSD8Uvpt4EU1iU2lJnvhoX4ACWxjtYjeW9tOlubGr5XI2pM2cKUIACFNCAgJhppdeHITY8EbOyjsb8vMVIiEzVQGUsgQIUoAAFDibg8bmxqfELvLbzUbg89oPdrrl/FycPXjHnTyhMnqy52liQ+gU4gKX+PtRcBQ3mSjy34VZpui4vClCAAhSggFwCkcYYjE4owpikEhQkTkZuwjhpySAvClCAAhTQvoDP50Nl52Z8te9NVHSsh1g+GIrXEQVn4eSipaFYOmtWgQAHsFTQSaGWotfnxbsVz+GL6n+GWumslwIUoAAFgiCQGp2Nw/JOx7TMwyAGsQz6MIhZWLwoQAEKUCB0BF7f/kesa/o4JGddfdPLGTEFuGren7hMPnRe9qqrlANYquuy0Ei4o78ZT665Bj32ttAomFVSgAIUoIBsAmJpYHb8WOQlTsKktDnIji+EXmeQLT4DUYACFKCAMgR8Pi82NH6KT6tfQZu1ThlJBTGLxROX4oiCM6DT6YOYBUNT4KcFOIDFV4diBdY3fIyXt92v2PyYGAUoQAEKqEdA7OmRl1iMQ0afhILEYkSHx3N5oHq6j5lSgAIU8LtAbc9uvLnrKTRb9sLldfq9fbU1OComD9eWPSnNROZFAaUKcABLqT3DvOD02PH8xjtQ3rGeGhSgAAUoQIEhCYgZVfGmZKTF5GBs8gzMyDocyVEZQ2qDN1OAAhSggLYExIyr9v5GrKp7D2vq34fDE1qnC/5Ub4rTBi+deS/GpkzTVoezGs0JcABLc12qpYJ82N66Cs9vvB0++LRUGGuhAAUoQIEACUQaY1GSVoapmYchNSoLSVGjYDSYAhSNzVKAAhSggFoExCbt71Y8iy3Ny9Fta1VL2rLkOTNrIS6YdqsssRiEAiMR4ADWSPT4rCwCL2y8E1tbv5QlFoNQgAIUoICaBHTSMsDY8ARkxY3FrKyjUZIxjxuwq6kLmSsFKECBAAvYXP2o7dmJf+18HJ0DTQGOpr7mo4xxWDr7AYxOnKi+5JlxyAlwACvkulx9BffY2vHY6t+i29aivuSZMQUoQAEK+F0gTB+O0QkTD2zAPg6ZsXmIi0j2exw2SAEKUIAC6hbY2bYGX9f+G9Xd27nP1U905eH5Z+GkiZdIJ/DyooDSBTiApfQeYn6SwPsVz+OTqpe5lJCvBwpQgAIhKCD2szIawpEYmY45WYtQlncCxH4dvChAAQpQgALfFxBLBbtsrXht26Oo7N4I8WdePy6QEVuAmw79C08d5AtENQIcwFJNV4V2ol0DrfjzuuvR3t8Q2hCsngIUoECICIgjvFOiMlGYNAV5iUXSjKuMuHwuDwyR/meZFKAABYYj0GiuwsamT7G+8RNYnT3DaSJkngk3ROCM4qtRmnNsyNTMQtUvwAEs9fdhyFSwofET/H3rfSFTLwulAAUoEIoCprBoTE0/DIePOQOjonMgZl/pdLpQpGDNFKAABSgwBIHXt/8J65s+htNjG8JToXtrRmw+rpr7GKLD40IXgZWrToADWKrrstBO+NkNt2Jn26rQRmD1FKAABTQkEBUej5y4QuQmTJBmW4kjvMP0Rg1VyFIoQAEKUCBQAm3WeuxsW42v972NHp4sOGjmcEMkfj3zbkxInTnoZ3gjBZQgwAEsJfQCcxi0QFXXNjy/8Xb0uyyDfoY3UoACFKCAsgT0+jDkJ0zCIaNPwpjkKYgMi5ZOE+RFAQpQgAIUGKzA27uXScsF+5w98Pm8g32M9wEoy12MM0t+y72v+GpQnQAHsFTXZaGdsNPjwCvbHsLm5s9CG4LVU4ACFFCRgFFvQnJUOsRmsYVJUzElYz7iIpJUVAFTpQAFKEABJQi0WRuwq30tvqh5DRZ7pxJSUl0OSZEZuHzOw0iNzlJd7kyYAhzA4mtAdQI9tnb8cdUV6LW3qy53JkwBClAgdAR0SI7KxMzMI1E0qhQJEamIj0iBXqcPHQJWSgEKUIACfhFweux4f8+L2NryJcz2Dng542rYrseOvRDHjrtA2mOSFwXUJsABLLX1GPOVBJbX/Avvli+Dx+emCAUoQAEKKEBAvBGOMsYiKTIdeYnFKM05BjnxYxWQGVOgAAUoQAE1Cvh8PnQNtGBLy5f4vPpVDHALkRF3Y2JkOq4re5qzoEcsyQaCJcABrGDJM+6IBCyObixbdyMaLXtH1A4fpgAFKECBkQlEh8djfPIMFKfPRVp0LkbF5HI/q5GR8mkKUIACIS9Q11uBNfXvo7x9PXodHdzjyg+vCFNYFC6cdjuKR831Q2tsggLBEeAAVnDcGdUPAhsaP8PL2+7jNzQ/WAavCR10B4L74AteGoxMAQoMUkAnnRAYaYxGVlwh5uWchJL0uTDowwb5PG+jAAUoQAEK/LiAw21Dq7UO75U/h73dmyFmYPHyn8CktHm4aMbtMBl4aIr/VNmS3AIcwJJbnPH8JiDWwv91093Y2b7Kb22yIf8LhBsikBCRJu19E2tKRHR4LCLDYqQZGkaDCXropKErsUG/6FOby4p+Zx+szh5Y7N3osbfB7u73f2JskQIUGLSA+G81K7YQE9NmITN2DEYnTkRCRMqgn+eNFKAABShAgZ8S8HjdWNPwAbY2f4l9vbul94O8/C9weemjGJ863f8Ns0UKyCjAASwZsRnK/wK9tnY8vHIpLI4u/zfOFocpoENqdA4mpMzEuNRpKEgoRmxE4jDbAuyuflR378Leri2o6FiP5r4agLO1hu3JBykweAEdEiNHoSz3RMzPW4xIY8zgH+WdFKAABShAgYMIiIGrr2rfxId7X4SYfcUrcAJlOSfhrCnXBi4AW6aATAIcwJIJmmECIyC+8b1dvgxf1f4rMAHY6kEFxMbNqVHZyI4vxPiUmciMG4P02NEIN5gO+uxQb3B5nGjvb0SLpRa7OtaixVKDlr4acPnhUCV5PwV+KCD+WxazJfOTJiE3fjwKk6ciK66ApxTxxUIBClCAAn4VqOjYiPL2ddjS8vWBU8W5VNCvwN9rLC06B1fNfYwbtwcSmW3LJsABLNmoGShQAu39Dbh3+QUcxAgU8M+0OzZpGmZnH4OSjDJpwCpMHy5bFm6vCy6PA+JN0IbGT1HesY6nUsqmz0BaEogIi0FJ2jwcNuY0JEdmSMt7xT5XvChAAQpQgAL+FNjRugofVr6E9v566T0cP4D0p+6PtyU+nDql6Aocln9K4IMxAgVkEOAAlgzIDBF4gdV1/8Ebux6Dx+sKfLAQjiC2XBd7WeUlTkJp9rEYlzJN2scq2Jd4E7SvpxybW5ajomMDugaag50S41NAoQI6RBljpJMCs+LGYkLqLExInQGxVx0vClCAAhSggD8FxABVY28V9nZvxeq696SBK17yCqTH5OE3cx7mvpXysjNaAAU4gBVAXDYtn4AYwFi2/mbs7dosX9AQjDQn53gcln8qUqIypVkaSrvE66DH1o6Vde9Is7L6XWalpch8KBAUATGjKiduPObkHoe8xImIMyUjyhgLne6bc0CDkhaDUoACFKCARgUqO7fgq31vYl/3LvS7euH1eTVaqbLLunT2H1CcNkfZSTI7CgxBgANYQ8DircoW2Nm6Gi9s/j3E0jJe/hMQMzMKEifjsPzTUJQ2WxU/8Hp9HtR278aXtf/Gns4NPMXQfy8HtqQSAbGcN96UjLSYHGlvulnZC6VTQHlRgAIUoAAFAiHg9jrR2d+CfT27pPdfzX3VgQjDNgcpIFZNzMxaiPOn3TLIJ3gbBdQhwAEsdfQTsxyEgMNjx0ub78HOtpWDuJu3DEYgLTpXmnE1NeMwVf7wO+Dqw+62dVhe8wYaLHsGUzLvoYBqBcSb1YTINExOny+dApoWk42kyHQY9GGqrYmJU4ACFKCAsgVsLuv+vUg7N6Cxdw8sjm7ubaWALosOj8clM+9BQVKJArJhChTwnwAHsPxnyZYUINBhbcTDq5ZAfDPlNXwBMXtjXMoMLJ54GTJi84bfkEKe7LV34b3yZ7Gt9Ss4PXaFZMU0KDAyATFgJfagiwmPR27cRMwvOBljkkp4auDIWPk0BShAAQocREC8zxZbNnxd+xa2tC7n+24FvmIOHX0aTi+5UoGZMSUKjEyAA1gj8+PTChT4qPLv+HjvSzyRbph9I/bFOWrMuZidcwziTEnDbEV5jw24rNjU9AWW17yGzoEm5SXIjCgwSAExwJwVW4iS9LnIjBuL0QnjVTlDcpDl8jYKUIACFFCIQL25EjtbV6GycxMaLVX8UFAh/fL9NEZF5+LyuY9y43aF9g/TGpkAB7BG5senFSjQ2d+MJ9deg25bmwKzU3ZKiRGjcHrxVShJL1N2oiPIrrZ7F/625V502VoA+EbQEh+lgDwCYqaVTqeXBqlmZR6NIwvPRnR4nDzBGYUCFKAABUJWwOfzSR8IV3RswvsVz6GJ+1op/rUg3i+cVXwt5o0+QfG5MkEKDEeAA1jDUeMzihdYWfcuXt/xqOLzVFKChUlTcdz4i1GYPEVJaQUkl2ZLLd6reBZ7Ojdy0/+ACLNRfwhEGeOQl1gkLQvMTyxGfuIk7mflD1i2QQEKUIACPysg9rGq7NiM2p6d2Nm+Bj38UFg1rxjxfv6XM+9ETHiCanJmohQYigAHsIaixXtVIyBOoXtm3c0o71yvmpyDmejYpJk4veQKpMeOFnM9gpmKbLHN9k78e9dT2NqyXLaYDESBgwmI//7EssAjCs5A8ai50h5XYXrjwR7jv1OAAhSgAAVGLNBo3ouPK19Gdc922Fx93I5jxKLyN3DJzHs1vZJCflFGVJoAB7CU1iPMx28CFR0b8dfN/4cBl8VvbWqxoeK0eTi5aCnSYnK0WN7P1tQ90Ir3K1/E1uYv4fI6Qq5+Fhx8Ab1OD7F0Nzt+LPISJ6F41DyMCsH/FoPfE8yAAhSgQKgJ+NBj60SzpRo1PTuxreVraY9Q8SEwL3UKzMo+FudPvUmdyTNrCgxSgANYg4TibeoTcHudeHX7I1jf+LH6kpcp48Kk6Tiz5LdIj80FQmTm1fdpxTT5N3c9hc3Nn8ukzjAUAMINESgedQjKco9HSnQWYk0JEJuz86IABShAAQoEUsDjdWNP5yasrv8ATZZKiPdBLo+T+4IGEl2GtpMjM7C09MGQ/EBaBl6GUJAAB7AU1BlMxf8CTZYaPLnmGvS7zP5vXMUtimVK+YklOHvyddKywVC/Ovub8M/tj6Kqewt8Pm+oc7D+AAiIpYDizWV6bD4mjyrDtMzDYODSwABIs0kKUIACFPiugBiw6ra1oqO/GTvaVmNH6wpYHF1E0pjAEQVn48QJv+ZemRrrV5bzQwEOYPFVoXmBz6texTsVyzRf51AKTIhIwy+m3oRxKdOH8pim7+0aaMWLm+5EvblC03WyOHkFUqKyMD3rCExMmYWkqHQkRqbJmwCjUYACFKBASAr0OczY1PQpKrs2oaWvDmZ7Bw+u0egrISkyA9eUPYn4iGSNVsiyKPBfAQ5g8dWgeQGr04xn1t+Eut5yzdc6mAJNhkicM+V6TM88YjC3h9Q9ezu34MXNd8Hq7A2pulms/wQiwqKlk3/GJE1BWd5JyEuY4L/G2RIFKEABClDgJwQcHjusjl609NXiy5o3pI3YxewrXtoWEAe9nDf1Zszg+3ptdzSr+1aAA1h8MWhewOfzYW3Dh/jn9gc1X+vBCjTqTThqzHk4dvz5IXPa4MFMvvvvbq8La+o/wHsVz8Lu7h/Ko7w3hAXE3lWjEyZKG7DnxI9FdtxYRIXHhrAIS6cABShAATkEBpwW7OncLM0eb+7bhyZzJfocPfDBJ0d4xlCAwMTUUlwy6x6eWKyAvmAK8ghwAEseZ0ZRgMDja65GVddWBWQSvBQKk6fhwmkOvKayAAAgAElEQVS3cYrxQbrg5a0PYEPjR3wDGLyXqqIjiz3kxCeecREpKM0+FofmnYyo8DhF58zkKEABClBA3QJenxfigCK7ewA7WlZhdf37aLZWw+N1qbswZj9sAbGX5qWz7sPE1FnDboMPUkBtAhzAUluPMd9hCzSY92LZuhvQ5+wZdhtqfjAxIh0XTb8d+UmT1FyGLLmLvSJe2nwXmvtqZInHIOoQiDTGoiCxWFoeOCapBDkJ4/iJpzq6jllSgAIUUKWAOFimtqccdb270W6tR03PLnT0N0oDWbwoMCNzIc6dcj2MBp5izFdD6AhwACt0+jrkK/X6PHhtx6NYU/9+yFmI2SLHjfsljio8G4Au5OofasFi6v36hk/wj233D/VR3q85AR3ERuyH558ubcYeYYyCQRemuSpZEAUoQAEKKEegums7Pq9+DVXd2+DyOuD1ujkrXDndo4hMkqIycOuCv8HIE40V0R9MQj4BDmDJZ81IChBottTiybXXhNwm3YVJU3HR9DsQF5GkgF5QRwpiP6x/bH0Am1s+h9hHjVeoCOgQbYxDbsJ4jE4owqS0OciOHwuD3hAqAKyTAhSgAAVkEhAfrrb21aHVWofugVbsal+HRvMeODw2mTJgGDUKiA/Sjh//KxxVeI4a02fOFBiRAAewRsTHh9UmIAYiltf8C2+XP6W21EeU74XTfo/pmQug03H21VAg63v34LkNt8Ls6BzKY7xXhQI6nR4ZMQU4LO8UjEudLp0kGB4WwcMOVNiXTJkCFKCAkgU8Pg92t63FhsZP0WKtRb/TDJu7n3tZKbnTFJZbQkQqril7GomRqQrLjOlQIPACHMAKvDEjKFDgsdW/RXX3NgVm5v+UJo86FBdMvwXhhgj/N67xFh1uG/6960msbQi9Zaca71ppYCo6PB6jYkYjP2ESZmYfhYzYfA7yar3jWR8FKEABmQTEQJXZ3okeWzvEaYG1Pbuwo201OvrrITZk50WB4QiIk49/MeUmaVsDXhQIRQEOYIVir7NmbGn5Cv/Yej+cHrumNWLCE/GrGXdhTPJkTdcZyOLqeiqwbMNN6Hf2BjIM25ZJQK8zYHR8EebkLpKWCSZHpSMiLFqm6AxDAQpQgAJaFvB43djWugLlHRvQNdAMi70LFkc3HO4B7mGl5Y6XsbYpGQtw0bTbYNBzP04Z2RlKQQIcwFJQZzAV+QTEEcTPbrgFVV1b5QsahEiT0uZKe1+ZwiKDEF07IV/f8RhW1b3NN58q7FIx0yrKGIuEyFEoSp2NstEnIikqXYWVMGUKUIACFFCKgNgns8/RC7vbCqujFxubPkdFx0b02FuVkiLz0KCA+GB66ewHpFOQeVEgVAU4gBWqPc+6EQobup8/9TbMzD6S+/iM8PUu9sISA54WR9cIW+LjcgkY9EaMTZqKKRmHIituDDJjC6Q9rXhRgAIUoAAFhiogNlsXM7LFMsD2/kb0ObrRZq1Dr70DTo8DAA97Gaop7x+6QFnuSTh10hUwGsKH/jCfoIBGBDiApZGOZBnDE3iv/Dl8Vv2KJmfWJEVm4NqyJxEXkTw8HD71rYCYsffCpt+jomMDVRQqIDZhD9ebEGtKxuzso3FY/mmINHJpoEK7i2lRgAIUUJyAGKRyeZxwe52QBqx6K7Cx6QvUdO+A2dEBH/etUlyfhVJCUcY43DD/Wc4iD6VOZ60/KsABLL4wQlqgs78ZT637nbRPgdau48f9GseM+4XWygpKPT74sKbuA7y646GgxGfQnxYQ+1cVJJZgXMp05CUWSftahemNJKMABShAAQr8pID4vt7vtKDFUoNWax3M9g5pr6rWvjp0DrSg32XmgBVfP4oRMOrDcVrxbzEv93jF5MREKBAsAQ5gBUuecRUj8GXNv/Hm7icUk48/EokzJeP6+c8gPiLFH82xDQAd/Y2498uL4PW56aEAgcTIdByRfwZKcxbBZIzkMlkF9AlToAAFKKBkga7+Vmxt/RI7W1ejua8Gds8A4BNDWeLiEkAl912o5zY6oQhLZt8vnZ7MiwKhLsABrFB/BbB+2Fz9eGb9Tajp2aEZjYmppbh09n0w6AyaqUkJhfx9833Y0PyJElIJsRx0iDbGITdhAvITJ2FC6kzkxI/jCTwh9ipguRSgAAV+SkC8lzM7utDV34I+Zzdsrj702jrRYq1Fu7VBml0llgbyooAaBS6efiemZS5QY+rMmQJ+F+AAlt9J2aAaBep6y/HndTdgwNWnxvT/J2exF9Dx43+FhYXnclaKn3tzW8sKPL/pdj+3yuZ+SkC8lkdFj8aCvFMxcVQposPjYDSY+LrmS4YCFKBACAuIwalGSw1qurahtnc3uvqbpdlUYoBq/x5WLmkPK14U0ILA1PQFuHD6bfzQTgudyRr8IsABLL8wshG1Czg8dry67SFsav5c7aUgTB+Oy2bdj/GpM1Rfi9IKEJ/wPrTiUnQONCktNU3ko4MOYpPSzLgC5CUUSZ82ZsaNgV6n10R9LIICFKAABX5awON1w+aywuo0Y8Blgc3dD7urH922NmkWVaO5Cl22ZoiDVbjkj6+kUBAQW4FcXvoI0mNHh0K5rJECgxLgANagmHhTKAjU9+7BwysvU32pprAo3Hzoi0iKGqX6WpRWgPh099kNt6GiY73SUlN1PmLgKituLMpGn4SCpElIjEhDBE8QVHWfMnkKUIACPyXQ7+qTZk2JAak2az16bO2wunrh9NjgdNulASqHxwaXxw63V+w7yf2p+GoKTYGjCy/AceMv4gd5odn9rPonBDiAxZcGBb4j8FHl3/DR3pdUPfV8QupsLC19gMusAvDK9vq8eHPXk/h635sBaD20mhSnByZGpmFM8lSU5RyPrPjC0AJgtRSgAAU0IODzeaUley6vUxp4crptcHkdcHtc6HP2omugBU3marT1i4GqNlhdZnilQSleFKDAzwmIDduvKXsKadHZhKIABb4jwAEsvhwo8B0Bq6MXf15/AxrMlap1OW7sr3Ds+PNVm7/SE1/f8An+sf0PPF57mB01KmY0ZmQegcLkqUiPzUMMT9QZpiQfowAFKCCPgMNtQ5+jB922VoiT/MRm6VZnLwbcFmnAyulxwOEegNVpkZYAOsR+VB4nvjnfT54sGYUC2hI4b8rNKM05RltFsRoK+EGAA1h+QGQT2hJY2/ARXtn2B9UWtbT0YUxMnana/JWe+N7ObXhq3bWqnqUnp3GY3ogoYyzyEopxZOHZyE8skjP8QWOJjX7FEhXxq5hJIH7gkn6VjlY/8L8DvxfLWMTff7OcRfze6bFD/HA34OrHgLNXml3Q77Sg32WF3dkH24HZCC6PA26vQ5ql4PF5pXhiFoL0q/if9HsfvD7xq4gv/tYj/Z3vwGbEYqmldOn2/3rgTwd+d+DvpF++8++6b57SS7Myv/0X6e/Fn3TQ6XSQdhmT2hV/q//2z2L/MbGZvvg78ateZ5D+Va83wKgPh1EfgfAwE0yGCIQbIvb/GhaFiLAoGA1GadN9sS+f+HX//eEwhonfm/b/u96EMEP4dzOW8tmfx4F8D+Qq/v7b/0n7oumgF3934PfSU9+rS2rh27876MuBN1BAcwLffE3zHPias//XA193pK97+7/O9Qy0odFSjda+OnT1N6Hb0YF+Rw/sHis8Xm6IrrkXBgtStIA4TVyspuBFAQr8UIADWHxVUOB7AmLj0D+vuwl1vbtVZyN+GLzryNcQY0pQXe5qSbijvwn3fXUhxGazvH5aQMysKkqbiwmps1CYNBkJkamyc4mBIDGYJPZXsdi70OfskU4atbv7pRkDYtBILHkRMwlsbnGC1f5lL6Jv3b79v3p8bulXMbAkBp7EYNI3A0ycXeC/Lt0/iGY4MEgmBssMMIjBMmnQLAwGvfhz2P7/0+//PzE4+u2vujBpcG3/feK5/c/s/1X82/8Ovkn3ime+aUe3vz0x2CZ+NRoODLaJXw0maXAu/MBg3Pfj7h9w40UBeQTE4Lb4+iU2OO93mNEvNjt3WSEOGRGzoBxe+4G9o5zffg2T7heD7OLrnxhcF/dJM6fEcj8nP5CRp+sYhQKDEhDfby6adgeK0+cN6n7eRIFQE+AAVqj1OOsdlECzuQYPr7pM2tdBTVdqdDZuP/xlNaWsulzFm/47PjsLNrdFdbkHOmExEyY2PBEL8s7A/PyTIA4U8NclDRZ9OxPq2zlQEMt+a3vKUddbjhZLLXpsrdK+Kw63VZpZxUEmf/UA2/kpgf2z1MRgmQFhYnBNJwbWxOyyb2acRSBcH35gEEwMhEUiQgyIGSNhMkQjIiwSEcYoRBhjEBkWjciwGEQZY2AKizwwg824P/QPxsn+dw7eD/P73wd+cPc3E/p+vHF2+I8KfOcrirSv+P7NxX+4xfj//s1//3Tgfp9XGlASA0liQMnq6oPZ1gmLowsWey+szh70O82wucUsTjHYNLB/g3OvAz6vh1/X+OqkgIYFpqYvwC9n3qnhClkaBUYmwAGskfnxaQ0L/Gvn41hR97aq9joqSJyMq8se13CvKKO0R1b8BnVm9c3QC5Se2NdqfMp0TEiZjfFpM6Qf3Id6iWUsYiZUr70DFof44c0izZRye8SyOwd6bB3SBsBm+/69V8QPfuLvxWwEXhTQusD+pZDSoslvl3Tun1X2zf/9d0aZmIH235lqYlbZ/84u2z/TbP8sM2l5p5h1dmDGmVga+s31PwtVv122+s3f7l96+u1Sz+8u3TywlPOb5ak/do9Y+vndv//BPaKuA8tb//tv0kJXabhI/O+7MyH/d9nvd5YAf7sseP8z3ywD3r+s7sCfv1k2fODvfBDPizhiSTH+OwPTK5YbO+HyOKWvPS6P2LhcLA12wu1xSx94id9LMzil3x/4s0/8+ZtZnGIG5/7lyrwoQAEKfF8gISINV8x9BGnROcShAAV+QoADWHxpUOAnBBrNe/HE2mukqflquSanH4pfz/w/taSr2jxf2HgXtrYuV23+/khc/ECdEz8BJ0z4FfISJ0qzSsQP0we7xKDUvp5y1HTtQou1Gt3iVCqnWVryIn6wE0v2pP1ZpD2g9v8gyiPUD6bKf6eAXALf33/tQNzvLaM8+Nyw700nO7B32w8XY/54S9+f0bR/WOvA///O5KcfzsD8sSfFwz+YIyUXKONQgAIUkATE+6pF4y7GseMuoAgFKPAzAhzA4suDAj8j8FHl3/BB5QuqMSrNXoTzpt6omnzVmui/djyBr+v+rdb0R5R3clQmxiZPxcysozAmabK0v5CYcSBOpTLbO6WZU2Jjc7FpeZetFa2WWnT0N8Pi6ITN1Qe3j3uHjagD+DAFKEABClCAApoTyIwtwKWz70NSZLrmamNBFPCnAAew/KnJtjQnIPY7enLtdarZ0P3QvFNxevFVmusHpRX0wZ6X8NHeF5WWVkDzSY3OwZEFZ2Nc6nRpgKqqczvqzXvQOdAoLfUTe7SIPV2k0/Z8Li6RCWhvsHEKUIACFKAABbQkcO7kG1Cau+jb84K1VBtroYA/BTiA5U9NtqVJgU1NX+Cf2x+UfmhX+nXEmLNx8sQlSk9T9fl9VvUa3q34s+rrGEwBEWHRyE8ohjids2OgETa39cCyvsE8zXsoQAEKUIACFKAABX5OYFLqPFxWeh+R/r+9+4CyqjzbPn6dMn1gGGaAoffepIOAsUZMxFdNNPYuigWNEaPGGGOJvWBDY0+MPbbXHjUqUgcpg9KHNjO0mQGmt1O+tcckr8ln5DBzyt77+Z+1sjTJ3s99X79nL5N1s89zEEAgAgEGWBEgcYnZAtbbJc8uu0Wrdy+yPcSRfU/VcYMvsn2fTm/w08JX9eaaR5weg/4RQAABBBBAAAEEEihg/Xrz+WNvVp/2wxPYBaURcI4AAyzn7BWdJlCgcE+BHl08u/nrUXb+HN7nFB0/hDewYr1HH298SW+vfSzWZVgfAQQQQAABBBBAwMUCY7sepVNHzG7+ZVg+CCCwfwEGWPs34goEmgXeWD1Xf9/0sq01pvY6QScNu8LWPbqhuXfXPqMPNz7nhihkQAABBBBAAAEEEEiAQNuUHM2a9IA6ZnZPQHVKIuBMAQZYztw3uk6AQHntTs1dPFu7a4oSUD2ykuO7TdMZB10b2cVc1WKBVwvmaN62N1p8PzcigAACCCCAAAIImCvgkUcnDL1Mh/b+mbkIJEegBQIMsFqAxi1mCoTCQVlfHXtn3RO2BRjWabJmjLvNtv25pbEn829Uwa4v3BKHHAgggAACCCCAAAJxFOjVbqhmTrhTaUmZcaxKKQScL8AAy/l7SII4CgTDQd37xUwVV62PY9XIS/VuN1S/nMLh4pGLtezKu764UMWVG1p2M3chgAACCCCAAAIIGC1w1kG/1dhuRxhtQHgEWiLAAKslatxjtMDq3Uv03LLfqy5QYzuH9mmdddMRL9quLzc1VNdUo5s++YXqAtVuikUWBBBAAAEEEEAAgTgIDMwdowvG3qoUf1ocqlECAXcJMMBy136SJg4C1i8RPrvsFq3a9WUcqh1YCa/Hp5sOf0nt0joc2I1cHbHAruptuuOL8xQMBSK+hwsRQAABBBBAAAEEELAObp899XFlpeaCgQACLRBggNUCNG5BYNOer/Xo4qvVGKy3HcaFY/+g4XkH264vtzS0rnSZ5i6ZLetMND4IIIAAAggggAACCEQiYB3cfmjvk3T8kJnyeDyR3MI1CCDwHwIMsHgkEGiBgDW8eGftU/q48IUW3B3bW37c9wwdO/iC2BYxePWF297TS6vuUTgcMliB6AgggAACCCCAAAIHIpDiT9fVUx5Tp8weB3Ib1yKAwHcEGGDxOCDQQgHrQPe7v7hI26s2tnCF2NzWt/1IXT7pPllfJ+QTXQFrcPnqqjmav+3t6C7MaggggAACCCCAAAKuFbD+f/mJQy7XIb2Pd21GgiEQDwEGWPFQpoZLBcKat+Vtvf7NQwqG7XMeUqo/Q7On/lEdMrq61D1xsZqCjXp8ybVaX74scU1QGQEEEEAAAQQQQMBRAv1zR+vicbcryZfiqL5pFgG7CTDAstuO0I+jBGoaK3Tf/MtUWlNkm7793iSdP+ZWDe00wTY9uaWR2qYq3fH5+dpXv9stkciBAAIIIIAAAgggEEMB66uDF4y5RQM7jIlhFZZGwAwBBlhm7DMpYyiwsbxAT+Rfr7pAdQyrRL60dUDkUf3O0E8HnSfr7/lETyC/+CM9v+J2hRWO3qKshAACCCCAAAIIIOBageGdpurMUdcp1Z/u2owEQyBeAgyw4iVNHVcLvLDyLi0qes82GQfkjNHMCXfK5/Xbpic3NPJk/o0q2PWFG6KQAQEEEEAAAQQQQCDGAtY3I66Z+qTy2vSMcSWWR8AMAQZYZuwzKWMsUFyxUXMXz1ZV494YV4ps+fSkLP1y8kP8yklkXBFdtb2yUPfNv1SNwfqIruciBBBAAAEEEEAAAXMFfB6/pg04R0f3P8NcBJIjEGUBBlhRBmU5MwVC4ZDeWfu0Pi583jYAR/Q5Tf8zZIZt+nF6I/O2vKlXv37A6THoHwEEEEAAAQQQQCAOAp0ye2jm+LvUPj0vDtUogYAZAgywzNhnUsZBwDrQ/cGFV2pH1eY4VNt/iazUjrri4DnKTe+8/4u54gcFrMPbn8j/jQr3FCCFAAIIIIAAAggggMB+BU4edpWm9Dpuv9dxAQIIRC7AACtyK65EYL8CBTu/1J+X36aGYN1+r43HBacOv0YTex7DYe6txF5ftlzPfHWTapoqWrkStyOAAAIIIIAAAgi4XWBAzmhdOP42pfjS3B6VfAjEVYABVly5KeZ2gdrGSj391U1aX77MFlH7th+pGeP/oDR/hi36cWITwVBAL6y8W/klHzqxfXpGAAEEEEAAAQQQiKNAWlIbzRj3B/VtPzyOVSmFgBkCDLDM2GdSxlFgXelXemTxr+JY8b+Xsv7U58xRN2hE3mRb9OPEJqy3r55ceoPqAzVObJ+eEUAAAQQQQAABBOIocHCPY/XzYbPk9ybHsSqlEDBDgAGWGftMyjgLvLbqQc3b+obCCse58v9fbkD7MZox4TYl+1IT3ovTGqgP1Oqlgnu1bPsnTmudfhFAAAEEEEAAAQTiLJDkTdaVkx9V96x+ca5MOQTMEGCAZcY+kzLOAqU1JXpsya9VWlMc58rfX+4Xw6/SpB4/ldfjs0U/Tmli9e7Fen7F7apu3OeUlukTAQQQQAABBBBAIEEC0wddpKP6nZqg6pRFwP0CDLDcv8ckTJDAxxtf1ttr5yao+r+XzcvspZkT7lJ2Wkdb9OOUJh5bfK1Wly5ySrv0iQACCCCAAAIIIJAggZ7thmjWpPuV5EtJUAeURcD9Agyw3L/HJEyQQEV9mR5e+CvtqtmaoA7+r6z1HfzD+pys6YPOl+RJeD92b8A6uP3zzW/orTVzFVbI7u3SHwIIIIAAAggggEACBbwer04ZMVsTuk/j178TuA+Udr8AAyz37zEJEyiwdne+Hsu/VqFwMIFdfFvaGmJdMPYWDek4IeG92L2BkoqNejz/Ou2rL7V7q/SHAAIIIIAAAgggkGAB65e/L5t4r3xef4I7oTwC7hZggOXu/SVdggWsN3n+tPwPWr7j0wR38m353tnDdcZB16pDRldb9GPHJuqaqvVCwT0q2PG5LQ7ht6MRPSGAAAIIIIAAAgh8K5CR1FYzJ9yjHu0GQIIAAjEWYIAVY2CWR2BD2Qo9uvhqBcOBhGNYh7gf3GO6Th5+ZcJ7sWMD1sDxow0v6G+FzysQarRji/SEAAIIIIAAAgggYCOBqb1O1EnDZtmoI1pBwL0CDLDcu7cks5HAKwVz9OW2N2zRUZI3RdMHz9CUntObv1bI51uBsMJavv1zPb/iNgVCTbAggAACCCCAAAIIIPCDAu1SO2rmhDvVuU1vpBBAIA4CDLDigEwJBKob9+nBBVdqZ/UWW2C0TcnRz4deoYO6HGKLfuzQxOa9q/Xiyru1s3qzHdqhBwQQQAABBBBAAAGbC0wfNENH9D1F1iHufBBAIPYCDLBib0wFBJoFPt/8V725eq4tvkpo9ZOX2Vtnjrpe3dr2k8dj7i8TWm9elVQW6oWVd6u4Yh1PKwIIIIAAAggggAAC+xXokz1cV05+aL/XcQECCERPgAFW9CxZCYEfFKhq2Nv8y3bb9q21jZQ1xDp1xNXq1X6IsT/5u6t6m17/5hGtKV1sm32hEQQQQAABBBBAAAH7CqT6M3T6QddqZN5U+zZJZwi4UIABlgs3lUj2Ffh61yI9kX+drX7drmvb/jpvzO/UIaObfeFi1FlpTYleLXhAa8vzY1SBZRFAAAEEEEAAAQTcJjAgZ7QuHHebUvxpbotGHgRsLcAAy9bbQ3NuFHh+xR1aUvyBraJ1aztAJwyZqb45I2T9UqEJn2371uudtU9qbdkSE+KSEQEEEEAAAQQQQCAKAulJbTVzwl3q2W5QFFZjCQQQOBABBlgHosW1CERBoKhigx5fcp0qG8qisFr0lshN76YTh16mYZ0mRm9Rm65UuGeVXv/mYRVXrLfV23A25aItBBBAAAEEEEAAgX8IHNX3dE0ffIEkc8+Q5WFAIFECDLASJU9dYwWCoYDeXPOYPt/8mu0MslM76bA+J2tSj2OU4k+3XX+tbagp2KhVO7/Uu+ufUWlNUWuX434EEEAAAQQQQAABgwTyMnvpkon3qF1qrkGpiYqAfQQYYNlnL+jEIIG6pmrdO+8S7a7dZrvUyb5Uje36Y03rf5bapbnnf5ytQ/Q/3/S6vtj6uuoDNbZzpyEEEEAAAQQQQAABewucOOQy/aj3ifJ4vPZulO4QcKkAAyyXbiyx7C+wpOhDvbzqXjWFGm3ZbL/2o/Tj/qc3n4uV5E22ZY+RNBUINaq8dqfeWv24VpcuUigcjOQ2rkEAAQQQQAABBBBA4F8C3bL667KJ9ys9KRMVBBBIkAADrATBUxaB2qYqPZH/GxXuKbAlhkceZaZkN7+N9aNex6t9ep4t+/yhpmqbqjVv8xtasO1/tbd+t+P6p2EEEEAAAQQQQACBxAtYB7dfMuEu9eDg9sRvBh0YLcAAy+jtJ3yiBb7ZtUhPfnWDrHOx7Pzp0qavjuh7ioZ1mqTUpAxZwy07f+oDtdpQtkKfbnpFhXtW2LlVekMAAQQQQAABBBCwucDYrkfptJHXyO9NsnmntIeAuwUYYLl7f0lncwFrcPVSwb1aXPy+zTtV86HufbKHaVy3aRrcYYwykrNs13NDsE4bylZq4bZ3mwdX1ltufBBAAAEEEEAAAQQQaI3ArybPVc/swa1ZgnsRQCAKAgywooDIEgi0RsAastw97yKV125vzTJxvbd3u2E6pPcJGpE3RT5vkrwJPMgyHA4rEGrSuvJlmrfpDa0rX8o5V3F9GiiGAAIIIIAAAgi4U8D61sGP+52lnw46150BSYWAwwQYYDlsw2jXfQLWoeIfrP+zPtjwrKPC+b3Jsr5aOLDDGA3KHaOuWf2UntQmbhkag/UqrijUhvJlWrM7X1v3rVEw3BS3+hRCAAEEEEAAAQQQcLdA96yBmjXpAaX409wdlHQIOESAAZZDNoo23S1QUV+mWz87Sw2BWscFtf5kyuv1KTetiw7qfKiG502W9SstsXora0fVVn29c4FW7Pxc26sKFQoFFFbYcW40jAACCCCAAAIIIGBfAeu8q9NHXqcxXQ+3b5N0hoBhAgywDNtw4tpXoGDnfP1p+S2y3ixy8sd6M6tjRnfltemlzm16q0ubPspMaaeM5LbNb2il+tN/8ABM61yw+kCN6ppqVNNUqeqGfdpRtUU7qzdrZ+VW7azZ4ngjJ+8vvSOAAAIIIIAAAiYI9M4epgvH3aZMG577aoI/GRH4PgEGWDwXCNhEIBwO6cmlN2rVri9t0lHr27DezvL7kpXkTW4eWlnnZSX7UtQmOUdpSRlK9qbJ4/EqrJACoYbmoVVV41dBEogAACAASURBVJ7mN9ECoUDz2VaBUKOagg28ZdX67WAFBBBAAAEEEEAAgQgEvF6/rpg4R73bD43gai5BAIF4CTDAipc0dRCIQGBD2Qr9Mf86Wb+mxwcBBBBAAAEEEEAAAQTiK2D94eohPU/Qz4ZdHt/CVEMAgf0KMMDaLxEXIBA/AeuNo1cK7tei4vfiV5RKCCCAAAIIIIAAAggg0CyQlZqri8ffqa5t+yKCAAI2E2CAZbMNoR0EKurLdd+XM7W3fjcYCCCAAAIIIIAAAgggEEeBn/Q/T9MGnhXHipRCAIFIBRhgRSrFdQjEUeDLLW/r9dUPN5//xAcBBBBAAAEEEEAAAQRiL9A9a6AumXCXMji4PfbYVECgBQIMsFqAxi0IxFpgX32ZHl08WzurNse6FOsjgAACCCCAAAIIIGC8QJI3RWeP+q1GdJ5ivAUACNhVgAGWXXeGvowXWL79Mz2z7CbjHQBAAAEEEEAAAQQQQCDWAsM7TdWZo65Vqj8j1qVYHwEEWijAAKuFcNyGQDwEnl12s5Zt/zQepaiBAAIIIIAAAggggICxArMmzVG/nJHG5ic4Ak4QYIDlhF2iR2MFtu1bqz/m/0aVDeXGGhAcAQQQQAABBBBAAIFYChza+2SdOPSSWJZgbQQQiIIAA6woILIEArESCIVDemv14/r75pdjVYJ1EUAAAQQQQAABBBAwViAvs5cunXiPslJzjTUgOAJOEWCA5ZSdok9jBUprSvTgwitVUV9qrAHBEUAAAQQQQAABBBCIhcBxgy7S4X1/Ia/HG4vlWRMBBKIowAAripgshUCsBBYVfaCXCu6S9UYWHwQQQAABBBBAAAEEEGi9QJfMvrpyyoMc3N56SlZAIC4CDLDiwkwRBFonUB+o1VNLb9S6sqWtW4i7EUAAAQQQQAABBBBAQMm+VF049jYN7DAGDQQQcIgAAyyHbBRtmi0QVlgrd8zT01/daDYE6RFAAAEEEEAAAQQQiILA6C6H66xRN/DVwShYsgQC8RJggBUvaeogEAWBp/J/p5W7Po/CSiyBAAIIIIAAAggggICZAqn+DM0cf5d6tx9qJgCpEXCoAAMsh24cbZspYB3o/siiq7SnbpeZAKRGAAEEEEAAAQQQQKCVAof1OVnHDZ4hn8ffypW4HQEE4inAACue2tRCoJUC1lcJ31nzlD4u/Iusv+eDAAIIIIAAAggggAACkQvkZfbR9Yc+HfkNXIkAArYRYIBlm62gEQQiEyiv3aFHFl2tstqSyG7gKgQQQAABBBBAAAEEEFCSN1knDr1ck3tORwMBBBwowADLgZtGywgsKfpQz6+8HQgEEEAAAQQQQAABBBCIUKBLmz66fNL9ykjOivAOLkMAATsJMMCy027QCwIHIPD4kuv1ze4FB3AHlyKAAAIIIIAAAgggYKZAii9N54+9RYM6jDUTgNQIuECAAZYLNpEIZgqsLV2qZ5bdpLqmajMBSI0AAggggAACCCCAQIQCk7ofq1NGXCWPxxvhHVyGAAJ2E2CAZbcdoR8EIhRoCjbo+ZV3avn2TyO8g8sQQAABBBBAAAEEEDBPIDutky6ZcLc6ZfYwLzyJEXCRAAMsF20mUcwT2FtXqgcWXKa9dbvMC09iBBBAAAEEEEAAAQQiEDiy7+n66cBz5fP6I7iaSxBAwK4CDLDsujP0hUCEAp8UvqT/XfuEQuFghHdwGQIIIIAAAggggAACZgjkpHfWrybPVWZKOzMCkxIBFwswwHLx5hLNDIF99WWau/ga7ajaZEZgUiKAAAIIIIAAAgggEIFAij9dZx30Gw3PmxzB1VyCAAJ2F2CAZfcdoj8EIhBYUvSR/rLydoUVjuBqLkEAAQQQQAABBBBAwP0CA3PH6vyxNyvVn+7+sCREwAABBlgGbDIR3S9gHej+zFc36+vd890floQIIIAAAggggAACCEQgcMmEezSow9gIruQSBBBwggADLCfsEj0iEIFAaU2x5iy4QpUN5RFczSUIIIAAAggggAACCLhXYHKP43Ty8Cvl8XjdG5JkCBgmwADLsA0nrnsFAqFG/fWbhzV/69vuDUkyBBBAAAEEEEAAAQT2I9Aho5tmTXpAWam5WCGAgIsEGGC5aDOJgsCu6iLdNe9CNQXrwUAAAQQQQAABBBBAwDgB642r4wfP1KF9fi6PPMblJzACbhZggOXm3SWbkQJfbnlbf139kIKhJiPzExoBBBBAAAEEEEDAXIGc9C6aNWmOstM6mItAcgRcKsAAy6UbSyxzBRoCdXpsybUq3LPSXASSI4AAAggggAACCBgn4PX4dOHY2zS000TjshMYARMEGGCZsMtkNE5g5Y55embZTQqFg8ZlJzACCCCAAAIIIICAeQLW1wVHdTlC54y+wbzwJEbAEAEGWIZsNDHNErDewnrmq99rdekis4KTFgEEEEAAAQQQQMBIgbSkzOa3r/rljDQyP6ERMEGAAZYJu0xGIwXKa3fq7nkzVNtUaWR+QiOAAAIIIIAAAgiYIzClx/E6ecSV5gQmKQIGCjDAMnDTiWyOwHvrntVHG//MVwnN2XKSIoAAAggggAACxgl0yOiuyyfep3Yc3G7c3hPYLAEGWGbtN2kNEyitLtYDC2epqmGPYcmJiwACCCCAAAIIIGCCgHVw+0nDrtTkntNNiEtGBIwWYIBl9PYT3gSBL7e8pVe+vt+EqGREAAEEEEAAAQQQMEygT/vhOn/MzWqTkm1YcuIiYJ4AAyzz9pzEhgkEQk3645LrtbYs37DkxEUAAQQQQAABBBBwu8D5Y27VyM5T3B6TfAggIIkBFo8BAgYIrNmdr+eW36zapioD0hIRAQQQQAABBBBAwASBcV2P1pmjrjMhKhkRQIABFs8AAmYINIUa9eKKe7V0+4dmBCYlAggggAACCCCAgKsFslM7acb429W1bR9X5yQcAgj8nwBvYPE0IGCIQElloR5ceIXqmqoNSUxMBBBAAAEEEEAAAbcKHNbnZB03aIZ8Xr9bI5ILAQT+Q4ABFo8EAgYJ/G3DX/TOuicVVtig1ERFAAEEEEAAAQQQcJNAblpXXTH5QWWl5rgpFlkQQGA/AgyweEQQMEigsmGPHl9yrYoq1huUmqgIIIAAAggggAACbhHwenw6Y+R1GtvtSLdEIgcCCEQowAArQiguQ8ANAuFwWAu2vauXV93jhjhkQAABBBBAAAEEEDBMYGDuWF047lYl+1INS05cBBBggMUzgICBAg8t+KU27FluYHIiI4AAAggggAACCDhZ4OJxd2hIp4lOjkDvCCDQQgEGWC2E4zYEnCywee9qPZF/vaob9zk5Br0jgAACCCCAAAIIGCQwuvOROmPUr+X3JhmUmqgIIPBPAQZYPAsIGCgQDAX0yqr7tbDoXQPTExkBBBBAAAEEEEDAaQI5aV103aFP89VBp20c/SIQRQEGWFHEZCkEnCRQUrlJDy28QrVNVU5qm14RQAABBBBAAAEEDBOwDm6f1v9sTRtwlmHJiYsAAt8VYIDF84CAoQJhhfX3wlf05pq5hgoQGwEEEEAAAQQQQMAJAu3SOuqXBz+s7LSOTmiXHhFAIEYCDLBiBMuyCDhF4IH5s7Rpb4FT2qVPBBBAAAEEEEAAAYME/N5knTbyWo3terhBqYmKAALfJ8AAi+cCAcMFlpZ8ohdX3qmmUKPhEsRHAAEEEEAAAQQQsJvAiLxDdO6Y38nn8dmtNfpBAIE4CzDAijM45RCwm0BDoE5zF1+rTXtX2q01+kEAAQQQQAABBBAwWCAjKUsXjb9dvbKHGKxAdAQQ+KcAAyyeBQQQ0I7KzXp40VWqatyLBgIIIIAAAggggAACthCY2O0YnTT8SiX5UmzRD00ggEBiBRhgJdaf6gjYRuDN1XP16aaXbdMPjSCAAAIIIIAAAgiYK5CZlKVrfvSU2qXmmotAcgQQ+DcBBlg8EAgg0Cywu7pIjy6+WnvqdiGCAAIIIIAAAggggEDCBJK8yTpx6OWa3HN6wnqgMAII2E+AAZb99oSOEEiIQFhh/b3wVb255tGE1KcoAggggAACCCCAAAKWQLesAbp4/J1qm5INCAIIIPAvAQZYPAwIIPAvgW8PdL9Gm/auQgUBBBBAAAEEEEAAgYQInDPqdxrd9bCE1KYoAgjYV4ABln33hs4QSIjAxvICPbn0N6ptqkpIfYoigAACCCCAAAIImCswIu8QnTP6t/J7k8xFIDkCCHyvAAMsHgwEEPg3gfpArZ5fcbsKds5DBgEEEEAAAQQQQACBuAlkpeTqkgn3qHPbXnGrSSEEEHCOAAMs5+wVnSIQN4Ft+9bqgQWzFAg1xq0mhRBAAAEEEEAAAQTMFjiy7+k6dtB58np8ZkOQHgEEvleAARYPBgIIfK/A++ue04cbn1MoHEIIAQQQQAABBBBAAIGYCqT6M3T1lMfUMbN7TOuwOAIIOFeAAZZz947OEYipQGXDnuYD3UsqN8a0DosjgAACCCCAAAIImC3g9Xj1i+HXaFKPaWZDkB4BBH5QgAEWDwgCCPxXgQVb39FLq+5BCAEEEEAAAQQQQACBmAkMyh2niyfcwVcHYybMwgi4Q4ABljv2kRQIxESgprFSjy6eraKKdTFZn0URQAABBBBAAAEEzBawfm3wnNG/04i8KWZDkB4BBPYrwABrv0RcgIDZAiUVhbp/waVqDNabDUF6BBBAAAEEEEAAgagLjOx0iM4be5M8Hm/U12ZBBBBwlwADLHftJ2kQiLpAOBzSK1/P0YKtbyuscNTXZ0EEEEAAAQQQQAABMwWyUnJ12aT71YmD2818AEiNwAEKMMA6QDAuR8BEgaJ96zVn4SzewjJx88mMAAIIIIAAAgjEQMB642pa/7N1zICzY7A6SyKAgBsFGGC5cVfJhEAMBN5b95w+2PBMDFZmSQQQQAABBBBAAAHTBDpl9tJF429Xbnpn06KTFwEEWijAAKuFcNyGgGkC9YFaPbLwKm2tWGtadPIigAACCCCAAAIIRFnglBGzNanHT+SRJ8orsxwCCLhVgAGWW3eWXAjEQGBpycd6seBuNQUbYrA6SyKAAAIIIIAAAgiYIDCk4yRdPP52E6KSEQEEoijAACuKmCyFgNsF6gI1embp77W2bInbo5IPAQQQQAABBBBAIAYCGclZOnf0TRqQOyoGq7MkAgi4WYABlpt3l2wIxECgcM/XenjRLxUMNcVgdZZEAAEEEEAAAQQQcLPAmC5H6rSR1yjJl+zmmGRDAIEYCDDAigEqSyLgdoHXv35En215TVLY7VHJhwACCCCAAAIIIBAlgazUXF0+8X51zOwepRVZBgEETBJggGXSbpMVgSgJlNYU69HFs1VeuyNKK7IMAggggAACCCCAgNsFjh9yqQ7vc5LbY5IPAQRiJMAAK0awLIuAmwVC4ZA+3/xXvbH6ETfHJBsCCCCAAAIIIIBAlAT6ZI/QheNuVUZy2yityDIIIGCaAAMs03acvAhESSAQatKT+b/V6tJFUVqRZRBAAAEEEEAAAQTcKnD+mFs0ovMUeeRxa0RyIYBAjAUYYMUYmOURcLNAUcUGPZF/nfbVl7k5JtkQQAABBBBAAAEEWiEwqfuxOnXk1a1YgVsRQAABiQEWTwECCLRYIBQO6qMNf9F7659u8RrciAACCCCAAAIIIOBegc6ZvXXpxHvUNjXHvSFJhgACcRFggBUXZoog4F6Bqoa9mrNwlnZXF7k3JMkQQAABBBBAAAEEDljA4/HqpGFXanLP6Xx18ID1uAEBBP5TgAEWzwQCCLRaoLhig+YuvkZVjXtbvRYLIIAAAggggAACCLhDYEDOaJ0/9malJWW6IxApEEAgoQIMsBLKT3EE3CFg/SrhW2se02ebXlVYYXeEIgUCCCCAAAIIIIBAiwXapuRo1qQH1DGze4vX4EYEEEDguwIMsHgeEEAgKgLWVwmfXXazNpQvj8p6LIIAAggggAACCCDgTIEkX4p+NuRyHdzzWGcGoGsEELClAAMsW24LTSHgTIG6phrdNW+GymtLnBmArhFAAAEEEEAAAQRaLTC+6zE6fdQ1nHvVakkWQACB7wowwOJ5QACBqAosLv5Qr666X43B+qiuy2IIIIAAAggggAAC9hfonT1MF4y9WW1S2tu/WTpEAAFHCTDActR20SwC9hcIhYN685vH9NmWV+3fLB0igAACCCCAAAIIRE3AOvfqwnG3qWe7QVFbk4UQQACBfwowwOJZQACBqAs0BOv01NIbtbY0P+prsyACCCCAAAIIIICA/QS8Hp9OGHKpDul1gjwej/0apCMEEHC8AAMsx28hARCwp0BxxQY9sfQG7a3bZc8G6QoBBBBAAAEEEEAgagJTe56o44derCRvctTWZCEEEEDguwIMsHgeEEAgZgJrdufrzytuU3XjvpjVYGEEEEAAAQQQQACBxAqMyJui00b+WulJbRLbCNURQMDVAgywXL29hEMg8QKrds7XX1beqdqmysQ3QwcIIIAAAggggAACURXo236kzhl9o7JSc6K6LoshgAAC/ynAAItnAgEEYi7wSeHLenvt4wqHQzGvRQEEEEAAAQQQQACB+AjkpHfR1VMfU0ZS2/gUpAoCCBgtwADL6O0nPALxE/hww5/07rqn41eQSggggAACCCCAAAIxFbh4/J0a3HG8POLQ9phCszgCCDQLMMDiQUAAgbgIBMNBvVJwnxYWvRuXehRBAAEEEEAAAQQQiI2A9YuDM8bdriEdx8emAKsigAAC3yPAAIvHAgEE4iZQ21SlN1Y/osVFH8StJoUQQAABBBBAAAEEoifg9ybpmAHn6qh+p0VvUVZCAAEEIhBggBUBEpcggED0BELWm1ir7teCbe9Eb1FWQgABBBBAAAEEEIiLwPRBF+uIvifL6/HGpR5FEEAAgX8KMMDiWUAAgbgLWG9ivfb1HC0t+TjutSmIAAIIIIAAAgggcOACyb5UHd3/bB3V79QDv5k7EEAAgSgIMMCKAiJLIIDAgQs0BRv05pq5mrflzQO/mTsQQAABBBBAAAEE4iowfdBFOqzPz2V9hZAPAgggkAgBBliJUKcmAgg0C9QFavRywb1atv1TRBBAAAEEEEAAAQRsKJDiS9OP+5/Fm1c23BtaQsA0AQZYpu04eRGwmUB9oFbvrntKn2/+q806ox0EEEAAAQQQQACB6YNm6NDeP1eSLxkMBBBAIKECDLASyk9xBBCwBIKhgF775kEtLnpfgVATKAgggAACCCCAAAIJFkjxp+u4gTM0tffxCe6E8ggggMC3AgyweBIQQMAWAuFwSEuKP9Jbax5TdeM+W/REEwgggAACCCCAgKkCZx50g0Z3PUw+j89UAnIjgIDNBBhg2WxDaAcB0wVW71qsp5bdKOuQdz4IIIAAAggggAAC8RVok5Kjyybcq85te8W3MNUQQACB/QgwwOIRQQAB2wlsLF+pl1fdp13VW23XGw0hgAACCCCAAAJuFejWdqBOGfkr9cga4NaI5EIAAQcLMMBy8ObROgJuFiiu2KgHFlymxmC9m2OSDQEEEEAAAQQQsIVAv/YH6dJJ9/KVQVvsBk0ggMD3CTDA4rlAAAHbCuyuKda7a59Wwa55CnK4u233icYQQAABBBBAwLkCfm+yRnY+RP8z+GK1S811bhA6RwAB1wswwHL9FhMQAWcLNAbq9UnhK3p/w9PODkL3CCCAAAIIIICAzQTS/Jk6duCFmthjmpJ8KTbrjnYQQACBfxdggMUTgQACjhBYVPS+PtzwJ5XX7nBEvzSJAAIIIIAAAgjYWaBDRnedOORSDek4QR6Px86t0hsCCCDQLMAAiwcBAQQcIRAKB7Wjaote+/pBFe5Z6YieaRIBBBBAAAEEELCjwOCOE3TCkEuUl9nTju3REwIIIPC9AgyweDAQQMBRAnVN1Xqx4B6t3r1QjcEGR/VOswgggAACCCCAQCIFUvxpmtjtWB0z8GylJ2UmshVqI4AAAgcs4AmFQuEDvosbEEAAgQQKWEOs1aVL9N66p1VWW5LATiiNAAIIIIAAAgg4QyAnvauO6X+WxnQ9Ul6P1xlN0yUCCCDwHQEGWDwOCCDgWIHS6mK98s2D2rRnhQL8SqFj95HGEUAAAQQQQCB2An5vkoZ0nKRTR8zmravYMbMyAgjEQYABVhyQKYEAArETsL5GuKToQ32y6UXtqdsZu0KsjAACCCCAAAIIOEygU0ZPHd73FI3Mm6q0pAyHdU+7CCCAwL8LMMDiiUAAAVcIVDXs1fPL79DasiWuyEMIBBBAAAEEEECgNQIDcsfr9INmq11qbmuW4V4EEEDANgIMsGyzFTSCAAKtFbDOxlpY9L4WbH1bpTXFrV2O+xFAAAEEEEAAAccJdMjopkN7n6Rx3Y6SdWg7HwQQQMAtAgyw3LKT5EAAgWaBcDikPXW79NaaP2rljs9QQQABBBBAAAEEjBEY1/Vo/WTgucpO6yAPB7Ubs+8ERcAUAQZYpuw0OREwTCAYCmppyd/06aZXtKNqs2HpiYsAAggggAACpgj4vEnq2qaPjux7moZ3niyfx2dKdHIigIBhAgywDNtw4iJgkkBYYVXWl+uTwlc0f+tbago1mhSfrAgggAACCCDgcoEkb4p+OvB8je92lDJT2rk8LfEQQMB0AQZYpj8B5EfAEIFvdi3SO+ue0q7qbQowyDJk14mJAAIIIICAOwVSfGka3GG8jup/urpn9XdnSFIhgAAC/yHAAItHAgEEjBGoqC+TNcj6uPBFldVuNyY3QRFAAAEEEEDALQIe9W0/XIf1PkkDO4zhkHa3bCs5EEAgIgFPMBgMR3QlFyGAAAIuEahtrNRHG59XfsnfVN1Y4ZJUxEAAAQQQQAABtwp4PT5lJLfV0f3O0oTuRyvZl+rWqORCAAEE/qsAAyweDgQQMFIgGA5qe+UmLdj2jlbu/EI1jfuMdCA0AggggAACCNhbICetiyb1+IlGdTlcuemd7d0s3SGAAAIxFGCAFUNclkYAAWcIlFQW6s1v5mrj3hUKhYPOaJouEUAAAQQQQMDFAh75vX6N6zpNJw+/QtYbWHwQQAAB0wUYYJn+BJAfAQSaBcLhsFbvXqL8kg+1sXyFqhr3IoMAAggggAACCMRdIDstT8M6TdKovMPUq/0Q+RhexX0PKIgAAvYUYIBlz32hKwQQSJBAMBRQee12fVL4qhYVv5OgLiiLAAIIIIAAAqYJpPkzNaXn8Tqi7y+aD2fnrSvTngDyIoDA/gQYYO1PiP8eAQSMFdi2b70WF72n9WXLVFZbolA4ZKwFwRFAAAEEEEAgNgJd2/bTyLwfaVSXQ9Uxs1tsirAqAggg4AIBTyAQ4FcIXbCRREAAgdgIWG9kVTSUa9XOLzV/27vaXb0lNoVYFQEEEEAAAQSMEuieNUhTex6vwR3HKTM5Sx6P16j8hEUAAQQOVIAB1oGKcT0CCBgrYB3wvmL7F5q/7W2V1hSrqmGPwuLPAIx9IAiOAAIIIIDAAQhYA6p2qR3Uq91Qje16pAbkjlaSL/kAVuBSBBBAwGwBBlhm7z/pEUCgBQKNwXqV1WzXql3ztazkU+2s2dqCVbgFAQQQQAABBEwRsN62GtvlCA3qOE45aXkMrkzZeHIigEBUBRhgRZWTxRBAwDSB+kCtCnbM0+KSj7SrarNqm6oVDAdMYyAvAggggAACCHxHwOfxKz2pjTpl9tQhvU7UyM5T8EEAAQQQaKWAp6mpie+/tBKR2xFAAIFAqEm7q4tUXLlR3+xapPXly1TXVAUMAggggAACCBgk0CYlW/1yRmpgzhj1yB6iDuldeNvKoP0nKgIIxFaAAVZsfVkdAQQMFWgI1mvJtg80v+hdldcUKxAOKMyvGBr6NBAbAQQQQMCtAta5Vn6PX3mZfTSxxzQd1PlHykhu69a45EIAAQQSKsAAK6H8FEcAAbcLWG9mlVQUqrhygzaUL1dxRaHKaovdHpt8CCCAAAIIuFbA701Wp4ye6ty2l3q2G6yeWQPVuW1vJflSXJuZYAgggIAdBDyNjY18hdAOO0EPCCDgegHrVwytfxXt26hFRe8pf/uHCof5R7DrN56ACCCAAAKuELCGVhO7H6OhnSYpO62jvB6fvB6vK7IRAgEEEHCCAAMsJ+wSPSKAgCsFgqGACvcUaMu+NSqtKVZFfZkq6sub/9oQrHVlZkIhgAACCCBgd4E0f2bzgKpdWke1T+uk7lkD1Sd7mHIyOssjj93bpz8EEEDAtQIMsFy7tQRDAAEnCVhvZjUFG9T4j3+V1ZRo67412rx3rbZXblBFQ5mT4tArAggggAACjhGwhlI92w1V/5wR6pszQh0yuivFn6ZkX6qS+VqgY/aRRhFAwP0CnoaGBr6/4v59JiECCDhcoK6pWmW121VWs0PWcMs6R2tffZkag/UKhgOy3uYKhoP/+GtAodC3fx8W/4h3+NbTPgIIIIBAhALWV/p8Xr98//ir1+P/9t97ffJ7kpTqT1dWagdlp3ZSdrr1hlWHb9+0Su3QfA8fBBBAAAF7CzDAsvf+0B0CCCDwXwWsA+Ktt7aswZX1Bpc1sPrnOVvB0Lf/GQMsHiAEEEAAAVMErPOomodW1tlUXut8Kt+3w6zmgVZS8yHrnFllytNATgQQcKOAp76+nj+ed+POkgkBBBBAAAEEEEAAAQQQQAABBBBwiQADLJdsJDEQQAABBBBAAAEEEEAAAQQQQAABtwowwHLrzpILAQQQQAABBBBAAAEEEEAAAQQQcImAp66ujq8QumQziYEAAggggAACCCCAAAIIIIAAAgi4UYABlht3lUwIIIAAAggggAACCCCAAAIIIICAiwQ8tbW1vIHlog0lCgIIIIAAAggggAACCCCAAAIIIOA2AQZYbttR8iCAAAIIIIAAAggggAACCCCAAAIuE/DU1NTwBpbLNpU4CCCAAAIIIIAAAggggAACCCCAgJsEPNXV1Qyw3LSjZEEAAQQQzmgJ5AAAABdJREFUQAABBBBAAAEEEEAAAQRcJvD/ABtUJVDaAlblAAAAAElFTkSuQmCC;" vertex="1" parent="aiUlM5cSQ0hNtCzgjPbG-768">
          <mxGeometry x="16.34560747663553" y="5" width="28.82" height="25.05" as="geometry" />
        </mxCell>
        <mxCell id="aiUlM5cSQ0hNtCzgjPbG-769" value="" style="group" vertex="1" connectable="0" parent="aiUlM5cSQ0hNtCzgjPbG-768">
          <mxGeometry x="24.350000000000023" y="50.25" width="149" height="49.5" as="geometry" />
        </mxCell>
        <mxCell id="aiUlM5cSQ0hNtCzgjPbG-770" value="" style="strokeColor=#dddddd;shadow=1;strokeWidth=1;rounded=1;absoluteArcSize=1;arcSize=14;labelPosition=center;verticalLabelPosition=middle;align=center;verticalAlign=bottom;spacingLeft=0;fontColor=#999999;fontSize=12;whiteSpace=wrap;spacingBottom=2;html=1;" vertex="1" parent="aiUlM5cSQ0hNtCzgjPbG-769">
          <mxGeometry width="140" height="49.5" as="geometry" />
        </mxCell>
        <mxCell id="aiUlM5cSQ0hNtCzgjPbG-771" value="" style="sketch=0;html=1;aspect=fixed;strokeColor=none;shadow=0;fillColor=#3B8DF1;verticalAlign=top;labelPosition=center;verticalLabelPosition=bottom;shape=mxgraph.gcp2.gear" vertex="1" parent="aiUlM5cSQ0hNtCzgjPbG-769">
          <mxGeometry x="12" y="10.75" width="29.75" height="29.75" as="geometry" />
        </mxCell>
        <mxCell id="aiUlM5cSQ0hNtCzgjPbG-772" value="API Gateway" style="text;html=1;align=center;verticalAlign=middle;resizable=0;points=[];autosize=1;strokeColor=none;fillColor=none;" vertex="1" parent="aiUlM5cSQ0hNtCzgjPbG-769">
          <mxGeometry x="44" y="9.75" width="90" height="30" as="geometry" />
        </mxCell>
        <mxCell id="aiUlM5cSQ0hNtCzgjPbG-725" value="Database" style="strokeColor=#dddddd;shadow=1;strokeWidth=1;rounded=1;absoluteArcSize=1;arcSize=2;labelPosition=center;verticalLabelPosition=middle;align=center;verticalAlign=bottom;spacingLeft=0;fontColor=#999999;fontSize=12;whiteSpace=wrap;spacingBottom=2;html=1;" vertex="1" parent="1">
          <mxGeometry x="670" y="260.5" width="70" height="99.5" as="geometry" />
        </mxCell>
        <mxCell id="aiUlM5cSQ0hNtCzgjPbG-726" value="" style="sketch=0;dashed=0;connectable=0;html=1;fillColor=#757575;strokeColor=none;shape=mxgraph.gcp2.database;part=1;" vertex="1" parent="aiUlM5cSQ0hNtCzgjPbG-725">
          <mxGeometry x="0.5" width="50" height="45" relative="1" as="geometry">
            <mxPoint x="-25" y="12.5" as="offset" />
          </mxGeometry>
        </mxCell>
        <mxCell id="aiUlM5cSQ0hNtCzgjPbG-727" value="User Interface" style="strokeColor=#dddddd;shadow=1;strokeWidth=1;rounded=1;absoluteArcSize=1;arcSize=2;labelPosition=center;verticalLabelPosition=middle;align=center;verticalAlign=bottom;spacingLeft=0;fontColor=#999999;fontSize=12;whiteSpace=wrap;spacingBottom=2;html=1;" vertex="1" parent="1">
          <mxGeometry x="450" y="370" width="70" height="99" as="geometry" />
        </mxCell>
        <mxCell id="aiUlM5cSQ0hNtCzgjPbG-728" value="" style="sketch=0;dashed=0;connectable=0;html=1;fillColor=#757575;strokeColor=none;shape=mxgraph.gcp2.application;part=1;" vertex="1" parent="aiUlM5cSQ0hNtCzgjPbG-727">
          <mxGeometry x="0.5" width="50" height="40" relative="1" as="geometry">
            <mxPoint x="-25" y="15" as="offset" />
          </mxGeometry>
        </mxCell>
        <mxCell id="aiUlM5cSQ0hNtCzgjPbG-729" value="Funds" style="strokeColor=#dddddd;shadow=1;strokeWidth=1;rounded=1;absoluteArcSize=1;arcSize=2;labelPosition=center;verticalLabelPosition=middle;align=center;verticalAlign=bottom;spacingLeft=0;fontColor=#999999;fontSize=12;whiteSpace=wrap;spacingBottom=2;html=1;" vertex="1" parent="1">
          <mxGeometry x="570" y="260.5" width="70" height="99" as="geometry" />
        </mxCell>
        <mxCell id="aiUlM5cSQ0hNtCzgjPbG-730" value="" style="sketch=0;dashed=0;connectable=0;html=1;fillColor=#757575;strokeColor=none;shape=mxgraph.gcp2.application;part=1;" vertex="1" parent="aiUlM5cSQ0hNtCzgjPbG-729">
          <mxGeometry x="0.5" width="50" height="40" relative="1" as="geometry">
            <mxPoint x="-25" y="15" as="offset" />
          </mxGeometry>
        </mxCell>
        <mxCell id="aiUlM5cSQ0hNtCzgjPbG-733" style="edgeStyle=orthogonalEdgeStyle;rounded=0;html=1;labelBackgroundColor=none;startFill=1;startSize=4;endArrow=blockThin;endFill=1;endSize=4;jettySize=auto;orthogonalLoop=1;strokeColor=#4284F3;strokeWidth=2;fontSize=12;fontColor=#000000;align=center;dashed=0;exitX=1;exitY=0.5;exitDx=0;exitDy=0;" edge="1" parent="1" source="aiUlM5cSQ0hNtCzgjPbG-729">
          <mxGeometry relative="1" as="geometry">
            <mxPoint x="1050" y="380" as="sourcePoint" />
            <mxPoint x="670" y="310" as="targetPoint" />
          </mxGeometry>
        </mxCell>
        <mxCell id="aiUlM5cSQ0hNtCzgjPbG-734" value="#1" style="edgeStyle=orthogonalEdgeStyle;rounded=0;html=1;labelBackgroundColor=none;startFill=1;startSize=4;endArrow=blockThin;endFill=1;endSize=4;jettySize=auto;orthogonalLoop=1;strokeColor=#4284F3;strokeWidth=2;fontSize=12;fontColor=#000000;align=center;dashed=0;entryX=0;entryY=0.5;entryDx=0;entryDy=0;" edge="1" parent="1" source="aiUlM5cSQ0hNtCzgjPbG-773" target="aiUlM5cSQ0hNtCzgjPbG-770">
          <mxGeometry x="-0.0643" y="15" relative="1" as="geometry">
            <mxPoint x="50" y="85" as="sourcePoint" />
            <mxPoint x="127.34999999999991" y="109.75" as="targetPoint" />
            <Array as="points">
              <mxPoint x="50" y="80" />
              <mxPoint x="50" y="85" />
            </Array>
            <mxPoint as="offset" />
          </mxGeometry>
        </mxCell>
        <mxCell id="aiUlM5cSQ0hNtCzgjPbG-735" value="#2" style="edgeStyle=orthogonalEdgeStyle;rounded=0;html=1;labelBackgroundColor=none;startFill=1;startSize=4;endArrow=blockThin;endFill=1;endSize=4;jettySize=auto;orthogonalLoop=1;strokeColor=#4284F3;strokeWidth=2;fontSize=12;fontColor=#000000;align=center;dashed=0;entryX=0;entryY=0.25;entryDx=0;entryDy=0;exitX=1;exitY=0.25;exitDx=0;exitDy=0;" edge="1" parent="1" source="aiUlM5cSQ0hNtCzgjPbG-770" target="aiUlM5cSQ0hNtCzgjPbG-762">
          <mxGeometry relative="1" as="geometry">
            <mxPoint x="368.25" y="262.5" as="sourcePoint" />
            <mxPoint x="450" y="135" as="targetPoint" />
            <Array as="points">
              <mxPoint x="244" y="72" />
            </Array>
          </mxGeometry>
        </mxCell>
        <mxCell id="aiUlM5cSQ0hNtCzgjPbG-737" style="edgeStyle=orthogonalEdgeStyle;rounded=0;html=1;labelBackgroundColor=none;startFill=1;startSize=4;endArrow=blockThin;endFill=1;endSize=4;jettySize=auto;orthogonalLoop=1;strokeColor=#24F339;strokeWidth=2;fontSize=12;fontColor=#000000;align=center;dashed=0;entryX=0;entryY=0.5;entryDx=0;entryDy=0;exitX=0;exitY=0.5;exitDx=0;exitDy=0;" edge="1" parent="1" source="aiUlM5cSQ0hNtCzgjPbG-727" target="aiUlM5cSQ0hNtCzgjPbG-762">
          <mxGeometry relative="1" as="geometry">
            <mxPoint x="378" y="338" as="sourcePoint" />
            <mxPoint x="450" y="167.5" as="targetPoint" />
            <Array as="points">
              <mxPoint x="420" y="420" />
              <mxPoint x="420" y="85" />
            </Array>
          </mxGeometry>
        </mxCell>
        <mxCell id="aiUlM5cSQ0hNtCzgjPbG-739" value="#3" style="edgeStyle=orthogonalEdgeStyle;rounded=0;html=1;labelBackgroundColor=none;startFill=1;startSize=4;endArrow=blockThin;endFill=1;endSize=4;jettySize=auto;orthogonalLoop=1;strokeColor=#4284F3;strokeWidth=2;fontSize=12;fontColor=#000000;align=center;dashed=0;entryX=0;entryY=0.75;entryDx=0;entryDy=0;exitX=0.362;exitY=1.005;exitDx=0;exitDy=0;exitPerimeter=0;" edge="1" parent="1" source="aiUlM5cSQ0hNtCzgjPbG-770" target="aiUlM5cSQ0hNtCzgjPbG-727">
          <mxGeometry relative="1" as="geometry">
            <mxPoint x="368.25" y="295" as="sourcePoint" />
            <mxPoint x="460" y="145" as="targetPoint" />
            <Array as="points">
              <mxPoint x="155" y="295" />
              <mxPoint x="390" y="295" />
              <mxPoint x="390" y="444" />
            </Array>
          </mxGeometry>
        </mxCell>
        <mxCell id="aiUlM5cSQ0hNtCzgjPbG-740" style="edgeStyle=orthogonalEdgeStyle;rounded=0;html=1;labelBackgroundColor=none;startFill=1;startSize=4;endArrow=blockThin;endFill=1;endSize=4;jettySize=auto;orthogonalLoop=1;strokeColor=#4284F3;strokeWidth=2;fontSize=12;fontColor=#000000;align=center;dashed=0;exitX=0.25;exitY=0;exitDx=0;exitDy=0;entryX=0.162;entryY=1.01;entryDx=0;entryDy=0;entryPerimeter=0;" edge="1" parent="1" source="aiUlM5cSQ0hNtCzgjPbG-727" target="aiUlM5cSQ0hNtCzgjPbG-762">
          <mxGeometry relative="1" as="geometry">
            <mxPoint x="460" y="430" as="sourcePoint" />
            <mxPoint x="480" y="200" as="targetPoint" />
            <Array as="points" />
          </mxGeometry>
        </mxCell>
        <mxCell id="aiUlM5cSQ0hNtCzgjPbG-741" value="#4" style="edgeLabel;html=1;align=center;verticalAlign=middle;resizable=0;points=[];" vertex="1" connectable="0" parent="aiUlM5cSQ0hNtCzgjPbG-740">
          <mxGeometry x="-0.5192" relative="1" as="geometry">
            <mxPoint as="offset" />
          </mxGeometry>
        </mxCell>
        <mxCell id="aiUlM5cSQ0hNtCzgjPbG-742" style="edgeStyle=orthogonalEdgeStyle;rounded=0;html=1;labelBackgroundColor=none;startFill=1;startSize=4;endArrow=blockThin;endFill=1;endSize=4;jettySize=auto;orthogonalLoop=1;strokeColor=#4284F3;strokeWidth=2;fontSize=12;fontColor=#000000;align=center;dashed=0;entryX=0;entryY=0.5;entryDx=0;entryDy=0;exitX=0.75;exitY=0;exitDx=0;exitDy=0;" edge="1" parent="1" source="aiUlM5cSQ0hNtCzgjPbG-727" target="aiUlM5cSQ0hNtCzgjPbG-729">
          <mxGeometry relative="1" as="geometry">
            <mxPoint x="478" y="380" as="sourcePoint" />
            <mxPoint x="490" y="210" as="targetPoint" />
            <Array as="points">
              <mxPoint x="503" y="310" />
            </Array>
          </mxGeometry>
        </mxCell>
        <mxCell id="aiUlM5cSQ0hNtCzgjPbG-743" value="#5" style="edgeLabel;html=1;align=center;verticalAlign=middle;resizable=0;points=[];" vertex="1" connectable="0" parent="aiUlM5cSQ0hNtCzgjPbG-742">
          <mxGeometry x="-0.5192" relative="1" as="geometry">
            <mxPoint as="offset" />
          </mxGeometry>
        </mxCell>
        <mxCell id="aiUlM5cSQ0hNtCzgjPbG-756" value="" style="group" vertex="1" connectable="0" parent="1">
          <mxGeometry x="614" y="60" width="140" height="49.5" as="geometry" />
        </mxCell>
        <mxCell id="aiUlM5cSQ0hNtCzgjPbG-748" value="" style="strokeColor=#dddddd;shadow=1;strokeWidth=1;rounded=1;absoluteArcSize=1;arcSize=14;labelPosition=center;verticalLabelPosition=middle;align=center;verticalAlign=bottom;spacingLeft=0;fontColor=#999999;fontSize=12;whiteSpace=wrap;spacingBottom=2;html=1;" vertex="1" parent="aiUlM5cSQ0hNtCzgjPbG-756">
          <mxGeometry width="140" height="49.5" as="geometry" />
        </mxCell>
        <mxCell id="aiUlM5cSQ0hNtCzgjPbG-744" value="" style="sketch=0;html=1;aspect=fixed;strokeColor=none;shadow=0;fillColor=#3B8DF1;verticalAlign=top;labelPosition=center;verticalLabelPosition=bottom;shape=mxgraph.gcp2.gear" vertex="1" parent="aiUlM5cSQ0hNtCzgjPbG-756">
          <mxGeometry x="12" y="10.75" width="29.75" height="29.75" as="geometry" />
        </mxCell>
        <mxCell id="aiUlM5cSQ0hNtCzgjPbG-755" value="Config server" style="text;html=1;align=center;verticalAlign=middle;resizable=0;points=[];autosize=1;strokeColor=none;fillColor=none;" vertex="1" parent="aiUlM5cSQ0hNtCzgjPbG-756">
          <mxGeometry x="44" y="9.75" width="90" height="30" as="geometry" />
        </mxCell>
        <mxCell id="aiUlM5cSQ0hNtCzgjPbG-761" value="" style="group" vertex="1" connectable="0" parent="1">
          <mxGeometry x="445" y="60" width="149" height="49.5" as="geometry" />
        </mxCell>
        <mxCell id="aiUlM5cSQ0hNtCzgjPbG-762" value="" style="strokeColor=#dddddd;shadow=1;strokeWidth=1;rounded=1;absoluteArcSize=1;arcSize=14;labelPosition=center;verticalLabelPosition=middle;align=center;verticalAlign=bottom;spacingLeft=0;fontColor=#999999;fontSize=12;whiteSpace=wrap;spacingBottom=2;html=1;" vertex="1" parent="aiUlM5cSQ0hNtCzgjPbG-761">
          <mxGeometry width="140" height="49.5" as="geometry" />
        </mxCell>
        <mxCell id="aiUlM5cSQ0hNtCzgjPbG-763" value="" style="sketch=0;html=1;aspect=fixed;strokeColor=none;shadow=0;fillColor=#3B8DF1;verticalAlign=top;labelPosition=center;verticalLabelPosition=bottom;shape=mxgraph.gcp2.gear" vertex="1" parent="aiUlM5cSQ0hNtCzgjPbG-761">
          <mxGeometry x="12" y="10.75" width="29.75" height="29.75" as="geometry" />
        </mxCell>
        <mxCell id="aiUlM5cSQ0hNtCzgjPbG-764" value="Service discovery" style="text;html=1;align=center;verticalAlign=middle;resizable=0;points=[];autosize=1;strokeColor=none;fillColor=none;" vertex="1" parent="aiUlM5cSQ0hNtCzgjPbG-761">
          <mxGeometry x="29" y="9.75" width="120" height="30" as="geometry" />
        </mxCell>
        <mxCell id="aiUlM5cSQ0hNtCzgjPbG-773" value="Actor" style="shape=umlActor;verticalLabelPosition=bottom;verticalAlign=top;html=1;outlineConnect=0;" vertex="1" parent="1">
          <mxGeometry x="10" y="56" width="30" height="60" as="geometry" />
        </mxCell>
        <mxCell id="aiUlM5cSQ0hNtCzgjPbG-774" style="edgeStyle=orthogonalEdgeStyle;rounded=0;html=1;labelBackgroundColor=none;startFill=1;startSize=4;endArrow=blockThin;endFill=1;endSize=4;jettySize=auto;orthogonalLoop=1;strokeColor=#24F339;strokeWidth=2;fontSize=12;fontColor=#000000;align=center;dashed=0;exitX=0;exitY=0.25;exitDx=0;exitDy=0;entryX=0.5;entryY=1;entryDx=0;entryDy=0;" edge="1" parent="1" source="aiUlM5cSQ0hNtCzgjPbG-729" target="aiUlM5cSQ0hNtCzgjPbG-762">
          <mxGeometry relative="1" as="geometry">
            <mxPoint x="650" y="320" as="sourcePoint" />
            <mxPoint x="680" y="320" as="targetPoint" />
          </mxGeometry>
        </mxCell>
        <mxCell id="aiUlM5cSQ0hNtCzgjPbG-776" style="edgeStyle=orthogonalEdgeStyle;rounded=0;html=1;labelBackgroundColor=none;startFill=1;startSize=4;endArrow=blockThin;endFill=1;endSize=4;jettySize=auto;orthogonalLoop=1;strokeColor=#24F339;strokeWidth=2;fontSize=12;fontColor=#000000;align=center;dashed=0;exitX=0.5;exitY=0;exitDx=0;exitDy=0;entryX=0.25;entryY=1;entryDx=0;entryDy=0;startArrow=block;" edge="1" parent="1" source="aiUlM5cSQ0hNtCzgjPbG-727" target="aiUlM5cSQ0hNtCzgjPbG-748">
          <mxGeometry relative="1" as="geometry">
            <mxPoint x="580" y="295" as="sourcePoint" />
            <mxPoint x="525" y="120" as="targetPoint" />
          </mxGeometry>
        </mxCell>
        <mxCell id="aiUlM5cSQ0hNtCzgjPbG-778" style="edgeStyle=orthogonalEdgeStyle;rounded=0;html=1;labelBackgroundColor=none;startFill=1;startSize=4;endArrow=blockThin;endFill=1;endSize=4;jettySize=auto;orthogonalLoop=1;strokeColor=#24F339;strokeWidth=2;fontSize=12;fontColor=#000000;align=center;dashed=0;exitX=0.25;exitY=0;exitDx=0;exitDy=0;entryX=0.119;entryY=1.071;entryDx=0;entryDy=0;startArrow=block;entryPerimeter=0;" edge="1" parent="1" source="aiUlM5cSQ0hNtCzgjPbG-729" target="aiUlM5cSQ0hNtCzgjPbG-748">
          <mxGeometry relative="1" as="geometry">
            <mxPoint x="495" y="380" as="sourcePoint" />
            <mxPoint x="659" y="120" as="targetPoint" />
            <Array as="points">
              <mxPoint x="588" y="230" />
              <mxPoint x="631" y="230" />
            </Array>
          </mxGeometry>
        </mxCell>
      </root>
    </mxGraphModel>
  </diagram>
</mxfile>
